  0
SECTION
  2
HEADER
  0
ENDSEC
  0
SECTION
  2
TABLES
  0
TABLE
  2
LAYER
  70
    153
  0
LAYER
  2
Cylinder4
 70
0
 62
15
  6
CONTINUOUS
  0
ENDTAB
  0
ENDSEC
  0
SECTION
  2
ENTITIES
  0
3DFACE
  8
Cylinder4
 10
-1.318884
 20
0.637855
 30
0.669455
 11
-1.144791
 21
0.684504
 31
0.669455
 12
-1.144791
 22
0.684504
 32
0.686345
 13
-1.318884
 23
0.637855
 33
0.686345
 62
0
  0
3DFACE
  8
Cylinder4
 10
-1.144791
 20
0.684504
 30
0.669455
 11
-0.964556
 21
0.684506
 31
0.669455
 12
-0.964556
 22
0.684506
 32
0.686344
 13
-1.144791
 23
0.684504
 33
0.686345
 62
0
  0
3DFACE
  8
Cylinder4
 10
-0.964556
 20
0.684506
 30
0.669455
 11
-0.790463
 21
0.637859
 31
0.669455
 12
-0.790463
 22
0.637859
 32
0.686344
 13
-0.964556
 23
0.684506
 33
0.686344
 62
0
  0
3DFACE
  8
Cylinder4
 10
-0.790463
 20
0.637859
 30
0.669455
 11
-0.634376
 21
0.547744
 31
0.669456
 12
-0.634376
 22
0.547744
 32
0.686343
 13
-0.790463
 23
0.637859
 33
0.686344
 62
0
  0
3DFACE
  8
Cylinder4
 10
-0.634376
 20
0.547744
 30
0.669456
 11
-0.506930
 21
0.420300
 31
0.669457
 12
-0.506929
 22
0.420300
 32
0.686342
 13
-0.634376
 23
0.547744
 33
0.686343
 62
0
  0
3DFACE
  8
Cylinder4
 10
-0.506930
 20
0.420300
 30
0.669457
 11
-0.416812
 21
0.264213
 31
0.669458
 12
-0.416812
 22
0.264213
 32
0.686342
 13
-0.506929
 23
0.420300
 33
0.686342
 62
0
  0
3DFACE
  8
Cylinder4
 10
-0.416812
 20
0.264213
 30
0.669458
 11
-0.370162
 21
0.090121
 31
0.669459
 12
-0.370162
 22
0.090121
 32
0.686342
 13
-0.416812
 23
0.264213
 33
0.686342
 62
0
  0
3DFACE
  8
Cylinder4
 10
-0.370162
 20
0.090121
 30
0.669459
 11
-0.370162
 21
-0.090112
 31
0.669459
 12
-0.370162
 22
-0.090113
 32
0.686343
 13
-0.370162
 23
0.090121
 33
0.686342
 62
0
  0
3DFACE
  8
Cylinder4
 10
-0.370162
 20
-0.090112
 30
0.669459
 11
-0.416809
 21
-0.264206
 31
0.669461
 12
-0.416809
 22
-0.264206
 32
0.686344
 13
-0.370162
 23
-0.090113
 33
0.686343
 62
0
  0
3DFACE
  8
Cylinder4
 10
-0.416809
 20
-0.264206
 30
0.669461
 11
-0.506926
 21
-0.420295
 31
0.669462
 12
-0.506926
 22
-0.420295
 32
0.686344
 13
-0.416809
 23
-0.264206
 33
0.686344
 62
0
  0
3DFACE
  8
Cylinder4
 10
-0.506926
 20
-0.420295
 30
0.669462
 11
-0.634371
 21
-0.547741
 31
0.669462
 12
-0.634371
 22
-0.547741
 32
0.686344
 13
-0.506926
 23
-0.420295
 33
0.686344
 62
0
  0
3DFACE
  8
Cylinder4
 10
-0.634371
 20
-0.547741
 30
0.669462
 11
-0.790460
 21
-0.637859
 31
0.669463
 12
-0.790460
 22
-0.637859
 32
0.686344
 13
-0.634371
 23
-0.547741
 33
0.686344
 62
0
  0
3DFACE
  8
Cylinder4
 10
-0.964553
 20
-0.684508
 30
0.669462
 11
-1.054688
 21
-0.638013
 31
0.557927
 12
-1.144787
 22
-0.684509
 32
0.669463
 13
-1.144787
 23
-0.684509
 33
0.669463
 62
0
  0
3DFACE
  8
Cylinder4
 10
-1.144787
 20
-0.684509
 30
0.669463
 11
-1.219816
 21
-0.616271
 31
0.557931
 12
-1.318882
 22
-0.637862
 32
0.669462
 13
-1.318882
 23
-0.637862
 33
0.669462
 62
0
  0
3DFACE
  8
Cylinder4
 10
-1.318882
 20
-0.637862
 30
0.669462
 11
-1.373692
 21
-0.552534
 31
0.557936
 12
-1.474971
 22
-0.547745
 32
0.669461
 13
-1.474971
 23
-0.547745
 33
0.669461
 62
0
  0
3DFACE
  8
Cylinder4
 10
-1.474971
 20
-0.547745
 30
0.669461
 11
-1.505831
 21
-0.451143
 31
0.557948
 12
-1.602415
 22
-0.420301
 32
0.669460
 13
-1.602415
 23
-0.420301
 33
0.669460
 62
0
  0
3DFACE
  8
Cylinder4
 10
-1.602415
 20
-0.420301
 30
0.669460
 11
-1.607221
 21
-0.319007
 31
0.557949
 12
-1.692533
 22
-0.264214
 32
0.669459
 13
-1.692533
 23
-0.264214
 33
0.669459
 62
0
  0
3DFACE
  8
Cylinder4
 10
-1.692533
 20
-0.264214
 30
0.669459
 11
-1.670962
 21
-0.165131
 31
0.557961
 12
-1.739181
 22
-0.090122
 32
0.669458
 13
-1.739181
 23
-0.090122
 33
0.669458
 62
0
  0
3DFACE
  8
Cylinder4
 10
-1.144791
 20
0.684504
 30
0.669455
 11
-1.054667
 21
0.638029
 31
0.557969
 12
-0.964556
 22
0.684506
 32
0.669455
 13
-0.964556
 23
0.684506
 33
0.669455
 62
0
  0
3DFACE
  8
Cylinder4
 10
-0.964556
 20
0.684506
 30
0.669455
 11
-0.889531
 21
0.616287
 31
0.557967
 12
-0.790463
 22
0.637859
 32
0.669455
 13
-0.790463
 23
0.637859
 33
0.669455
 62
0
  0
3DFACE
  8
Cylinder4
 10
-0.790463
 20
0.637859
 30
0.669455
 11
-0.735651
 21
0.552546
 31
0.557963
 12
-0.634376
 22
0.547744
 32
0.669456
 13
-0.634376
 23
0.547744
 33
0.669456
 62
0
  0
3DFACE
  8
Cylinder4
 10
-0.634376
 20
0.547744
 30
0.669456
 11
-0.603511
 21
0.451146
 31
0.557958
 12
-0.506930
 22
0.420300
 32
0.669457
 13
-0.506930
 23
0.420300
 33
0.669457
 62
0
  0
3DFACE
  8
Cylinder4
 10
-0.506930
 20
0.420300
 30
0.669457
 11
-0.502121
 21
0.319004
 31
0.557952
 12
-0.416812
 22
0.264213
 32
0.669458
 13
-0.416812
 23
0.264213
 33
0.669458
 62
0
  0
3DFACE
  8
Cylinder4
 10
-0.416812
 20
0.264213
 30
0.669458
 11
-0.438386
 21
0.165125
 31
0.557948
 12
-0.370162
 22
0.090121
 32
0.669459
 13
-0.370162
 23
0.090121
 33
0.669459
 62
0
  0
3DFACE
  8
Cylinder4
 10
-0.370162
 20
0.090121
 30
0.669459
 11
-0.416651
 21
-0.000010
 31
0.557941
 12
-0.370162
 22
-0.090112
 32
0.669459
 13
-0.370162
 23
-0.090112
 33
0.669459
 62
0
  0
3DFACE
  8
Cylinder4
 10
-0.370162
 20
-0.090112
 30
0.669459
 11
-0.438399
 21
-0.165142
 31
0.557931
 12
-0.416809
 22
-0.264206
 32
0.669461
 13
-0.416809
 23
-0.264206
 33
0.669461
 62
0
  0
3DFACE
  8
Cylinder4
 10
-0.416809
 20
-0.264206
 30
0.669461
 11
-0.502143
 21
-0.319018
 31
0.557926
 12
-0.506926
 22
-0.420295
 32
0.669462
 13
-0.506926
 23
-0.420295
 33
0.669462
 62
0
  0
3DFACE
  8
Cylinder4
 10
-0.506926
 20
-0.420295
 30
0.669462
 11
-0.603540
 21
-0.451153
 31
0.557925
 12
-0.634371
 22
-0.547741
 32
0.669462
 13
-0.634371
 23
-0.547741
 33
0.669462
 62
0
  0
3DFACE
  8
Cylinder4
 10
-0.634371
 20
-0.547741
 30
0.669462
 11
-0.735682
 21
-0.552541
 31
0.557922
 12
-0.790460
 22
-0.637859
 32
0.669463
 13
-0.790460
 23
-0.637859
 33
0.669463
 62
0
  0
3DFACE
  8
Cylinder4
 10
-0.810511
 20
-0.589450
 30
0.557941
 11
-0.790460
 21
-0.637859
 31
0.669463
 12
-0.735682
 22
-0.552541
 32
0.557922
 13
-0.735682
 23
-0.552541
 33
0.557922
 62
0
  0
3DFACE
  8
Cylinder4
 10
-0.790460
 20
-0.637859
 30
0.669463
 11
-0.889557
 21
-0.616276
 31
0.557925
 12
-0.964553
 22
-0.684508
 32
0.669462
 13
-0.964553
 23
-0.684508
 33
0.669462
 62
0
  0
3DFACE
  8
Cylinder4
 10
-0.889557
 20
-0.616276
 30
0.557925
 11
-0.790460
 21
-0.637859
 31
0.669463
 12
-0.810511
 22
-0.589450
 32
0.557941
 13
-0.810511
 23
-0.589450
 33
0.557941
 62
0
  0
3DFACE
  8
Cylinder4
 10
-0.971392
 20
-0.632562
 30
0.557948
 11
-0.964553
 21
-0.684508
 31
0.669462
 12
-0.889557
 22
-0.616276
 32
0.557925
 13
-0.889557
 23
-0.616276
 33
0.557925
 62
0
  0
3DFACE
  8
Cylinder4
 10
-1.054688
 20
-0.638013
 30
0.557927
 11
-0.964553
 21
-0.684508
 31
0.669462
 12
-0.971392
 22
-0.632562
 32
0.557948
 13
-0.971392
 23
-0.632562
 33
0.557948
 62
0
  0
3DFACE
  8
Cylinder4
 10
-1.219816
 20
-0.616271
 30
0.557931
 11
-1.144787
 21
-0.684509
 31
0.669463
 12
-1.137948
 22
-0.632559
 32
0.557940
 13
-1.137948
 23
-0.632559
 33
0.557940
 62
0
  0
3DFACE
  8
Cylinder4
 10
-1.298831
 20
-0.589454
 30
0.557945
 11
-1.318882
 21
-0.637862
 31
0.669462
 12
-1.219816
 22
-0.616271
 32
0.557931
 13
-1.219816
 23
-0.616271
 33
0.557931
 62
0
  0
3DFACE
  8
Cylinder4
 10
-1.443076
 20
-0.506180
 30
0.557953
 11
-1.474971
 21
-0.547745
 31
0.669461
 12
-1.373692
 22
-0.552534
 32
0.557936
 13
-1.373692
 23
-0.552534
 33
0.557936
 62
0
  0
3DFACE
  8
Cylinder4
 10
-1.505831
 20
-0.451143
 30
0.557948
 11
-1.474971
 21
-0.547745
 31
0.669461
 12
-1.443076
 22
-0.506180
 32
0.557953
 13
-1.443076
 23
-0.506180
 33
0.557953
 62
0
  0
3DFACE
  8
Cylinder4
 10
-1.560852
 20
-0.388409
 30
0.557959
 11
-1.602415
 21
-0.420301
 31
0.669460
 12
-1.505831
 22
-0.451143
 32
0.557948
 13
-1.505831
 23
-0.451143
 33
0.557948
 62
0
  0
3DFACE
  8
Cylinder4
 10
-1.607221
 20
-0.319007
 30
0.557949
 11
-1.602415
 21
-0.420301
 31
0.669460
 12
-1.560852
 22
-0.388409
 32
0.557959
 13
-1.560852
 23
-0.388409
 33
0.557959
 62
0
  0
3DFACE
  8
Cylinder4
 10
-1.739181
 20
-0.090122
 30
0.669458
 11
-1.692702
 21
0.000001
 31
0.557964
 12
-1.739181
 22
0.090113
 32
0.669457
 13
-1.739181
 23
0.090113
 33
0.669457
 62
0
  0
3DFACE
  8
Cylinder4
 10
-1.644134
 20
-0.244167
 30
0.557964
 11
-1.692533
 21
-0.264214
 31
0.669459
 12
-1.607221
 22
-0.319007
 32
0.557949
 13
-1.607221
 23
-0.319007
 33
0.557949
 62
0
  0
3DFACE
  8
Cylinder4
 10
-1.670962
 20
-0.165131
 30
0.557961
 11
-1.692533
 21
-0.264214
 31
0.669459
 12
-1.644134
 22
-0.244167
 32
0.557964
 13
-1.644134
 23
-0.244167
 33
0.557964
 62
0
  0
3DFACE
  8
Cylinder4
 10
-1.687245
 20
-0.083285
 30
0.557968
 11
-1.739181
 21
-0.090122
 31
0.669458
 12
-1.670962
 22
-0.165131
 32
0.557961
 13
-1.670962
 23
-0.165131
 33
0.557961
 62
0
  0
3DFACE
  8
Cylinder4
 10
-1.739181
 20
0.090113
 30
0.669457
 11
-1.670963
 21
0.165136
 31
0.557969
 12
-1.692533
 22
0.264205
 32
0.669456
 13
-1.692533
 23
0.264205
 33
0.669456
 62
0
  0
3DFACE
  8
Cylinder4
 10
-1.692702
 20
0.000001
 30
0.557964
 11
-1.739181
 21
-0.090122
 31
0.669458
 12
-1.687245
 22
-0.083285
 32
0.557968
 13
-1.687245
 23
-0.083285
 33
0.557968
 62
0
  0
3DFACE
  8
Cylinder4
 10
-1.692533
 20
0.264205
 30
0.669456
 11
-1.607225
 21
0.319016
 31
0.557975
 12
-1.602416
 22
0.420293
 32
0.669455
 13
-1.602416
 23
0.420293
 33
0.669455
 62
0
  0
3DFACE
  8
Cylinder4
 10
-1.602416
 20
0.420293
 30
0.669455
 11
-1.505798
 21
0.451167
 31
0.557970
 12
-1.474973
 22
0.547737
 32
0.669455
 13
-1.474973
 23
0.547737
 33
0.669455
 62
0
  0
3DFACE
  8
Cylinder4
 10
-1.318884
 20
0.637855
 30
0.669455
 11
-1.474973
 21
0.547737
 31
0.669455
 12
-1.373695
 22
0.552547
 32
0.557973
 13
-1.373695
 23
0.552547
 33
0.557973
 62
0
  0
3DFACE
  8
Cylinder4
 10
-1.298838
 20
0.589462
 30
0.557975
 11
-1.318884
 21
0.637855
 31
0.669455
 12
-1.373695
 22
0.552547
 32
0.557973
 13
-1.373695
 23
0.552547
 33
0.557973
 62
0
  0
3DFACE
  8
Cylinder4
 10
-1.219800
 20
0.616290
 30
0.557968
 11
-1.318884
 21
0.637855
 31
0.669455
 12
-1.298838
 22
0.589462
 32
0.557975
 13
-1.298838
 23
0.589462
 33
0.557975
 62
0
  0
3DFACE
  8
Cylinder4
 10
-1.219800
 20
0.616290
 30
0.557968
 11
-1.144791
 21
0.684504
 31
0.669455
 12
-1.318884
 22
0.637855
 32
0.669455
 13
-1.318884
 23
0.637855
 33
0.669455
 62
0
  0
3DFACE
  8
Cylinder4
 10
-0.465209
 20
0.244165
 30
0.557965
 11
-0.416812
 21
0.264213
 31
0.669458
 12
-0.502121
 22
0.319004
 32
0.557952
 13
-0.502121
 23
0.319004
 33
0.557952
 62
0
  0
3DFACE
  8
Cylinder4
 10
-0.438386
 20
0.165125
 30
0.557948
 11
-0.416812
 21
0.264213
 31
0.669458
 12
-0.465209
 22
0.244165
 32
0.557965
 13
-0.465209
 23
0.244165
 33
0.557965
 62
0
  0
3DFACE
  8
Cylinder4
 10
-0.810511
 20
-0.589450
 30
0.557941
 11
-0.735682
 21
-0.552541
 31
0.557922
 12
-0.827764
 22
-0.547799
 32
0.472182
 13
-0.827764
 23
-0.547799
 33
0.472182
 62
0
  0
3DFACE
  8
Cylinder4
 10
-1.373692
 20
-0.552534
 30
0.557936
 11
-1.318882
 21
-0.637862
 31
0.669462
 12
-1.298831
 22
-0.589454
 32
0.557945
 13
-1.298831
 23
-0.589454
 33
0.557945
 62
0
  0
3DFACE
  8
Cylinder4
 10
-1.137953
 20
0.632570
 30
0.557970
 11
-1.144791
 21
0.684504
 31
0.669455
 12
-1.219800
 22
0.616290
 32
0.557968
 13
-1.219800
 23
0.616290
 33
0.557968
 62
0
  0
3DFACE
  8
Cylinder4
 10
-1.644134
 20
-0.244167
 30
0.557964
 11
-1.602469
 21
-0.226909
 31
0.472176
 12
-1.670962
 22
-0.165131
 32
0.557961
 13
-1.670962
 23
-0.165131
 33
0.557961
 62
0
  0
3DFACE
  8
Cylinder4
 10
-1.054667
 20
0.638029
 30
0.557969
 11
-1.144791
 21
0.684504
 31
0.669455
 12
-1.137953
 22
0.632570
 32
0.557970
 13
-1.137953
 23
0.632570
 33
0.557970
 62
0
  0
3DFACE
  8
Cylinder4
 10
-0.971393
 20
0.632571
 30
0.557969
 11
-0.964556
 21
0.684506
 31
0.669455
 12
-1.054667
 22
0.638029
 32
0.557969
 13
-1.054667
 23
0.638029
 33
0.557969
 62
0
  0
3DFACE
  8
Cylinder4
 10
-0.889531
 20
0.616287
 30
0.557967
 11
-0.964556
 21
0.684506
 31
0.669455
 12
-0.971393
 22
0.632571
 32
0.557969
 13
-0.971393
 23
0.632571
 33
0.557969
 62
0
  0
3DFACE
  8
Cylinder4
 10
-0.810507
 20
0.589465
 30
0.557973
 11
-0.790463
 21
0.637859
 31
0.669455
 12
-0.889531
 22
0.616287
 32
0.557967
 13
-0.889531
 23
0.616287
 33
0.557967
 62
0
  0
3DFACE
  8
Cylinder4
 10
-0.735651
 20
0.552546
 30
0.557963
 11
-0.790463
 21
0.637859
 31
0.669455
 12
-0.810507
 22
0.589465
 32
0.557973
 13
-0.810507
 23
0.589465
 33
0.557973
 62
0
  0
3DFACE
  8
Cylinder4
 10
-0.666262
 20
0.506187
 30
0.557975
 11
-0.634376
 21
0.547744
 31
0.669456
 12
-0.735651
 22
0.552546
 32
0.557963
 13
-0.735651
 23
0.552546
 33
0.557963
 62
0
  0
3DFACE
  8
Cylinder4
 10
-0.603511
 20
0.451146
 30
0.557958
 11
-0.634376
 21
0.547744
 31
0.669456
 12
-0.666262
 22
0.506187
 32
0.557975
 13
-0.666262
 23
0.506187
 33
0.557975
 62
0
  0
3DFACE
  8
Cylinder4
 10
-0.548487
 20
0.388410
 30
0.557970
 11
-0.506930
 21
0.420300
 31
0.669457
 12
-0.603511
 22
0.451146
 32
0.557958
 13
-0.603511
 23
0.451146
 33
0.557958
 62
0
  0
3DFACE
  8
Cylinder4
 10
-0.502121
 20
0.319004
 30
0.557952
 11
-0.506930
 21
0.420300
 31
0.669457
 12
-0.548487
 22
0.388410
 32
0.557970
 13
-0.548487
 23
0.388410
 33
0.557970
 62
0
  0
3DFACE
  8
Cylinder4
 10
-0.422102
 20
0.083282
 30
0.557961
 11
-0.370162
 21
0.090121
 31
0.669459
 12
-0.438386
 22
0.165125
 32
0.557948
 13
-0.438386
 23
0.165125
 33
0.557948
 62
0
  0
3DFACE
  8
Cylinder4
 10
-0.416651
 20
-0.000010
 30
0.557941
 11
-0.370162
 21
0.090121
 31
0.669459
 12
-0.422102
 22
0.083282
 32
0.557961
 13
-0.422102
 23
0.083282
 33
0.557961
 62
0
  0
3DFACE
  8
Cylinder4
 10
-0.422105
 20
-0.083275
 30
0.557954
 11
-0.370162
 21
-0.090112
 31
0.669459
 12
-0.416651
 22
-0.000010
 32
0.557941
 13
-0.416651
 23
-0.000010
 33
0.557941
 62
0
  0
3DFACE
  8
Cylinder4
 10
-0.438399
 20
-0.165142
 30
0.557931
 11
-0.370162
 21
-0.090112
 31
0.669459
 12
-0.422105
 22
-0.083275
 32
0.557954
 13
-0.422105
 23
-0.083275
 33
0.557954
 62
0
  0
3DFACE
  8
Cylinder4
 10
-0.465216
 20
-0.244157
 30
0.557948
 11
-0.416809
 21
-0.264206
 31
0.669461
 12
-0.438399
 22
-0.165142
 32
0.557931
 13
-0.438399
 23
-0.165142
 33
0.557931
 62
0
  0
3DFACE
  8
Cylinder4
 10
-0.502143
 20
-0.319018
 30
0.557926
 11
-0.416809
 21
-0.264206
 31
0.669461
 12
-0.465216
 22
-0.244157
 32
0.557948
 13
-0.465216
 23
-0.244157
 33
0.557948
 62
0
  0
3DFACE
  8
Cylinder4
 10
-0.548496
 20
-0.388398
 30
0.557943
 11
-0.506926
 21
-0.420295
 31
0.669462
 12
-0.502143
 22
-0.319018
 32
0.557926
 13
-0.502143
 23
-0.319018
 33
0.557926
 62
0
  0
3DFACE
  8
Cylinder4
 10
-0.603540
 20
-0.451153
 30
0.557925
 11
-0.506926
 21
-0.420295
 31
0.669462
 12
-0.548496
 22
-0.388398
 32
0.557943
 13
-0.548496
 23
-0.388398
 33
0.557943
 62
0
  0
3DFACE
  8
Cylinder4
 10
-0.666269
 20
-0.506171
 30
0.557942
 11
-0.634371
 21
-0.547741
 31
0.669462
 12
-0.603540
 22
-0.451153
 32
0.557925
 13
-0.603540
 23
-0.451153
 33
0.557925
 62
0
  0
3DFACE
  8
Cylinder4
 10
-0.735682
 20
-0.552541
 30
0.557922
 11
-0.634371
 21
-0.547741
 31
0.669462
 12
-0.666269
 22
-0.506171
 32
0.557942
 13
-0.666269
 23
-0.506171
 33
0.557942
 62
0
  0
3DFACE
  8
Cylinder4
 10
-0.971392
 20
-0.632562
 30
0.557948
 11
-0.889557
 21
-0.616276
 31
0.557925
 12
-0.977277
 22
-0.587860
 32
0.472178
 13
-0.977277
 23
-0.587860
 33
0.472178
 62
0
  0
3DFACE
  8
Cylinder4
 10
-1.137948
 20
-0.632559
 30
0.557940
 11
-1.144787
 21
-0.684509
 31
0.669463
 12
-1.054688
 22
-0.638013
 32
0.557927
 13
-1.054688
 23
-0.638013
 33
0.557927
 62
0
  0
3DFACE
  8
Cylinder4
 10
-1.137948
 20
-0.632559
 30
0.557940
 11
-1.132063
 21
-0.587864
 31
0.472185
 12
-1.219816
 22
-0.616271
 32
0.557931
 13
-1.219816
 23
-0.616271
 33
0.557931
 62
0
  0
3DFACE
  8
Cylinder4
 10
-1.298831
 20
-0.589454
 30
0.557945
 11
-1.219816
 21
-0.616271
 31
0.557931
 12
-1.281577
 22
-0.547801
 32
0.472182
 13
-1.281577
 23
-0.547801
 33
0.472182
 62
0
  0
3DFACE
  8
Cylinder4
 10
-1.298831
 20
-0.589454
 30
0.557945
 11
-1.281577
 21
-0.547801
 31
0.472182
 12
-1.373692
 22
-0.552534
 32
0.557936
 13
-1.373692
 23
-0.552534
 33
0.557936
 62
0
  0
3DFACE
  8
Cylinder4
 10
-1.443076
 20
-0.506180
 30
0.557953
 11
-1.373692
 21
-0.552534
 31
0.557936
 12
-1.415626
 22
-0.470407
 32
0.472178
 13
-1.415626
 23
-0.470407
 33
0.472178
 62
0
  0
3DFACE
  8
Cylinder4
 10
-1.443076
 20
-0.506180
 30
0.557953
 11
-1.415626
 21
-0.470407
 31
0.472178
 12
-1.505831
 22
-0.451143
 32
0.557948
 13
-1.505831
 23
-0.451143
 33
0.557948
 62
0
  0
3DFACE
  8
Cylinder4
 10
-1.644134
 20
-0.244167
 30
0.557964
 11
-1.607221
 21
-0.319007
 31
0.557949
 12
-1.602469
 22
-0.226909
 32
0.472176
 13
-1.602469
 23
-0.226909
 33
0.472176
 62
0
  0
3DFACE
  8
Cylinder4
 10
-1.137948
 20
-0.632559
 30
0.557940
 11
-1.054688
 21
-0.638013
 31
0.557927
 12
-1.132063
 22
-0.587864
 32
0.472185
 13
-1.132063
 23
-0.587864
 33
0.472185
 62
0
  0
3DFACE
  8
Cylinder4
 10
-1.560852
 20
-0.388409
 30
0.557959
 11
-1.505831
 21
-0.451143
 31
0.557948
 12
-1.525077
 22
-0.360958
 32
0.472179
 13
-1.525077
 23
-0.360958
 33
0.472179
 62
0
  0
3DFACE
  8
Cylinder4
 10
-1.687243
 20
0.083275
 30
0.557964
 11
-1.739181
 21
0.090113
 31
0.669457
 12
-1.692702
 22
0.000001
 32
0.557964
 13
-1.692702
 23
0.000001
 33
0.557964
 62
0
  0
3DFACE
  8
Cylinder4
 10
-1.560852
 20
-0.388409
 30
0.557959
 11
-1.525077
 21
-0.360958
 31
0.472179
 12
-1.607221
 22
-0.319007
 32
0.557949
 13
-1.607221
 23
-0.319007
 33
0.557949
 62
0
  0
3DFACE
  8
Cylinder4
 10
-1.687245
 20
-0.083285
 30
0.557968
 11
-1.670962
 21
-0.165131
 31
0.557961
 12
-1.642533
 22
-0.077398
 32
0.472181
 13
-1.642533
 23
-0.077398
 33
0.472181
 62
0
  0
3DFACE
  8
Cylinder4
 10
-1.670963
 20
0.165136
 30
0.557969
 11
-1.739181
 21
0.090113
 31
0.669457
 12
-1.687243
 22
0.083275
 32
0.557964
 13
-1.687243
 23
0.083275
 33
0.557964
 62
0
  0
3DFACE
  8
Cylinder4
 10
-1.644136
 20
0.244158
 30
0.557967
 11
-1.692533
 21
0.264205
 31
0.669456
 12
-1.670963
 22
0.165136
 32
0.557969
 13
-1.670963
 23
0.165136
 33
0.557969
 62
0
  0
3DFACE
  8
Cylinder4
 10
-1.607225
 20
0.319016
 30
0.557975
 11
-1.692533
 21
0.264205
 31
0.669456
 12
-1.644136
 22
0.244158
 32
0.557967
 13
-1.644136
 23
0.244158
 33
0.557967
 62
0
  0
3DFACE
  8
Cylinder4
 10
-1.560858
 20
0.388405
 30
0.557971
 11
-1.602416
 21
0.420293
 31
0.669455
 12
-1.607225
 22
0.319016
 32
0.557975
 13
-1.607225
 23
0.319016
 33
0.557975
 62
0
  0
3DFACE
  8
Cylinder4
 10
-1.505798
 20
0.451167
 30
0.557970
 11
-1.602416
 21
0.420293
 31
0.669455
 12
-1.560858
 22
0.388405
 32
0.557971
 13
-1.560858
 23
0.388405
 33
0.557971
 62
0
  0
3DFACE
  8
Cylinder4
 10
-1.443083
 20
0.506178
 30
0.557968
 11
-1.474973
 21
0.547737
 31
0.669455
 12
-1.505798
 22
0.451167
 32
0.557970
 13
-1.505798
 23
0.451167
 33
0.557970
 62
0
  0
3DFACE
  8
Cylinder4
 10
-1.373695
 20
0.552547
 30
0.557973
 11
-1.474973
 21
0.547737
 31
0.669455
 12
-1.443083
 22
0.506178
 32
0.557968
 13
-1.443083
 23
0.506178
 33
0.557968
 62
0
  0
3DFACE
  8
Cylinder4
 10
-1.443083
 20
0.506178
 30
0.557968
 11
-1.415631
 21
0.470402
 31
0.472185
 12
-1.373695
 22
0.552547
 32
0.557973
 13
-1.373695
 23
0.552547
 33
0.557973
 62
0
  0
3DFACE
  8
Cylinder4
 10
-1.298838
 20
0.589462
 30
0.557975
 11
-1.281579
 21
0.547794
 31
0.472180
 12
-1.219800
 22
0.616290
 32
0.557968
 13
-1.219800
 23
0.616290
 33
0.557968
 62
0
  0
3DFACE
  8
Cylinder4
 10
-1.298838
 20
0.589462
 30
0.557975
 11
-1.373695
 21
0.552547
 31
0.557973
 12
-1.281579
 22
0.547794
 32
0.472180
 13
-1.281579
 23
0.547794
 33
0.472180
 62
0
  0
3DFACE
  8
Cylinder4
 10
-0.666269
 20
-0.506171
 30
0.557942
 11
-0.603540
 21
-0.451153
 31
0.557925
 12
-0.693713
 22
-0.470405
 32
0.472184
 13
-0.693713
 23
-0.470405
 33
0.472184
 62
0
  0
3DFACE
  8
Cylinder4
 10
-1.137953
 20
0.632570
 30
0.557970
 11
-1.132067
 21
0.587859
 31
0.472184
 12
-1.054667
 22
0.638029
 32
0.557969
 13
-1.054667
 23
0.638029
 33
0.557969
 62
0
  0
3DFACE
  8
Cylinder4
 10
-1.137953
 20
0.632570
 30
0.557970
 11
-1.219800
 21
0.616290
 31
0.557968
 12
-1.132067
 22
0.587859
 32
0.472184
 13
-1.132067
 23
0.587859
 33
0.472184
 62
0
  0
3DFACE
  8
Cylinder4
 10
-0.548496
 20
-0.388398
 30
0.557943
 11
-0.502143
 21
-0.319018
 31
0.557926
 12
-0.584263
 22
-0.360954
 32
0.472183
 13
-0.584263
 23
-0.360954
 33
0.472183
 62
0
  0
3DFACE
  8
Cylinder4
 10
-0.971393
 20
0.632571
 30
0.557969
 11
-1.054667
 21
0.638029
 31
0.557969
 12
-0.977279
 22
0.587860
 32
0.472185
 13
-0.977279
 23
0.587860
 33
0.472185
 62
0
  0
3DFACE
  8
Cylinder4
 10
-0.971393
 20
0.632571
 30
0.557969
 11
-0.977279
 21
0.587860
 31
0.472185
 12
-0.889531
 22
0.616287
 32
0.557967
 13
-0.889531
 23
0.616287
 33
0.557967
 62
0
  0
3DFACE
  8
Cylinder4
 10
-0.810507
 20
0.589465
 30
0.557973
 11
-0.889531
 21
0.616287
 31
0.557967
 12
-0.827767
 22
0.547797
 32
0.472179
 13
-0.827767
 23
0.547797
 33
0.472179
 62
0
  0
3DFACE
  8
Cylinder4
 10
-0.810507
 20
0.589465
 30
0.557973
 11
-0.827767
 21
0.547797
 31
0.472179
 12
-0.735651
 22
0.552546
 32
0.557963
 13
-0.735651
 23
0.552546
 33
0.557963
 62
0
  0
3DFACE
  8
Cylinder4
 10
-0.666262
 20
0.506187
 30
0.557975
 11
-0.735651
 21
0.552546
 31
0.557963
 12
-0.693718
 22
0.470405
 32
0.472179
 13
-0.693718
 23
0.470405
 33
0.472179
 62
0
  0
3DFACE
  8
Cylinder4
 10
-0.666262
 20
0.506187
 30
0.557975
 11
-0.693718
 21
0.470405
 31
0.472179
 12
-0.603511
 22
0.451146
 32
0.557958
 13
-0.603511
 23
0.451146
 33
0.557958
 62
0
  0
3DFACE
  8
Cylinder4
 10
-0.548487
 20
0.388410
 30
0.557970
 11
-0.603511
 21
0.451146
 31
0.557958
 12
-0.584266
 22
0.360956
 32
0.472182
 13
-0.584266
 23
0.360956
 33
0.472182
 62
0
  0
3DFACE
  8
Cylinder4
 10
-0.548487
 20
0.388410
 30
0.557970
 11
-0.584266
 21
0.360956
 31
0.472182
 12
-0.502121
 22
0.319004
 32
0.557952
 13
-0.502121
 23
0.319004
 33
0.557952
 62
0
  0
3DFACE
  8
Cylinder4
 10
-0.465209
 20
0.244165
 30
0.557965
 11
-0.502121
 21
0.319004
 31
0.557952
 12
-0.506871
 22
0.226908
 32
0.472183
 13
-0.506871
 23
0.226908
 33
0.472183
 62
0
  0
3DFACE
  8
Cylinder4
 10
-0.465209
 20
0.244165
 30
0.557965
 11
-0.506871
 21
0.226908
 31
0.472183
 12
-0.438386
 22
0.165125
 32
0.557948
 13
-0.438386
 23
0.165125
 33
0.557948
 62
0
  0
3DFACE
  8
Cylinder4
 10
-0.422102
 20
0.083282
 30
0.557961
 11
-0.438386
 21
0.165125
 31
0.557948
 12
-0.466809
 22
0.077396
 32
0.472183
 13
-0.466809
 23
0.077396
 33
0.472183
 62
0
  0
3DFACE
  8
Cylinder4
 10
-0.422102
 20
0.083282
 30
0.557961
 11
-0.466809
 21
0.077396
 31
0.472183
 12
-0.416651
 22
-0.000010
 32
0.557941
 13
-0.416651
 23
-0.000010
 33
0.557941
 62
0
  0
3DFACE
  8
Cylinder4
 10
-0.422105
 20
-0.083275
 30
0.557954
 11
-0.416651
 21
-0.000010
 31
0.557941
 12
-0.466807
 22
-0.077390
 32
0.472185
 13
-0.466807
 23
-0.077390
 33
0.472185
 62
0
  0
3DFACE
  8
Cylinder4
 10
-0.465216
 20
-0.244157
 30
0.557948
 11
-0.438399
 21
-0.165142
 31
0.557931
 12
-0.506871
 22
-0.226903
 32
0.472181
 13
-0.506871
 23
-0.226903
 33
0.472181
 62
0
  0
3DFACE
  8
Cylinder4
 10
-0.422105
 20
-0.083275
 30
0.557954
 11
-0.466807
 21
-0.077390
 31
0.472185
 12
-0.438399
 22
-0.165142
 32
0.557931
 13
-0.438399
 23
-0.165142
 33
0.557931
 62
0
  0
3DFACE
  8
Cylinder4
 10
-0.465216
 20
-0.244157
 30
0.557948
 11
-0.506871
 21
-0.226903
 31
0.472181
 12
-0.502143
 22
-0.319018
 32
0.557926
 13
-0.502143
 23
-0.319018
 33
0.557926
 62
0
  0
3DFACE
  8
Cylinder4
 10
-0.548496
 20
-0.388398
 30
0.557943
 11
-0.584263
 21
-0.360954
 31
0.472183
 12
-0.603540
 22
-0.451153
 32
0.557925
 13
-0.603540
 23
-0.451153
 33
0.557925
 62
0
  0
3DFACE
  8
Cylinder4
 10
-0.666269
 20
-0.506171
 30
0.557942
 11
-0.693713
 21
-0.470405
 31
0.472184
 12
-0.735682
 22
-0.552541
 32
0.557922
 13
-0.735682
 23
-0.552541
 33
0.557922
 62
0
  0
3DFACE
  8
Cylinder4
 10
-0.810511
 20
-0.589450
 30
0.557941
 11
-0.827764
 21
-0.547799
 31
0.472182
 12
-0.889557
 22
-0.616276
 32
0.557925
 13
-0.889557
 23
-0.616276
 33
0.557925
 62
0
  0
3DFACE
  8
Cylinder4
 10
-0.971392
 20
-0.632562
 30
0.557948
 11
-0.977277
 21
-0.587860
 31
0.472178
 12
-1.054688
 22
-0.638013
 32
0.557927
 13
-1.054688
 23
-0.638013
 33
0.557927
 62
0
  0
3DFACE
  8
Cylinder4
 10
-0.977277
 20
-0.587860
 30
0.472178
 11
-1.054682
 21
-0.543379
 31
0.396120
 12
-1.132063
 22
-0.587864
 32
0.472185
 13
-1.054688
 23
-0.638013
 33
0.557927
 62
0
  0
3DFACE
  8
Cylinder4
 10
-1.132063
 20
-0.587864
 30
0.472185
 11
-1.195320
 21
-0.524861
 31
0.396119
 12
-1.281577
 22
-0.547801
 32
0.472182
 13
-1.219816
 23
-0.616271
 33
0.557931
 62
0
  0
3DFACE
  8
Cylinder4
 10
-1.281577
 20
-0.547801
 30
0.472182
 11
-1.326371
 21
-0.470578
 31
0.396122
 12
-1.415626
 22
-0.470407
 32
0.472178
 13
-1.373692
 23
-0.552534
 33
0.557936
 62
0
  0
3DFACE
  8
Cylinder4
 10
-1.687245
 20
-0.083285
 30
0.557968
 11
-1.642533
 21
-0.077398
 31
0.472181
 12
-1.692702
 22
0.000001
 32
0.557964
 13
-1.692702
 23
0.000001
 33
0.557964
 62
0
  0
3DFACE
  8
Cylinder4
 10
-1.415626
 20
-0.470407
 30
0.472178
 11
-1.438906
 21
-0.384226
 31
0.396124
 12
-1.525077
 22
-0.360958
 32
0.472179
 13
-1.505831
 23
-0.451143
 33
0.557948
 62
0
  0
3DFACE
  8
Cylinder4
 10
-1.687243
 20
0.083275
 30
0.557964
 11
-1.692702
 21
0.000001
 31
0.557964
 12
-1.642534
 22
0.077389
 32
0.472182
 13
-1.642534
 23
0.077389
 33
0.472182
 62
0
  0
3DFACE
  8
Cylinder4
 10
-1.525077
 20
-0.360958
 30
0.472179
 11
-1.525259
 21
-0.271687
 31
0.396126
 12
-1.602469
 22
-0.226909
 32
0.472176
 13
-1.607221
 23
-0.319007
 33
0.557949
 62
0
  0
3DFACE
  8
Cylinder4
 10
-1.687243
 20
0.083275
 30
0.557964
 11
-1.642534
 21
0.077389
 31
0.472182
 12
-1.670963
 22
0.165136
 32
0.557969
 13
-1.670963
 23
0.165136
 33
0.557969
 62
0
  0
3DFACE
  8
Cylinder4
 10
-1.602469
 20
-0.226909
 30
0.472176
 11
-1.579540
 21
-0.140633
 31
0.396124
 12
-1.642533
 22
-0.077398
 32
0.472181
 13
-1.670962
 23
-0.165131
 33
0.557961
 62
0
  0
3DFACE
  8
Cylinder4
 10
-1.644136
 20
0.244158
 30
0.557967
 11
-1.670963
 21
0.165136
 31
0.557969
 12
-1.602474
 22
0.226901
 32
0.472185
 13
-1.602474
 23
0.226901
 33
0.472185
 62
0
  0
3DFACE
  8
Cylinder4
 10
-1.644136
 20
0.244158
 30
0.557967
 11
-1.602474
 21
0.226901
 31
0.472185
 12
-1.607225
 22
0.319016
 32
0.557975
 13
-1.607225
 23
0.319016
 33
0.557975
 62
0
  0
3DFACE
  8
Cylinder4
 10
-1.560858
 20
0.388405
 30
0.557971
 11
-1.607225
 21
0.319016
 31
0.557975
 12
-1.525079
 22
0.360950
 32
0.472181
 13
-1.525079
 23
0.360950
 33
0.472181
 62
0
  0
3DFACE
  8
Cylinder4
 10
-1.560858
 20
0.388405
 30
0.557971
 11
-1.525079
 21
0.360950
 31
0.472181
 12
-1.505798
 22
0.451167
 32
0.557970
 13
-1.505798
 23
0.451167
 33
0.557970
 62
0
  0
3DFACE
  8
Cylinder4
 10
-1.443083
 20
0.506178
 30
0.557968
 11
-1.505798
 21
0.451167
 31
0.557970
 12
-1.415631
 22
0.470402
 32
0.472185
 13
-1.415631
 23
0.470402
 33
0.472185
 62
0
  0
3DFACE
  8
Cylinder4
 10
-1.281579
 20
0.547794
 30
0.472180
 11
-1.195296
 21
0.524863
 31
0.396118
 12
-1.132067
 22
0.587859
 32
0.472184
 13
-1.219800
 23
0.616290
 33
0.557968
 62
0
  0
3DFACE
  8
Cylinder4
 10
-1.132067
 20
0.587859
 30
0.472184
 11
-1.054661
 21
0.543377
 31
0.396122
 12
-0.977279
 22
0.587860
 32
0.472185
 13
-1.054667
 23
0.638029
 33
0.557969
 62
0
  0
3DFACE
  8
Cylinder4
 10
-0.977279
 20
0.587860
 30
0.472185
 11
-0.914023
 21
0.524860
 31
0.396123
 12
-0.827767
 22
0.547797
 32
0.472179
 13
-0.889531
 23
0.616287
 33
0.557967
 62
0
  0
3DFACE
  8
Cylinder4
 10
-0.827767
 20
0.547797
 30
0.472179
 11
-0.782973
 21
0.470575
 31
0.396122
 12
-0.693718
 22
0.470405
 32
0.472179
 13
-0.735651
 23
0.552546
 33
0.557963
 62
0
  0
3DFACE
  8
Cylinder4
 10
-0.693718
 20
0.470405
 30
0.472179
 11
-0.670436
 21
0.384219
 31
0.396121
 12
-0.584266
 22
0.360956
 32
0.472182
 13
-0.603511
 23
0.451146
 33
0.557958
 62
0
  0
3DFACE
  8
Cylinder4
 10
-0.584266
 20
0.360956
 30
0.472182
 11
-0.584085
 21
0.271680
 31
0.396120
 12
-0.506871
 22
0.226908
 32
0.472183
 13
-0.502121
 23
0.319004
 33
0.557952
 62
0
  0
3DFACE
  8
Cylinder4
 10
-0.506871
 20
0.226908
 30
0.472183
 11
-0.529805
 21
0.140624
 31
0.396118
 12
-0.466809
 22
0.077396
 32
0.472183
 13
-0.438386
 23
0.165125
 33
0.557948
 62
0
  0
3DFACE
  8
Cylinder4
 10
-0.466809
 20
0.077396
 30
0.472183
 11
-0.511293
 21
-0.000011
 31
0.396118
 12
-0.466807
 22
-0.077390
 32
0.472185
 13
-0.416651
 23
-0.000010
 33
0.557941
 62
0
  0
3DFACE
  8
Cylinder4
 10
-0.466807
 20
-0.077390
 30
0.472185
 11
-0.529811
 21
-0.140649
 31
0.396119
 12
-0.506871
 22
-0.226903
 32
0.472181
 13
-0.438399
 23
-0.165142
 33
0.557931
 62
0
  0
3DFACE
  8
Cylinder4
 10
-0.506871
 20
-0.226903
 30
0.472181
 11
-0.584099
 21
-0.271698
 31
0.396117
 12
-0.584263
 22
-0.360954
 32
0.472183
 13
-0.502143
 23
-0.319018
 33
0.557926
 62
0
  0
3DFACE
  8
Cylinder4
 10
-0.584263
 20
-0.360954
 30
0.472183
 11
-0.670453
 21
-0.384233
 31
0.396118
 12
-0.693713
 22
-0.470405
 32
0.472184
 13
-0.603540
 23
-0.451153
 33
0.557925
 62
0
  0
3DFACE
  8
Cylinder4
 10
-0.693713
 20
-0.470405
 30
0.472184
 11
-0.782995
 21
-0.470583
 31
0.396114
 12
-0.827764
 22
-0.547799
 32
0.472182
 13
-0.735682
 23
-0.552541
 33
0.557922
 62
0
  0
3DFACE
  8
Cylinder4
 10
-0.782995
 20
-0.470583
 30
0.396114
 11
-0.846728
 21
-0.502015
 31
0.396117
 12
-0.827764
 22
-0.547799
 32
0.472182
 13
-0.827764
 23
-0.547799
 33
0.472182
 62
0
  0
3DFACE
  8
Cylinder4
 10
-0.827764
 20
-0.547799
 30
0.472182
 11
-0.914044
 21
-0.524865
 31
0.396118
 12
-0.977277
 22
-0.587860
 32
0.472178
 13
-0.889557
 23
-0.616276
 33
0.557925
 62
0
  0
3DFACE
  8
Cylinder4
 10
-0.846728
 20
-0.502015
 30
0.396117
 11
-0.914044
 21
-0.524865
 31
0.396118
 12
-0.827764
 22
-0.547799
 32
0.472182
 13
-0.827764
 23
-0.547799
 33
0.472182
 62
0
  0
3DFACE
  8
Cylinder4
 10
-0.914044
 20
-0.524865
 30
0.396118
 11
-0.983744
 21
-0.538733
 31
0.396123
 12
-0.977277
 22
-0.587860
 32
0.472178
 13
-0.977277
 23
-0.587860
 33
0.472178
 62
0
  0
3DFACE
  8
Cylinder4
 10
-0.983744
 20
-0.538733
 30
0.396123
 11
-1.054682
 21
-0.543379
 31
0.396120
 12
-0.977277
 22
-0.587860
 32
0.472178
 13
-0.977277
 23
-0.587860
 33
0.472178
 62
0
  0
3DFACE
  8
Cylinder4
 10
-1.054682
 20
-0.543379
 30
0.396120
 11
-1.125594
 21
-0.538727
 31
0.396112
 12
-1.132063
 22
-0.587864
 32
0.472185
 13
-1.132063
 23
-0.587864
 33
0.472185
 62
0
  0
3DFACE
  8
Cylinder4
 10
-1.125594
 20
-0.538727
 30
0.396112
 11
-1.195320
 21
-0.524861
 31
0.396119
 12
-1.132063
 22
-0.587864
 32
0.472185
 13
-1.132063
 23
-0.587864
 33
0.472185
 62
0
  0
3DFACE
  8
Cylinder4
 10
-1.195320
 20
-0.524861
 30
0.396119
 11
-1.262611
 21
-0.502015
 31
0.396113
 12
-1.281577
 22
-0.547801
 32
0.472182
 13
-1.281577
 23
-0.547801
 33
0.472182
 62
0
  0
3DFACE
  8
Cylinder4
 10
-1.262611
 20
-0.502015
 30
0.396113
 11
-1.326371
 21
-0.470578
 31
0.396122
 12
-1.281577
 22
-0.547801
 32
0.472182
 13
-1.281577
 23
-0.547801
 33
0.472182
 62
0
  0
3DFACE
  8
Cylinder4
 10
-1.326371
 20
-0.470578
 30
0.396122
 11
-1.385458
 21
-0.431093
 31
0.396117
 12
-1.415626
 22
-0.470407
 32
0.472178
 13
-1.415626
 23
-0.470407
 33
0.472178
 62
0
  0
3DFACE
  8
Cylinder4
 10
-1.385458
 20
-0.431093
 30
0.396117
 11
-1.438906
 21
-0.384226
 31
0.396124
 12
-1.415626
 22
-0.470407
 32
0.472178
 13
-1.415626
 23
-0.470407
 33
0.472178
 62
0
  0
3DFACE
  8
Cylinder4
 10
-1.438906
 20
-0.384226
 30
0.396124
 11
-1.485756
 21
-0.330788
 31
0.396108
 12
-1.525077
 22
-0.360958
 32
0.472179
 13
-1.525077
 23
-0.360958
 33
0.472179
 62
0
  0
3DFACE
  8
Cylinder4
 10
-1.485756
 20
-0.330788
 30
0.396108
 11
-1.525259
 21
-0.271687
 31
0.396126
 12
-1.525077
 22
-0.360958
 32
0.472179
 13
-1.525077
 23
-0.360958
 33
0.472179
 62
0
  0
3DFACE
  8
Cylinder4
 10
-1.642533
 20
-0.077398
 30
0.472181
 11
-1.598055
 21
0.000005
 31
0.396126
 12
-1.642534
 22
0.077389
 32
0.472182
 13
-1.692702
 23
0.000001
 33
0.557964
 62
0
  0
3DFACE
  8
Cylinder4
 10
-1.525259
 20
-0.271687
 30
0.396126
 11
-1.556680
 21
-0.207944
 31
0.396106
 12
-1.602469
 22
-0.226909
 32
0.472176
 13
-1.602469
 23
-0.226909
 33
0.472176
 62
0
  0
3DFACE
  8
Cylinder4
 10
-1.556680
 20
-0.207944
 30
0.396106
 11
-1.579540
 21
-0.140633
 31
0.396124
 12
-1.602469
 22
-0.226909
 32
0.472176
 13
-1.602469
 23
-0.226909
 33
0.472176
 62
0
  0
3DFACE
  8
Cylinder4
 10
-1.579540
 20
-0.140633
 30
0.396124
 11
-1.593382
 21
-0.070928
 31
0.396090
 12
-1.642533
 22
-0.077398
 32
0.472181
 13
-1.642533
 23
-0.077398
 33
0.472181
 62
0
  0
3DFACE
  8
Cylinder4
 10
-1.642534
 20
0.077389
 30
0.472182
 11
-1.579537
 21
0.140643
 31
0.396126
 12
-1.602474
 22
0.226901
 32
0.472185
 13
-1.670963
 23
0.165136
 33
0.557969
 62
0
  0
3DFACE
  8
Cylinder4
 10
-1.602474
 20
0.226901
 30
0.472185
 11
-1.525249
 21
0.271697
 31
0.396125
 12
-1.525079
 22
0.360950
 32
0.472181
 13
-1.607225
 23
0.319016
 33
0.557975
 62
0
  0
3DFACE
  8
Cylinder4
 10
-1.525079
 20
0.360950
 30
0.472181
 11
-1.438896
 21
0.384230
 31
0.396124
 12
-1.415631
 22
0.470402
 32
0.472185
 13
-1.505798
 23
0.451167
 33
0.557970
 62
0
  0
3DFACE
  8
Cylinder4
 10
-1.281579
 20
0.547794
 30
0.472180
 11
-1.373695
 21
0.552547
 31
0.557973
 12
-1.415631
 22
0.470402
 32
0.472185
 13
-1.326372
 23
0.470571
 33
0.396119
 62
0
  0
3DFACE
  8
Cylinder4
 10
-1.326372
 20
0.470571
 30
0.396119
 11
-1.262602
 21
0.501981
 31
0.396071
 12
-1.281579
 22
0.547794
 32
0.472180
 13
-1.281579
 23
0.547794
 33
0.472180
 62
0
  0
3DFACE
  8
Cylinder4
 10
-1.262602
 20
0.501981
 30
0.396071
 11
-1.195296
 21
0.524863
 31
0.396118
 12
-1.281579
 22
0.547794
 32
0.472180
 13
-1.281579
 23
0.547794
 33
0.472180
 62
0
  0
3DFACE
  8
Cylinder4
 10
-1.195296
 20
0.524863
 30
0.396118
 11
-1.125593
 21
0.538693
 31
0.396071
 12
-1.132067
 22
0.587859
 32
0.472184
 13
-1.132067
 23
0.587859
 33
0.472184
 62
0
  0
3DFACE
  8
Cylinder4
 10
-1.125593
 20
0.538693
 30
0.396071
 11
-1.054661
 21
0.543377
 31
0.396122
 12
-1.132067
 22
0.587859
 32
0.472184
 13
-1.132067
 23
0.587859
 33
0.472184
 62
0
  0
3DFACE
  8
Cylinder4
 10
-1.054661
 20
0.543377
 30
0.396122
 11
-0.983751
 21
0.538696
 31
0.396074
 12
-0.977279
 22
0.587860
 32
0.472185
 13
-0.977279
 23
0.587860
 33
0.472185
 62
0
  0
3DFACE
  8
Cylinder4
 10
-0.983751
 20
0.538696
 30
0.396074
 11
-0.914023
 21
0.524860
 31
0.396123
 12
-0.977279
 22
0.587860
 32
0.472185
 13
-0.977279
 23
0.587860
 33
0.472185
 62
0
  0
3DFACE
  8
Cylinder4
 10
-0.914023
 20
0.524860
 30
0.396123
 11
-0.846739
 21
0.501991
 31
0.396083
 12
-0.827767
 22
0.547797
 32
0.472179
 13
-0.827767
 23
0.547797
 33
0.472179
 62
0
  0
3DFACE
  8
Cylinder4
 10
-0.846739
 20
0.501991
 30
0.396083
 11
-0.782973
 21
0.470575
 31
0.396122
 12
-0.827767
 22
0.547797
 32
0.472179
 13
-0.827767
 23
0.547797
 33
0.472179
 62
0
  0
3DFACE
  8
Cylinder4
 10
-0.782973
 20
0.470575
 30
0.396122
 11
-0.723897
 21
0.431073
 31
0.396087
 12
-0.693718
 22
0.470405
 32
0.472179
 13
-0.693718
 23
0.470405
 33
0.472179
 62
0
  0
3DFACE
  8
Cylinder4
 10
-0.723897
 20
0.431073
 30
0.396087
 11
-0.670436
 21
0.384219
 31
0.396121
 12
-0.693718
 22
0.470405
 32
0.472179
 13
-0.693718
 23
0.470405
 33
0.472179
 62
0
  0
3DFACE
  8
Cylinder4
 10
-0.670436
 20
0.384219
 30
0.396121
 11
-0.623596
 21
0.330775
 31
0.396090
 12
-0.584266
 22
0.360956
 32
0.472182
 13
-0.584266
 23
0.360956
 33
0.472182
 62
0
  0
3DFACE
  8
Cylinder4
 10
-0.623596
 20
0.330775
 30
0.396090
 11
-0.584085
 21
0.271680
 31
0.396120
 12
-0.584266
 22
0.360956
 32
0.472182
 13
-0.584266
 23
0.360956
 33
0.472182
 62
0
  0
3DFACE
  8
Cylinder4
 10
-0.584085
 20
0.271680
 30
0.396120
 11
-0.552669
 21
0.207936
 31
0.396097
 12
-0.506871
 22
0.226908
 32
0.472183
 13
-0.506871
 23
0.226908
 33
0.472183
 62
0
  0
3DFACE
  8
Cylinder4
 10
-0.552669
 20
0.207936
 30
0.396097
 11
-0.529805
 21
0.140624
 31
0.396118
 12
-0.506871
 22
0.226908
 32
0.472183
 13
-0.506871
 23
0.226908
 33
0.472183
 62
0
  0
3DFACE
  8
Cylinder4
 10
-0.529805
 20
0.140624
 30
0.396118
 11
-0.515953
 21
0.070924
 31
0.396102
 12
-0.466809
 22
0.077396
 32
0.472183
 13
-0.466809
 23
0.077396
 33
0.472183
 62
0
  0
3DFACE
  8
Cylinder4
 10
-0.515953
 20
0.070924
 30
0.396102
 11
-0.511293
 21
-0.000011
 31
0.396118
 12
-0.466809
 22
0.077396
 32
0.472183
 13
-0.466809
 23
0.077396
 33
0.472183
 62
0
  0
3DFACE
  8
Cylinder4
 10
-0.511293
 20
-0.000011
 30
0.396118
 11
-0.515950
 21
-0.070922
 31
0.396105
 12
-0.466807
 22
-0.077390
 32
0.472185
 13
-0.466807
 23
-0.077390
 33
0.472185
 62
0
  0
3DFACE
  8
Cylinder4
 10
-0.515950
 20
-0.070922
 30
0.396105
 11
-0.529811
 21
-0.140649
 31
0.396119
 12
-0.466807
 22
-0.077390
 32
0.472185
 13
-0.466807
 23
-0.077390
 33
0.472185
 62
0
  0
3DFACE
  8
Cylinder4
 10
-0.529811
 20
-0.140649
 30
0.396119
 11
-0.552658
 21
-0.207939
 31
0.396112
 12
-0.506871
 22
-0.226903
 32
0.472181
 13
-0.506871
 23
-0.226903
 33
0.472181
 62
0
  0
3DFACE
  8
Cylinder4
 10
-0.552658
 20
-0.207939
 30
0.396112
 11
-0.584099
 21
-0.271698
 31
0.396117
 12
-0.506871
 22
-0.226903
 32
0.472181
 13
-0.506871
 23
-0.226903
 33
0.472181
 62
0
  0
3DFACE
  8
Cylinder4
 10
-0.584099
 20
-0.271698
 30
0.396117
 11
-0.623582
 21
-0.330785
 31
0.396114
 12
-0.584263
 22
-0.360954
 32
0.472183
 13
-0.584263
 23
-0.360954
 33
0.472183
 62
0
  0
3DFACE
  8
Cylinder4
 10
-0.623582
 20
-0.330785
 30
0.396114
 11
-0.670453
 21
-0.384233
 31
0.396118
 12
-0.584263
 22
-0.360954
 32
0.472183
 13
-0.584263
 23
-0.360954
 33
0.472183
 62
0
  0
3DFACE
  8
Cylinder4
 10
-0.670453
 20
-0.384233
 30
0.396118
 11
-0.723884
 21
-0.431087
 31
0.396113
 12
-0.693713
 22
-0.470405
 32
0.472184
 13
-0.693713
 23
-0.470405
 33
0.472184
 62
0
  0
3DFACE
  8
Cylinder4
 10
-0.723884
 20
-0.431087
 30
0.396113
 11
-0.782995
 21
-0.470583
 31
0.396114
 12
-0.693713
 22
-0.470405
 32
0.472184
 13
-0.693713
 23
-0.470405
 33
0.472184
 62
0
  0
3DFACE
  8
Cylinder4
 10
-0.782995
 20
-0.470583
 30
0.396114
 11
-0.861942
 21
-0.465287
 31
0.341176
 12
-0.846728
 22
-0.502015
 32
0.396117
 13
-0.846728
 23
-0.502015
 33
0.396117
 62
0
  0
3DFACE
  8
Cylinder4
 10
-0.914044
 20
-0.524865
 30
0.396118
 11
-0.988935
 21
-0.499312
 31
0.341172
 12
-0.983744
 22
-0.538733
 32
0.396123
 13
-0.983744
 23
-0.538733
 33
0.396123
 62
0
  0
3DFACE
  8
Cylinder4
 10
-1.054682
 20
-0.543379
 30
0.396120
 11
-1.120406
 21
-0.499318
 31
0.341179
 12
-1.125594
 22
-0.538727
 32
0.396112
 13
-1.125594
 23
-0.538727
 33
0.396112
 62
0
  0
3DFACE
  8
Cylinder4
 10
-1.120406
 20
-0.499318
 30
0.341179
 11
-1.195320
 21
-0.524861
 31
0.396119
 12
-1.125594
 22
-0.538727
 32
0.396112
 13
-1.125594
 23
-0.538727
 33
0.396112
 62
0
  0
3DFACE
  8
Cylinder4
 10
-1.195320
 20
-0.524861
 30
0.396119
 11
-1.247400
 21
-0.465291
 31
0.341179
 12
-1.262611
 22
-0.502015
 32
0.396113
 13
-1.262611
 23
-0.502015
 33
0.396113
 62
0
  0
3DFACE
  8
Cylinder4
 10
-1.247400
 20
-0.465291
 30
0.341179
 11
-1.326371
 21
-0.470578
 31
0.396122
 12
-1.262611
 22
-0.502015
 32
0.396113
 13
-1.262611
 23
-0.502015
 33
0.396113
 62
0
  0
3DFACE
  8
Cylinder4
 10
-1.326371
 20
-0.470578
 30
0.396122
 11
-1.361258
 21
-0.399555
 31
0.341178
 12
-1.385458
 22
-0.431093
 32
0.396117
 13
-1.385458
 23
-0.431093
 33
0.396117
 62
0
  0
3DFACE
  8
Cylinder4
 10
-1.361258
 20
-0.399555
 30
0.341178
 11
-1.438906
 21
-0.384226
 31
0.396124
 12
-1.385458
 22
-0.431093
 32
0.396117
 13
-1.385458
 23
-0.431093
 33
0.396117
 62
0
  0
3DFACE
  8
Cylinder4
 10
-1.438906
 20
-0.384226
 30
0.396124
 11
-1.454225
 21
-0.306592
 31
0.341180
 12
-1.485756
 22
-0.330788
 32
0.396108
 13
-1.485756
 23
-0.330788
 33
0.396108
 62
0
  0
3DFACE
  8
Cylinder4
 10
-1.593382
 20
-0.070928
 30
0.396090
 11
-1.598055
 21
0.000005
 31
0.396126
 12
-1.642533
 22
-0.077398
 32
0.472181
 13
-1.642533
 23
-0.077398
 33
0.472181
 62
0
  0
3DFACE
  8
Cylinder4
 10
-1.454225
 20
-0.306592
 30
0.341180
 11
-1.525259
 21
-0.271687
 31
0.396126
 12
-1.485756
 22
-0.330788
 32
0.396108
 13
-1.485756
 23
-0.330788
 33
0.396108
 62
0
  0
3DFACE
  8
Cylinder4
 10
-1.525259
 20
-0.271687
 30
0.396126
 11
-1.519963
 21
-0.192735
 31
0.341182
 12
-1.556680
 22
-0.207944
 32
0.396106
 13
-1.556680
 23
-0.207944
 33
0.396106
 62
0
  0
3DFACE
  8
Cylinder4
 10
-1.598055
 20
0.000005
 30
0.396126
 11
-1.593382
 21
0.070917
 31
0.396089
 12
-1.642534
 22
0.077389
 32
0.472182
 13
-1.642534
 23
0.077389
 33
0.472182
 62
0
  0
3DFACE
  8
Cylinder4
 10
-1.519963
 20
-0.192735
 30
0.341182
 11
-1.579540
 21
-0.140633
 31
0.396124
 12
-1.556680
 22
-0.207944
 32
0.396106
 13
-1.556680
 23
-0.207944
 33
0.396106
 62
0
  0
3DFACE
  8
Cylinder4
 10
-1.579540
 20
-0.140633
 30
0.396124
 11
-1.553994
 21
-0.065742
 31
0.341186
 12
-1.593382
 22
-0.070928
 32
0.396090
 13
-1.593382
 23
-0.070928
 33
0.396090
 62
0
  0
3DFACE
  8
Cylinder4
 10
-1.593382
 20
0.070917
 30
0.396089
 11
-1.579537
 21
0.140643
 31
0.396126
 12
-1.642534
 22
0.077389
 32
0.472182
 13
-1.642534
 23
0.077389
 33
0.472182
 62
0
  0
3DFACE
  8
Cylinder4
 10
-1.579537
 20
0.140643
 30
0.396126
 11
-1.556662
 21
0.207924
 31
0.396077
 12
-1.602474
 22
0.226901
 32
0.472185
 13
-1.602474
 23
0.226901
 33
0.472185
 62
0
  0
3DFACE
  8
Cylinder4
 10
-1.556662
 20
0.207924
 30
0.396077
 11
-1.525249
 21
0.271697
 31
0.396125
 12
-1.602474
 22
0.226901
 32
0.472185
 13
-1.602474
 23
0.226901
 33
0.472185
 62
0
  0
3DFACE
  8
Cylinder4
 10
-1.525249
 20
0.271697
 30
0.396125
 11
-1.485741
 21
0.330765
 31
0.396077
 12
-1.525079
 22
0.360950
 32
0.472181
 13
-1.525079
 23
0.360950
 33
0.472181
 62
0
  0
3DFACE
  8
Cylinder4
 10
-1.485741
 20
0.330765
 30
0.396077
 11
-1.438896
 21
0.384230
 31
0.396124
 12
-1.525079
 22
0.360950
 32
0.472181
 13
-1.525079
 23
0.360950
 33
0.472181
 62
0
  0
3DFACE
  8
Cylinder4
 10
-1.438896
 20
0.384230
 30
0.396124
 11
-1.385442
 21
0.431059
 31
0.396071
 12
-1.415631
 22
0.470402
 32
0.472185
 13
-1.415631
 23
0.470402
 33
0.472185
 62
0
  0
3DFACE
  8
Cylinder4
 10
-1.385442
 20
0.431059
 30
0.396071
 11
-1.326372
 21
0.470571
 31
0.396119
 12
-1.415631
 22
0.470402
 32
0.472185
 13
-1.415631
 23
0.470402
 33
0.472185
 62
0
  0
3DFACE
  8
Cylinder4
 10
-1.326372
 20
0.470571
 30
0.396119
 11
-1.247405
 21
0.465292
 31
0.341187
 12
-1.262602
 22
0.501981
 32
0.396071
 13
-1.262602
 23
0.501981
 33
0.396071
 62
0
  0
3DFACE
  8
Cylinder4
 10
-1.361264
 20
0.399551
 30
0.341183
 11
-1.326372
 21
0.470571
 31
0.396119
 12
-1.385442
 22
0.431059
 32
0.396071
 13
-1.385442
 23
0.431059
 33
0.396071
 62
0
  0
3DFACE
  8
Cylinder4
 10
-1.247405
 20
0.465292
 30
0.341187
 11
-1.195296
 21
0.524863
 31
0.396118
 12
-1.262602
 22
0.501981
 32
0.396071
 13
-1.262602
 23
0.501981
 33
0.396071
 62
0
  0
3DFACE
  8
Cylinder4
 10
-0.670453
 20
-0.384233
 30
0.396118
 11
-0.748083
 21
-0.399551
 31
0.341177
 12
-0.723884
 22
-0.431087
 32
0.396113
 13
-0.723884
 23
-0.431087
 33
0.396113
 62
0
  0
3DFACE
  8
Cylinder4
 10
-1.120410
 20
0.499321
 30
0.341187
 11
-1.054661
 21
0.543377
 31
0.396122
 12
-1.125593
 22
0.538693
 32
0.396071
 13
-1.125593
 23
0.538693
 33
0.396071
 62
0
  0
3DFACE
  8
Cylinder4
 10
-1.195296
 20
0.524863
 30
0.396118
 11
-1.120410
 21
0.499321
 31
0.341187
 12
-1.125593
 22
0.538693
 32
0.396071
 13
-1.125593
 23
0.538693
 33
0.396071
 62
0
  0
3DFACE
  8
Cylinder4
 10
-0.584099
 20
-0.271698
 30
0.396117
 11
-0.655118
 21
-0.306586
 31
0.341178
 12
-0.623582
 22
-0.330785
 32
0.396114
 13
-0.623582
 23
-0.330785
 33
0.396114
 62
0
  0
3DFACE
  8
Cylinder4
 10
-1.054661
 20
0.543377
 30
0.396122
 11
-0.988935
 21
0.499318
 31
0.341183
 12
-0.983751
 22
0.538696
 32
0.396074
 13
-0.983751
 23
0.538696
 33
0.396074
 62
0
  0
3DFACE
  8
Cylinder4
 10
-0.988935
 20
0.499318
 30
0.341183
 11
-0.914023
 21
0.524860
 31
0.396123
 12
-0.983751
 22
0.538696
 32
0.396074
 13
-0.983751
 23
0.538696
 33
0.396074
 62
0
  0
3DFACE
  8
Cylinder4
 10
-0.914023
 20
0.524860
 30
0.396123
 11
-0.861940
 21
0.465292
 31
0.341185
 12
-0.846739
 22
0.501991
 32
0.396083
 13
-0.846739
 23
0.501991
 33
0.396083
 62
0
  0
3DFACE
  8
Cylinder4
 10
-0.861940
 20
0.465292
 30
0.341185
 11
-0.782973
 21
0.470575
 31
0.396122
 12
-0.846739
 22
0.501991
 32
0.396083
 13
-0.846739
 23
0.501991
 33
0.396083
 62
0
  0
3DFACE
  8
Cylinder4
 10
-0.782973
 20
0.470575
 30
0.396122
 11
-0.748080
 21
0.399558
 31
0.341188
 12
-0.723897
 22
0.431073
 32
0.396087
 13
-0.723897
 23
0.431073
 33
0.396087
 62
0
  0
3DFACE
  8
Cylinder4
 10
-0.748080
 20
0.399558
 30
0.341188
 11
-0.670436
 21
0.384219
 31
0.396121
 12
-0.723897
 22
0.431073
 32
0.396087
 13
-0.723897
 23
0.431073
 33
0.396087
 62
0
  0
3DFACE
  8
Cylinder4
 10
-0.670436
 20
0.384219
 30
0.396121
 11
-0.655114
 21
0.306591
 31
0.341186
 12
-0.623596
 22
0.330775
 32
0.396090
 13
-0.623596
 23
0.330775
 33
0.396090
 62
0
  0
3DFACE
  8
Cylinder4
 10
-0.655114
 20
0.306591
 30
0.341186
 11
-0.584085
 21
0.271680
 31
0.396120
 12
-0.623596
 22
0.330775
 32
0.396090
 13
-0.623596
 23
0.330775
 33
0.396090
 62
0
  0
3DFACE
  8
Cylinder4
 10
-0.584085
 20
0.271680
 30
0.396120
 11
-0.589378
 21
0.192731
 31
0.341184
 12
-0.552669
 22
0.207936
 32
0.396097
 13
-0.552669
 23
0.207936
 33
0.396097
 62
0
  0
3DFACE
  8
Cylinder4
 10
-0.589378
 20
0.192731
 30
0.341184
 11
-0.529805
 21
0.140624
 31
0.396118
 12
-0.552669
 22
0.207936
 32
0.396097
 13
-0.552669
 23
0.207936
 33
0.396097
 62
0
  0
3DFACE
  8
Cylinder4
 10
-0.529805
 20
0.140624
 30
0.396118
 11
-0.555350
 21
0.065737
 31
0.341184
 12
-0.515953
 22
0.070924
 32
0.396102
 13
-0.515953
 23
0.070924
 33
0.396102
 62
0
  0
3DFACE
  8
Cylinder4
 10
-0.555350
 20
0.065737
 30
0.341184
 11
-0.511293
 21
-0.000011
 31
0.396118
 12
-0.515953
 22
0.070924
 32
0.396102
 13
-0.515953
 23
0.070924
 33
0.396102
 62
0
  0
3DFACE
  8
Cylinder4
 10
-0.511293
 20
-0.000011
 30
0.396118
 11
-0.555352
 21
-0.065735
 31
0.341181
 12
-0.515950
 22
-0.070922
 32
0.396105
 13
-0.515950
 23
-0.070922
 33
0.396105
 62
0
  0
3DFACE
  8
Cylinder4
 10
-0.529811
 20
-0.140649
 30
0.396119
 11
-0.589380
 21
-0.192728
 31
0.341180
 12
-0.552658
 22
-0.207939
 32
0.396112
 13
-0.552658
 23
-0.207939
 33
0.396112
 62
0
  0
3DFACE
  8
Cylinder4
 10
-0.555352
 20
-0.065735
 30
0.341181
 11
-0.529811
 21
-0.140649
 31
0.396119
 12
-0.515950
 22
-0.070922
 32
0.396105
 13
-0.515950
 23
-0.070922
 33
0.396105
 62
0
  0
3DFACE
  8
Cylinder4
 10
-0.589380
 20
-0.192728
 30
0.341180
 11
-0.584099
 21
-0.271698
 31
0.396117
 12
-0.552658
 22
-0.207939
 32
0.396112
 13
-0.552658
 23
-0.207939
 33
0.396112
 62
0
  0
3DFACE
  8
Cylinder4
 10
-0.655118
 20
-0.306586
 30
0.341178
 11
-0.670453
 21
-0.384233
 31
0.396118
 12
-0.623582
 22
-0.330785
 32
0.396114
 13
-0.623582
 23
-0.330785
 33
0.396114
 62
0
  0
3DFACE
  8
Cylinder4
 10
-0.748083
 20
-0.399551
 30
0.341177
 11
-0.782995
 21
-0.470583
 31
0.396114
 12
-0.723884
 22
-0.431087
 32
0.396113
 13
-0.723884
 23
-0.431087
 33
0.396113
 62
0
  0
3DFACE
  8
Cylinder4
 10
-0.861942
 20
-0.465287
 30
0.341176
 11
-0.914044
 21
-0.524865
 31
0.396118
 12
-0.846728
 22
-0.502015
 32
0.396117
 13
-0.846728
 23
-0.502015
 33
0.396117
 62
0
  0
3DFACE
  8
Cylinder4
 10
-0.988935
 20
-0.499312
 30
0.341172
 11
-1.054682
 21
-0.543379
 31
0.396120
 12
-0.983744
 22
-0.538733
 32
0.396123
 13
-0.983744
 23
-0.538733
 33
0.396123
 62
0
  0
3DFACE
  8
Cylinder4
 10
-1.054663
 20
-0.461688
 30
0.294259
 11
-1.120406
 21
-0.499318
 31
0.341179
 12
-1.054682
 22
-0.543379
 32
0.396120
 13
-0.988935
 23
-0.499312
 33
0.341172
 62
0
  0
3DFACE
  8
Cylinder4
 10
-1.174161
 20
-0.445961
 30
0.294263
 11
-1.247400
 21
-0.465291
 31
0.341179
 12
-1.195320
 22
-0.524861
 32
0.396119
 13
-1.120406
 23
-0.499318
 33
0.341179
 62
0
  0
3DFACE
  8
Cylinder4
 10
-1.285510
 20
-0.399842
 30
0.294264
 11
-1.361258
 21
-0.399555
 31
0.341178
 12
-1.326371
 22
-0.470578
 32
0.396122
 13
-1.247400
 23
-0.465291
 33
0.341179
 62
0
  0
3DFACE
  8
Cylinder4
 10
-1.553994
 20
-0.065742
 30
0.341186
 11
-1.598055
 21
0.000005
 31
0.396126
 12
-1.593382
 22
-0.070928
 32
0.396090
 13
-1.593382
 23
-0.070928
 33
0.396090
 62
0
  0
3DFACE
  8
Cylinder4
 10
-1.381132
 20
-0.326468
 30
0.294262
 11
-1.454225
 21
-0.306592
 31
0.341180
 12
-1.438906
 22
-0.384226
 32
0.396124
 13
-1.361258
 23
-0.399555
 33
0.341178
 62
0
  0
3DFACE
  8
Cylinder4
 10
-1.598055
 20
0.000005
 30
0.396126
 11
-1.553993
 21
0.065732
 31
0.341183
 12
-1.593382
 22
0.070917
 32
0.396089
 13
-1.593382
 23
0.070917
 33
0.396089
 62
0
  0
3DFACE
  8
Cylinder4
 10
-1.454505
 20
-0.230852
 30
0.294263
 11
-1.519963
 21
-0.192735
 31
0.341182
 12
-1.525259
 22
-0.271687
 32
0.396126
 13
-1.454225
 23
-0.306592
 33
0.341180
 62
0
  0
3DFACE
  8
Cylinder4
 10
-1.553993
 20
0.065732
 30
0.341183
 11
-1.579537
 21
0.140643
 31
0.396126
 12
-1.593382
 22
0.070917
 32
0.396089
 13
-1.593382
 23
0.070917
 33
0.396089
 62
0
  0
3DFACE
  8
Cylinder4
 10
-1.500631
 20
-0.119501
 30
0.294264
 11
-1.553994
 21
-0.065742
 31
0.341186
 12
-1.579540
 22
-0.140633
 32
0.396124
 13
-1.519963
 23
-0.192735
 33
0.341182
 62
0
  0
3DFACE
  8
Cylinder4
 10
-1.579537
 20
0.140643
 30
0.396126
 11
-1.519968
 21
0.192726
 31
0.341187
 12
-1.556662
 22
0.207924
 32
0.396077
 13
-1.556662
 23
0.207924
 33
0.396077
 62
0
  0
3DFACE
  8
Cylinder4
 10
-1.519968
 20
0.192726
 30
0.341187
 11
-1.525249
 21
0.271697
 31
0.396125
 12
-1.556662
 22
0.207924
 32
0.396077
 13
-1.556662
 23
0.207924
 33
0.396077
 62
0
  0
3DFACE
  8
Cylinder4
 10
-1.525249
 20
0.271697
 30
0.396125
 11
-1.454230
 21
0.306586
 31
0.341185
 12
-1.485741
 22
0.330765
 32
0.396077
 13
-1.485741
 23
0.330765
 33
0.396077
 62
0
  0
3DFACE
  8
Cylinder4
 10
-1.454230
 20
0.306586
 30
0.341185
 11
-1.438896
 21
0.384230
 31
0.396124
 12
-1.485741
 22
0.330765
 32
0.396077
 13
-1.485741
 23
0.330765
 33
0.396077
 62
0
  0
3DFACE
  8
Cylinder4
 10
-1.438896
 20
0.384230
 30
0.396124
 11
-1.361264
 21
0.399551
 31
0.341183
 12
-1.385442
 22
0.431059
 32
0.396071
 13
-1.385442
 23
0.431059
 33
0.396071
 62
0
  0
3DFACE
  8
Cylinder4
 10
-1.174166
 20
0.445953
 30
0.294260
 11
-1.120410
 21
0.499321
 31
0.341187
 12
-1.195296
 22
0.524863
 32
0.396118
 13
-1.247405
 23
0.465292
 33
0.341187
 62
0
  0
3DFACE
  8
Cylinder4
 10
-1.054674
 20
0.461687
 30
0.294263
 11
-0.988935
 21
0.499318
 31
0.341183
 12
-1.054661
 22
0.543377
 32
0.396122
 13
-1.120410
 23
0.499321
 33
0.341187
 62
0
  0
3DFACE
  8
Cylinder4
 10
-0.935181
 20
0.445957
 30
0.294262
 11
-0.861940
 21
0.465292
 31
0.341185
 12
-0.914023
 22
0.524860
 32
0.396123
 13
-0.988935
 23
0.499318
 33
0.341183
 62
0
  0
3DFACE
  8
Cylinder4
 10
-0.823830
 20
0.399835
 30
0.294263
 11
-0.748080
 21
0.399558
 31
0.341188
 12
-0.782973
 22
0.470575
 32
0.396122
 13
-0.861940
 23
0.465292
 33
0.341185
 62
0
  0
3DFACE
  8
Cylinder4
 10
-0.728209
 20
0.326465
 30
0.294264
 11
-0.655114
 21
0.306591
 31
0.341186
 12
-0.670436
 22
0.384219
 32
0.396121
 13
-0.748080
 23
0.399558
 33
0.341188
 62
0
  0
3DFACE
  8
Cylinder4
 10
-0.654838
 20
0.230848
 30
0.294263
 11
-0.589378
 21
0.192731
 31
0.341184
 12
-0.584085
 22
0.271680
 32
0.396120
 13
-0.655114
 23
0.306591
 33
0.341186
 62
0
  0
3DFACE
  8
Cylinder4
 10
-0.608713
 20
0.119497
 30
0.294264
 11
-0.555350
 21
0.065737
 31
0.341184
 12
-0.529805
 22
0.140624
 32
0.396118
 13
-0.589378
 23
0.192731
 33
0.341184
 62
0
  0
3DFACE
  8
Cylinder4
 10
-0.592981
 20
0.000004
 30
0.294263
 11
-0.555352
 21
-0.065735
 31
0.341181
 12
-0.511293
 22
-0.000011
 32
0.396118
 13
-0.555350
 23
0.065737
 33
0.341184
 62
0
  0
3DFACE
  8
Cylinder4
 10
-0.608714
 20
-0.119491
 30
0.294261
 11
-0.589380
 21
-0.192728
 31
0.341180
 12
-0.529811
 22
-0.140649
 32
0.396119
 13
-0.555352
 23
-0.065735
 33
0.341181
 62
0
  0
3DFACE
  8
Cylinder4
 10
-0.654835
 20
-0.230840
 30
0.294261
 11
-0.655118
 21
-0.306586
 31
0.341178
 12
-0.584099
 22
-0.271698
 32
0.396117
 13
-0.589380
 23
-0.192728
 33
0.341180
 62
0
  0
3DFACE
  8
Cylinder4
 10
-0.728204
 20
-0.326460
 30
0.294262
 11
-0.748083
 21
-0.399551
 31
0.341177
 12
-0.670453
 22
-0.384233
 32
0.396118
 13
-0.655118
 23
-0.306586
 33
0.341178
 62
0
  0
3DFACE
  8
Cylinder4
 10
-0.823822
 20
-0.399831
 30
0.294261
 11
-0.861942
 21
-0.465287
 31
0.341176
 12
-0.782995
 22
-0.470583
 32
0.396114
 13
-0.748083
 23
-0.399551
 33
0.341177
 62
0
  0
3DFACE
  8
Cylinder4
 10
-0.823822
 20
-0.399831
 30
0.294261
 11
-0.877980
 21
-0.426568
 31
0.294287
 12
-0.861942
 22
-0.465287
 32
0.341176
 13
-0.861942
 23
-0.465287
 33
0.341176
 62
0
  0
3DFACE
  8
Cylinder4
 10
-0.935172
 20
-0.445955
 30
0.294260
 11
-0.988935
 21
-0.499312
 31
0.341172
 12
-0.914044
 22
-0.524865
 32
0.396118
 13
-0.861942
 23
-0.465287
 33
0.341176
 62
0
  0
3DFACE
  8
Cylinder4
 10
-0.861942
 20
-0.465287
 30
0.341176
 11
-0.877980
 21
-0.426568
 31
0.294287
 12
-0.950693
 22
-0.388031
 32
0.227166
 13
-0.935172
 23
-0.445955
 33
0.294260
 62
0
  0
3DFACE
  8
Cylinder4
 10
-0.994404
 20
-0.457770
 30
0.294293
 11
-1.054663
 21
-0.461688
 31
0.294259
 12
-0.988935
 22
-0.499312
 32
0.341172
 13
-0.988935
 23
-0.499312
 33
0.341172
 62
0
  0
3DFACE
  8
Cylinder4
 10
-1.054663
 20
-0.461688
 30
0.294259
 11
-1.114935
 21
-0.457765
 31
0.294287
 12
-1.120406
 22
-0.499318
 32
0.341179
 13
-1.120406
 23
-0.499318
 33
0.341179
 62
0
  0
3DFACE
  8
Cylinder4
 10
-1.120406
 20
-0.499318
 30
0.341179
 11
-1.114935
 21
-0.457765
 31
0.294287
 12
-1.158639
 22
-0.388031
 32
0.227163
 13
-1.174161
 23
-0.445961
 33
0.294263
 62
0
  0
3DFACE
  8
Cylinder4
 10
-1.174161
 20
-0.445961
 30
0.294263
 11
-1.158639
 21
-0.388031
 31
0.227163
 12
-1.231360
 22
-0.426570
 32
0.294287
 13
-1.247400
 23
-0.465291
 33
0.341179
 62
0
  0
3DFACE
  8
Cylinder4
 10
-1.231360
 20
-0.426570
 30
0.294287
 11
-1.285510
 21
-0.399842
 31
0.294264
 12
-1.247400
 22
-0.465291
 32
0.341179
 13
-1.247400
 23
-0.465291
 33
0.341179
 62
0
  0
3DFACE
  8
Cylinder4
 10
-1.285510
 20
-0.399842
 30
0.294264
 11
-1.335745
 21
-0.366306
 31
0.294289
 12
-1.361258
 22
-0.399555
 32
0.341178
 13
-1.361258
 23
-0.399555
 33
0.341178
 62
0
  0
3DFACE
  8
Cylinder4
 10
-1.361258
 20
-0.399555
 30
0.341178
 11
-1.335745
 21
-0.366306
 31
0.294289
 12
-1.338725
 22
-0.284061
 32
0.227163
 13
-1.381132
 23
-0.326468
 33
0.294262
 62
0
  0
3DFACE
  8
Cylinder4
 10
-1.381132
 20
-0.326468
 30
0.294262
 11
-1.338725
 21
-0.284061
 31
0.227163
 12
-1.420969
 22
-0.281075
 32
0.294283
 13
-1.454225
 23
-0.306592
 33
0.341180
 62
0
  0
3DFACE
  8
Cylinder4
 10
-1.420969
 20
-0.281075
 30
0.294283
 11
-1.454505
 21
-0.230852
 31
0.294263
 12
-1.454225
 22
-0.306592
 32
0.341180
 13
-1.454225
 23
-0.306592
 33
0.341180
 62
0
  0
3DFACE
  8
Cylinder4
 10
-1.516363
 20
-0.000006
 30
0.294264
 11
-1.553993
 21
0.065732
 31
0.341183
 12
-1.598055
 22
0.000005
 32
0.396126
 13
-1.553994
 23
-0.065742
 33
0.341186
 62
0
  0
3DFACE
  8
Cylinder4
 10
-1.454505
 20
-0.230852
 30
0.294263
 11
-1.481235
 21
-0.176693
 31
0.294283
 12
-1.519963
 22
-0.192735
 32
0.341182
 13
-1.519963
 23
-0.192735
 33
0.341182
 62
0
  0
3DFACE
  8
Cylinder4
 10
-1.519963
 20
-0.192735
 30
0.341182
 11
-1.481235
 21
-0.176693
 31
0.294283
 12
-1.442692
 22
-0.103977
 32
0.227156
 13
-1.500631
 23
-0.119501
 33
0.294264
 62
0
  0
3DFACE
  8
Cylinder4
 10
-1.500631
 20
-0.119501
 30
0.294264
 11
-1.442692
 21
-0.103977
 31
0.227156
 12
-1.512423
 22
-0.060270
 32
0.294275
 13
-1.553994
 23
-0.065742
 33
0.341186
 62
0
  0
3DFACE
  8
Cylinder4
 10
-1.500631
 20
0.119487
 30
0.294262
 11
-1.519968
 21
0.192726
 31
0.341187
 12
-1.579537
 22
0.140643
 32
0.396126
 13
-1.553993
 23
0.065732
 33
0.341183
 62
0
  0
3DFACE
  8
Cylinder4
 10
-1.512423
 20
-0.060270
 30
0.294275
 11
-1.516363
 21
-0.000006
 31
0.294264
 12
-1.553994
 22
-0.065742
 32
0.341186
 13
-1.553994
 23
-0.065742
 33
0.341186
 62
0
  0
3DFACE
  8
Cylinder4
 10
-1.454507
 20
0.230840
 30
0.294261
 11
-1.454230
 21
0.306586
 31
0.341185
 12
-1.525249
 22
0.271697
 32
0.396125
 13
-1.519968
 23
0.192726
 33
0.341187
 62
0
  0
3DFACE
  8
Cylinder4
 10
-1.381139
 20
0.326457
 30
0.294261
 11
-1.361264
 21
0.399551
 31
0.341183
 12
-1.438896
 22
0.384230
 32
0.396124
 13
-1.454230
 23
0.306586
 33
0.341185
 62
0
  0
3DFACE
  8
Cylinder4
 10
-1.361264
 20
0.399551
 30
0.341183
 11
-1.285517
 21
0.399831
 31
0.294261
 12
-1.247405
 22
0.465292
 32
0.341187
 13
-1.326372
 23
0.470571
 33
0.396119
 62
0
  0
3DFACE
  8
Cylinder4
 10
-1.335737
 20
0.366284
 30
0.294269
 11
-1.285517
 21
0.399831
 31
0.294261
 12
-1.361264
 22
0.399551
 32
0.341183
 13
-1.361264
 23
0.399551
 33
0.341183
 62
0
  0
3DFACE
  8
Cylinder4
 10
-1.285517
 20
0.399831
 30
0.294261
 11
-1.231354
 21
0.426542
 31
0.294262
 12
-1.247405
 22
0.465292
 32
0.341187
 13
-1.247405
 23
0.465292
 33
0.341187
 62
0
  0
3DFACE
  8
Cylinder4
 10
-1.247405
 20
0.465292
 30
0.341187
 11
-1.231354
 21
0.426542
 31
0.294262
 12
-1.158638
 22
0.388002
 32
0.227137
 13
-1.174166
 23
0.445953
 33
0.294260
 62
0
  0
3DFACE
  8
Cylinder4
 10
-1.174166
 20
0.445953
 30
0.294260
 11
-1.158638
 21
0.388002
 31
0.227137
 12
-1.114935
 22
0.457738
 32
0.294264
 13
-1.120410
 23
0.499321
 33
0.341187
 62
0
  0
3DFACE
  8
Cylinder4
 10
-0.655118
 20
-0.306586
 30
0.341178
 11
-0.688370
 21
-0.281072
 31
0.294284
 12
-0.770612
 22
-0.284053
 32
0.227162
 13
-0.728204
 23
-0.326460
 33
0.294262
 62
0
  0
3DFACE
  8
Cylinder4
 10
-1.114935
 20
0.457738
 30
0.294264
 11
-1.054674
 21
0.461687
 31
0.294263
 12
-1.120410
 22
0.499321
 32
0.341187
 13
-1.120410
 23
0.499321
 33
0.341187
 62
0
  0
3DFACE
  8
Cylinder4
 10
-1.054674
 20
0.461687
 30
0.294263
 11
-0.994408
 21
0.457747
 31
0.294272
 12
-0.988935
 22
0.499318
 32
0.341183
 13
-0.988935
 23
0.499318
 33
0.341183
 62
0
  0
3DFACE
  8
Cylinder4
 10
-0.988935
 20
0.499318
 30
0.341183
 11
-0.994408
 21
0.457747
 31
0.294272
 12
-0.950706
 22
0.388011
 32
0.227146
 13
-0.935181
 23
0.445957
 33
0.294262
 62
0
  0
3DFACE
  8
Cylinder4
 10
-0.935181
 20
0.445957
 30
0.294262
 11
-0.950706
 21
0.388011
 31
0.227146
 12
-0.877987
 22
0.426551
 32
0.294270
 13
-0.861940
 23
0.465292
 33
0.341185
 62
0
  0
3DFACE
  8
Cylinder4
 10
-0.877987
 20
0.426551
 30
0.294270
 11
-0.823830
 21
0.399835
 31
0.294263
 12
-0.861940
 22
0.465292
 32
0.341185
 13
-0.861940
 23
0.465292
 33
0.341185
 62
0
  0
3DFACE
  8
Cylinder4
 10
-0.823830
 20
0.399835
 30
0.294263
 11
-0.773609
 21
0.366287
 31
0.294269
 12
-0.748080
 22
0.399558
 32
0.341188
 13
-0.748080
 23
0.399558
 33
0.341188
 62
0
  0
3DFACE
  8
Cylinder4
 10
-0.748080
 20
0.399558
 30
0.341188
 11
-0.773609
 21
0.366287
 31
0.294269
 12
-0.770628
 22
0.284045
 32
0.227146
 13
-0.728209
 23
0.326465
 33
0.294264
 62
0
  0
3DFACE
  8
Cylinder4
 10
-0.728209
 20
0.326465
 30
0.294264
 11
-0.770628
 21
0.284045
 31
0.227146
 12
-0.688380
 22
0.281064
 32
0.294273
 13
-0.655114
 23
0.306591
 33
0.341186
 62
0
  0
3DFACE
  8
Cylinder4
 10
-0.688380
 20
0.281064
 30
0.294273
 11
-0.654838
 21
0.230848
 31
0.294263
 12
-0.655114
 22
0.306591
 32
0.341186
 13
-0.655114
 23
0.306591
 33
0.341186
 62
0
  0
3DFACE
  8
Cylinder4
 10
-0.654838
 20
0.230848
 30
0.294263
 11
-0.628115
 21
0.176685
 31
0.294273
 12
-0.589378
 22
0.192731
 32
0.341184
 13
-0.589378
 23
0.192731
 33
0.341184
 62
0
  0
3DFACE
  8
Cylinder4
 10
-0.589378
 20
0.192731
 30
0.341184
 11
-0.628115
 21
0.176685
 31
0.294273
 12
-0.666656
 22
0.103969
 32
0.227149
 13
-0.608713
 23
0.119497
 33
0.294264
 62
0
  0
3DFACE
  8
Cylinder4
 10
-0.608713
 20
0.119497
 30
0.294264
 11
-0.666656
 21
0.103969
 31
0.227149
 12
-0.596917
 22
0.060264
 32
0.294277
 13
-0.555350
 23
0.065737
 33
0.341184
 62
0
  0
3DFACE
  8
Cylinder4
 10
-0.596917
 20
0.060264
 30
0.294277
 11
-0.592981
 21
0.000004
 31
0.294263
 12
-0.555350
 22
0.065737
 32
0.341184
 13
-0.555350
 23
0.065737
 33
0.341184
 62
0
  0
3DFACE
  8
Cylinder4
 10
-0.555352
 20
-0.065735
 30
0.341181
 11
-0.596914
 21
-0.060264
 31
0.294279
 12
-0.666649
 22
-0.103969
 32
0.227156
 13
-0.608714
 23
-0.119491
 33
0.294261
 62
0
  0
3DFACE
  8
Cylinder4
 10
-0.592981
 20
0.000004
 30
0.294263
 11
-0.596914
 21
-0.060264
 31
0.294279
 12
-0.555352
 22
-0.065735
 32
0.341181
 13
-0.555352
 23
-0.065735
 33
0.341181
 62
0
  0
3DFACE
  8
Cylinder4
 10
-0.608714
 20
-0.119491
 30
0.294261
 11
-0.666649
 21
-0.103969
 31
0.227156
 12
-0.628106
 22
-0.176688
 32
0.294283
 13
-0.589380
 23
-0.192728
 33
0.341180
 62
0
  0
3DFACE
  8
Cylinder4
 10
-0.628106
 20
-0.176688
 30
0.294283
 11
-0.654835
 21
-0.230840
 31
0.294261
 12
-0.589380
 22
-0.192728
 32
0.341180
 13
-0.589380
 23
-0.192728
 33
0.341180
 62
0
  0
3DFACE
  8
Cylinder4
 10
-0.654835
 20
-0.230840
 30
0.294261
 11
-0.688370
 21
-0.281072
 31
0.294284
 12
-0.655118
 22
-0.306586
 32
0.341178
 13
-0.655118
 23
-0.306586
 33
0.341178
 62
0
  0
3DFACE
  8
Cylinder4
 10
-0.773598
 20
-0.366300
 30
0.294285
 11
-0.823822
 21
-0.399831
 31
0.294261
 12
-0.748083
 22
-0.399551
 32
0.341177
 13
-0.748083
 23
-0.399551
 33
0.341177
 62
0
  0
3DFACE
  8
Cylinder4
 10
-0.728204
 20
-0.326460
 30
0.294262
 11
-0.770612
 21
-0.284053
 31
0.227162
 12
-0.773598
 22
-0.366300
 32
0.294285
 13
-0.748083
 23
-0.399551
 33
0.341177
 62
0
  0
3DFACE
  8
Cylinder4
 10
-0.944306
 20
-0.191145
 30
0.052402
 11
-0.823822
 21
-0.399831
 31
0.294261
 12
-0.773598
 22
-0.366300
 32
0.294285
 13
-0.770612
 23
-0.284053
 33
0.227162
 62
0
  0
3DFACE
  8
Cylinder4
 10
-0.935172
 20
-0.445955
 30
0.294260
 11
-0.950693
 21
-0.388031
 31
0.227166
 12
-0.994404
 22
-0.457770
 32
0.294293
 13
-0.988935
 23
-0.499312
 33
0.341172
 62
0
  0
3DFACE
  8
Cylinder4
 10
-1.054667
 20
-0.340172
 30
0.172295
 11
-1.054663
 21
-0.461688
 31
0.294259
 12
-0.994404
 22
-0.457770
 32
0.294293
 13
-0.950693
 23
-0.388031
 33
0.227166
 62
0
  0
3DFACE
  8
Cylinder4
 10
-1.158639
 20
-0.388031
 30
0.227163
 11
-1.114935
 21
-0.457765
 31
0.294287
 12
-1.054663
 22
-0.461688
 32
0.294259
 13
-1.054667
 23
-0.340172
 33
0.172295
 62
0
  0
3DFACE
  8
Cylinder4
 10
-1.165032
 20
-0.191141
 30
0.052393
 11
-1.285510
 21
-0.399842
 31
0.294264
 12
-1.231360
 22
-0.426570
 32
0.294287
 13
-1.158639
 23
-0.388031
 33
0.227163
 62
0
  0
3DFACE
  8
Cylinder4
 10
-1.338725
 20
-0.284061
 30
0.227163
 11
-1.335745
 21
-0.366306
 31
0.294289
 12
-1.285510
 22
-0.399842
 32
0.294264
 13
-1.165032
 23
-0.191141
 33
0.052393
 62
0
  0
3DFACE
  8
Cylinder4
 10
-1.516363
 20
-0.000006
 30
0.294264
 11
-1.512427
 21
0.060259
 31
0.294278
 12
-1.553993
 22
0.065732
 32
0.341183
 13
-1.553993
 23
0.065732
 33
0.341183
 62
0
  0
3DFACE
  8
Cylinder4
 10
-1.349298
 20
-0.170102
 30
0.172324
 11
-1.454505
 21
-0.230852
 31
0.294263
 12
-1.420969
 22
-0.281075
 32
0.294283
 13
-1.338725
 23
-0.284061
 33
0.227163
 62
0
  0
3DFACE
  8
Cylinder4
 10
-1.442692
 20
-0.103977
 30
0.227156
 11
-1.481235
 21
-0.176693
 31
0.294283
 12
-1.454505
 22
-0.230852
 32
0.294263
 13
-1.349298
 23
-0.170102
 33
0.172324
 62
0
  0
3DFACE
  8
Cylinder4
 10
-1.553993
 20
0.065732
 30
0.341183
 11
-1.512427
 21
0.060259
 31
0.294278
 12
-1.442691
 22
0.103962
 32
0.227152
 13
-1.500631
 23
0.119487
 33
0.294262
 62
0
  0
3DFACE
  8
Cylinder4
 10
-1.275446
 20
0.000010
 30
0.052442
 11
-1.516363
 21
-0.000006
 31
0.294264
 12
-1.512423
 22
-0.060270
 32
0.294275
 13
-1.442692
 23
-0.103977
 33
0.227156
 62
0
  0
3DFACE
  8
Cylinder4
 10
-1.500631
 20
0.119487
 30
0.294262
 11
-1.442691
 21
0.103962
 31
0.227152
 12
-1.481223
 22
0.176677
 32
0.294267
 13
-1.519968
 23
0.192726
 33
0.341187
 62
0
  0
3DFACE
  8
Cylinder4
 10
-1.481223
 20
0.176677
 30
0.294267
 11
-1.454507
 21
0.230840
 31
0.294261
 12
-1.519968
 22
0.192726
 32
0.341187
 13
-1.519968
 23
0.192726
 33
0.341187
 62
0
  0
3DFACE
  8
Cylinder4
 10
-1.454507
 20
0.230840
 30
0.294261
 11
-1.420963
 21
0.281060
 31
0.294272
 12
-1.454230
 22
0.306586
 32
0.341185
 13
-1.454230
 23
0.306586
 33
0.341185
 62
0
  0
3DFACE
  8
Cylinder4
 10
-1.381139
 20
0.326457
 30
0.294261
 11
-1.338723
 21
0.284041
 31
0.227150
 12
-1.335737
 22
0.366284
 32
0.294269
 13
-1.361264
 23
0.399551
 33
0.341183
 62
0
  0
3DFACE
  8
Cylinder4
 10
-1.454230
 20
0.306586
 30
0.341185
 11
-1.420963
 21
0.281060
 31
0.294272
 12
-1.338723
 22
0.284041
 32
0.227150
 13
-1.381139
 23
0.326457
 33
0.294261
 62
0
  0
3DFACE
  8
Cylinder4
 10
-1.231354
 20
0.426542
 30
0.294262
 11
-1.285517
 21
0.399831
 31
0.294261
 12
-1.165101
 22
0.191275
 32
0.052523
 13
-1.158638
 23
0.388002
 33
0.227137
 62
0
  0
3DFACE
  8
Cylinder4
 10
-1.054674
 20
0.461687
 30
0.294263
 11
-1.114935
 21
0.457738
 31
0.294264
 12
-1.158638
 22
0.388002
 32
0.227137
 13
-1.054675
 23
0.340282
 33
0.172396
 62
0
  0
3DFACE
  8
Cylinder4
 10
-0.950706
 20
0.388011
 30
0.227146
 11
-0.994408
 21
0.457747
 31
0.294272
 12
-1.054674
 22
0.461687
 32
0.294263
 13
-1.054675
 23
0.340282
 33
0.172396
 62
0
  0
3DFACE
  8
Cylinder4
 10
-0.944251
 20
0.191275
 30
0.052521
 11
-0.823830
 21
0.399835
 31
0.294263
 12
-0.877987
 22
0.426551
 32
0.294270
 13
-0.950706
 23
0.388011
 33
0.227146
 62
0
  0
3DFACE
  8
Cylinder4
 10
-0.770628
 20
0.284045
 30
0.227146
 11
-0.773609
 21
0.366287
 31
0.294269
 12
-0.823830
 22
0.399835
 32
0.294263
 13
-0.944251
 23
0.191275
 33
0.052521
 62
0
  0
3DFACE
  8
Cylinder4
 10
-0.760010
 20
0.170133
 30
0.172367
 11
-0.654838
 21
0.230848
 31
0.294263
 12
-0.688380
 22
0.281064
 32
0.294273
 13
-0.770628
 23
0.284045
 33
0.227146
 62
0
  0
3DFACE
  8
Cylinder4
 10
-0.833878
 20
0.000015
 30
0.052467
 11
-0.592981
 21
0.000004
 31
0.294263
 12
-0.596917
 22
0.060264
 32
0.294277
 13
-0.666656
 23
0.103969
 33
0.227149
 62
0
  0
3DFACE
  8
Cylinder4
 10
-0.666656
 20
0.103969
 30
0.227149
 11
-0.628115
 21
0.176685
 31
0.294273
 12
-0.654838
 22
0.230848
 32
0.294263
 13
-0.760010
 23
0.170133
 33
0.172367
 62
0
  0
3DFACE
  8
Cylinder4
 10
-0.760053
 20
-0.170088
 30
0.172313
 11
-0.654835
 21
-0.230840
 31
0.294261
 12
-0.628106
 22
-0.176688
 32
0.294283
 13
-0.666649
 23
-0.103969
 33
0.227156
 62
0
  0
3DFACE
  8
Cylinder4
 10
-0.666649
 20
-0.103969
 30
0.227156
 11
-0.596914
 21
-0.060264
 31
0.294279
 12
-0.592981
 22
0.000004
 32
0.294263
 13
-0.833878
 23
0.000015
 33
0.052467
 62
0
  0
3DFACE
  8
Cylinder4
 10
-0.770612
 20
-0.284053
 30
0.227162
 11
-0.688370
 21
-0.281072
 31
0.294284
 12
-0.654835
 22
-0.230840
 32
0.294261
 13
-0.760053
 23
-0.170088
 33
0.172313
 62
0
  0
3DFACE
  8
Cylinder4
 10
-0.767057
 20
-0.166046
 30
0.165104
 11
-0.944306
 21
-0.191145
 31
0.052402
 12
-0.770612
 22
-0.284053
 32
0.227162
 13
-0.760053
 23
-0.170088
 33
0.172313
 62
0
  0
3DFACE
  8
Cylinder4
 10
-0.950693
 20
-0.388031
 30
0.227166
 11
-0.877980
 21
-0.426568
 31
0.294287
 12
-0.823822
 22
-0.399831
 32
0.294261
 13
-0.944306
 23
-0.191145
 33
0.052402
 62
0
  0
3DFACE
  8
Cylinder4
 10
-1.054667
 20
-0.332111
 30
0.165109
 11
-1.165032
 21
-0.191141
 31
0.052393
 12
-1.158639
 22
-0.388031
 32
0.227163
 13
-1.054667
 23
-0.340172
 33
0.172295
 62
0
  0
3DFACE
  8
Cylinder4
 10
-1.349346
 20
0.170132
 30
0.172376
 11
-1.454507
 21
0.230840
 31
0.294261
 12
-1.481223
 22
0.176677
 32
0.294267
 13
-1.442691
 23
0.103962
 33
0.227152
 62
0
  0
3DFACE
  8
Cylinder4
 10
-1.165032
 20
-0.191141
 30
0.052393
 11
-1.342295
 21
-0.166059
 31
0.165115
 12
-1.349298
 22
-0.170102
 32
0.172324
 13
-1.338725
 23
-0.284061
 33
0.227163
 62
0
  0
3DFACE
  8
Cylinder4
 10
-1.442691
 20
0.103962
 30
0.227152
 11
-1.512427
 21
0.060259
 31
0.294278
 12
-1.516363
 22
-0.000006
 32
0.294264
 13
-1.275446
 23
0.000010
 33
0.052442
 62
0
  0
3DFACE
  8
Cylinder4
 10
-1.342295
 20
-0.166059
 30
0.165115
 11
-1.275446
 21
0.000010
 31
0.052442
 12
-1.442692
 22
-0.103977
 32
0.227156
 13
-1.349298
 23
-0.170102
 33
0.172324
 62
0
  0
3DFACE
  8
Cylinder4
 10
-1.338723
 20
0.284041
 30
0.227150
 11
-1.420963
 21
0.281060
 31
0.294272
 12
-1.454507
 22
0.230840
 32
0.294261
 13
-1.349346
 23
0.170132
 33
0.172376
 62
0
  0
3DFACE
  8
Cylinder4
 10
-1.165101
 20
0.191275
 30
0.052523
 11
-1.054675
 21
0.332104
 31
0.165105
 12
-1.054675
 22
0.340282
 32
0.172396
 13
-1.158638
 23
0.388002
 33
0.227137
 62
0
  0
3DFACE
  8
Cylinder4
 10
-1.165101
 20
0.191275
 30
0.052523
 11
-1.285517
 21
0.399831
 31
0.294261
 12
-1.335737
 22
0.366284
 32
0.294269
 13
-1.338723
 23
0.284041
 33
0.227150
 62
0
  0
3DFACE
  8
Cylinder4
 10
-1.054675
 20
0.332104
 30
0.165105
 11
-0.944251
 21
0.191275
 31
0.052521
 12
-0.950706
 22
0.388011
 32
0.227146
 13
-1.054675
 23
0.340282
 33
0.172396
 62
0
  0
3DFACE
  8
Cylinder4
 10
-0.944251
 20
0.191275
 30
0.052521
 11
-0.767071
 21
0.166057
 31
0.165099
 12
-0.760010
 22
0.170133
 32
0.172367
 13
-0.770628
 23
0.284045
 33
0.227146
 62
0
  0
3DFACE
  8
Cylinder4
 10
-0.767071
 20
0.166057
 30
0.165099
 11
-0.833878
 21
0.000015
 31
0.052467
 12
-0.666656
 22
0.103969
 32
0.227149
 13
-0.760010
 23
0.170133
 33
0.172367
 62
0
  0
3DFACE
  8
Cylinder4
 10
-0.833878
 20
0.000015
 30
0.052467
 11
-0.767057
 21
-0.166046
 31
0.165104
 12
-0.760053
 22
-0.170088
 32
0.172313
 13
-0.666649
 23
-0.103969
 33
0.227156
 62
0
  0
3DFACE
  8
Cylinder4
 10
-0.944306
 20
-0.191145
 30
0.052402
 11
-1.054667
 21
-0.332111
 31
0.165109
 12
-1.054667
 22
-0.340172
 32
0.172295
 13
-0.950693
 23
-0.388031
 33
0.227166
 62
0
  0
3DFACE
  8
Cylinder4
 10
-1.275446
 20
0.000010
 30
0.052442
 11
-1.342292
 21
0.166059
 31
0.165114
 12
-1.349346
 22
0.170132
 32
0.172376
 13
-1.442691
 23
0.103962
 33
0.227152
 62
0
  0
3DFACE
  8
Cylinder4
 10
-1.342292
 20
0.166059
 30
0.165114
 11
-1.165101
 21
0.191275
 31
0.052523
 12
-1.338723
 22
0.284041
 32
0.227150
 13
-1.349346
 23
0.170132
 33
0.172376
 62
0
  0
3DFACE
  8
Cylinder4
 10
-1.342295
 20
-0.166059
 30
0.165115
 11
-1.165032
 21
-0.191141
 31
0.052393
 12
-1.112220
 22
-0.027588
 32
-0.049527
 13
-1.275446
 23
0.000010
 33
0.052442
 62
0
  0
3DFACE
  8
Cylinder4
 10
-1.054675
 20
0.332104
 30
0.165105
 11
-1.165101
 21
0.191275
 31
0.052523
 12
-1.049778
 22
0.063620
 32
-0.049530
 13
-0.944251
 23
0.191275
 33
0.052521
 62
0
  0
3DFACE
  8
Cylinder4
 10
-1.165032
 20
-0.191141
 30
0.052393
 11
-1.054667
 21
-0.332111
 31
0.165109
 12
-0.944306
 22
-0.191145
 32
0.052402
 13
-1.049784
 23
-0.063637
 33
-0.049525
 62
0
  0
3DFACE
  8
Cylinder4
 10
-1.054679
 20
-0.000013
 30
-0.083386
 11
-1.165032
 21
-0.191141
 31
0.052393
 12
-1.049784
 22
-0.063637
 32
-0.049525
 13
-1.050960
 23
-0.006451
 33
-0.080838
 62
0
  0
3DFACE
  8
Cylinder4
 10
-1.165032
 20
-0.191141
 30
0.052393
 11
-1.054679
 21
-0.000013
 31
-0.083386
 12
-1.062110
 22
-0.000011
 32
-0.080840
 13
-1.112220
 23
-0.027588
 33
-0.049527
 62
0
  0
3DFACE
  8
Cylinder4
 10
-1.165101
 20
0.191275
 30
0.052523
 11
-1.054679
 21
-0.000013
 31
-0.083386
 12
-1.050941
 22
0.006462
 32
-0.080825
 13
-1.049778
 23
0.063620
 33
-0.049530
 62
0
  0
3DFACE
  8
Cylinder4
 10
-1.054679
 20
-0.000013
 30
-0.083386
 11
-0.833878
 21
0.000015
 31
0.052467
 12
-1.002020
 22
0.036048
 32
-0.049530
 13
-1.050941
 23
0.006462
 33
-0.080825
 62
0
  0
3DFACE
  8
Cylinder4
 10
-0.833878
 20
0.000015
 30
0.052467
 11
-0.767071
 21
0.166057
 31
0.165099
 12
-0.944251
 22
0.191275
 32
0.052521
 13
-1.002020
 23
0.036048
 33
-0.049530
 62
0
  0
3DFACE
  8
Cylinder4
 10
-0.833878
 20
0.000015
 30
0.052467
 11
-1.054679
 21
-0.000013
 31
-0.083386
 12
-1.050960
 22
-0.006451
 32
-0.080838
 13
-1.002010
 23
-0.036052
 33
-0.049526
 62
0
  0
3DFACE
  8
Cylinder4
 10
-0.944251
 20
0.191275
 30
0.052521
 11
-1.049778
 21
0.063620
 31
-0.049530
 12
-1.050941
 22
0.006462
 32
-0.080825
 13
-1.002020
 23
0.036048
 33
-0.049530
 62
0
  0
3DFACE
  8
Cylinder4
 10
-0.767057
 20
-0.166046
 30
0.165104
 11
-0.833878
 21
0.000015
 31
0.052467
 12
-1.002010
 22
-0.036052
 32
-0.049526
 13
-0.944306
 23
-0.191145
 33
0.052402
 62
0
  0
3DFACE
  8
Cylinder4
 10
-1.165101
 20
0.191275
 30
0.052523
 11
-1.342292
 21
0.166059
 31
0.165114
 12
-1.275446
 22
0.000010
 32
0.052442
 13
-1.112221
 23
0.027579
 33
-0.049527
 62
0
  0
3DFACE
  8
Cylinder4
 10
-1.050960
 20
-0.006451
 30
-0.080838
 11
-1.049784
 21
-0.063637
 31
-0.049525
 12
-0.944306
 22
-0.191145
 32
0.052402
 13
-1.002010
 23
-0.036052
 33
-0.049526
 62
0
  0
3DFACE
  8
Cylinder4
 10
-1.054679
 20
-0.000013
 30
-0.083386
 11
-1.165101
 21
0.191275
 31
0.052523
 12
-1.112221
 22
0.027579
 32
-0.049527
 13
-1.062110
 23
-0.000011
 33
-0.080840
 62
0
  0
3DFACE
  8
Cylinder4
 10
-1.474973
 20
0.547737
 30
0.669455
 11
-1.318884
 21
0.637855
 31
0.669455
 12
-1.318884
 22
0.637855
 32
0.686345
 13
-1.474973
 23
0.547737
 33
0.686345
 62
0
  0
3DFACE
  8
Cylinder4
 10
-1.275446
 20
0.000010
 30
0.052442
 11
-1.112220
 21
-0.027588
 31
-0.049527
 12
-1.062110
 22
-0.000011
 32
-0.080840
 13
-1.112221
 23
0.027579
 33
-0.049527
 62
0
  0
3DFACE
  8
Cylinder4
 10
-1.054743
 20
0.640999
 30
0.746226
 11
-1.144791
 21
0.684504
 31
0.686345
 12
-0.964556
 22
0.684506
 32
0.686344
 13
-0.964556
 23
0.684506
 33
0.686344
 62
0
  0
3DFACE
  8
Cylinder4
 10
-0.888835
 20
0.619175
 30
0.746226
 11
-0.964556
 21
0.684506
 31
0.686344
 12
-0.790463
 22
0.637859
 32
0.686344
 13
-0.790463
 23
0.637859
 33
0.686344
 62
0
  0
3DFACE
  8
Cylinder4
 10
-0.734231
 20
0.555158
 30
0.746224
 11
-0.790463
 21
0.637859
 31
0.686344
 12
-0.634376
 22
0.547744
 32
0.686343
 13
-0.634376
 23
0.547744
 33
0.686343
 62
0
  0
3DFACE
  8
Cylinder4
 10
-0.601464
 20
0.453304
 30
0.746226
 11
-0.634376
 21
0.547744
 31
0.686343
 12
-0.506929
 22
0.420300
 32
0.686342
 13
-0.506929
 23
0.420300
 33
0.686342
 62
0
  0
3DFACE
  8
Cylinder4
 10
-0.499583
 20
0.320559
 30
0.746227
 11
-0.506929
 21
0.420300
 31
0.686342
 12
-0.416812
 22
0.264213
 32
0.686342
 13
-0.416812
 23
0.264213
 33
0.686342
 62
0
  0
3DFACE
  8
Cylinder4
 10
-0.435532
 20
0.165966
 30
0.746230
 11
-0.416812
 21
0.264213
 31
0.686342
 12
-0.370162
 22
0.090121
 32
0.686342
 13
-0.370162
 23
0.090121
 33
0.686342
 62
0
  0
3DFACE
  8
Cylinder4
 10
-0.790460
 20
-0.637859
 30
0.669463
 11
-0.964553
 21
-0.684508
 31
0.669462
 12
-0.964553
 22
-0.684508
 32
0.686344
 13
-0.790460
 23
-0.637859
 33
0.686344
 62
0
  0
3DFACE
  8
Cylinder4
 10
-0.964553
 20
-0.684508
 30
0.669462
 11
-1.144787
 21
-0.684509
 31
0.669463
 12
-1.144787
 22
-0.684509
 32
0.686344
 13
-0.964553
 23
-0.684508
 33
0.686344
 62
0
  0
3DFACE
  8
Cylinder4
 10
-1.144787
 20
-0.684509
 30
0.669463
 11
-1.318882
 21
-0.637862
 31
0.669462
 12
-1.318882
 22
-0.637862
 32
0.686343
 13
-1.144787
 23
-0.684509
 33
0.686344
 62
0
  0
3DFACE
  8
Cylinder4
 10
-1.318882
 20
-0.637862
 30
0.669462
 11
-1.474971
 21
-0.547745
 31
0.669461
 12
-1.474971
 22
-0.547745
 32
0.686343
 13
-1.318882
 23
-0.637862
 33
0.686343
 62
0
  0
3DFACE
  8
Cylinder4
 10
-1.474971
 20
-0.547745
 30
0.669461
 11
-1.602415
 21
-0.420301
 31
0.669460
 12
-1.602415
 22
-0.420301
 32
0.686342
 13
-1.474971
 23
-0.547745
 33
0.686343
 62
0
  0
3DFACE
  8
Cylinder4
 10
-1.602415
 20
-0.420301
 30
0.669460
 11
-1.692533
 21
-0.264214
 31
0.669459
 12
-1.692533
 22
-0.264214
 32
0.686342
 13
-1.602415
 23
-0.420301
 33
0.686342
 62
0
  0
3DFACE
  8
Cylinder4
 10
-1.692533
 20
-0.264214
 30
0.669459
 11
-1.739181
 21
-0.090122
 31
0.669458
 12
-1.739181
 22
-0.090122
 32
0.686343
 13
-1.692533
 23
-0.264214
 33
0.686342
 62
0
  0
3DFACE
  8
Cylinder4
 10
-1.739181
 20
-0.090122
 30
0.669458
 11
-1.739181
 21
0.090113
 31
0.669457
 12
-1.739181
 22
0.090113
 32
0.686344
 13
-1.739181
 23
-0.090122
 33
0.686343
 62
0
  0
3DFACE
  8
Cylinder4
 10
-1.739181
 20
0.090113
 30
0.669457
 11
-1.692533
 21
0.264205
 31
0.669456
 12
-1.692533
 22
0.264205
 32
0.686344
 13
-1.739181
 23
0.090113
 33
0.686344
 62
0
  0
3DFACE
  8
Cylinder4
 10
-1.692533
 20
0.264205
 30
0.669456
 11
-1.602416
 21
0.420293
 31
0.669455
 12
-1.602416
 22
0.420293
 32
0.686345
 13
-1.692533
 23
0.264205
 33
0.686344
 62
0
  0
3DFACE
  8
Cylinder4
 10
-1.602416
 20
0.420293
 30
0.669455
 11
-1.474973
 21
0.547737
 31
0.669455
 12
-1.474973
 22
0.547737
 32
0.686345
 13
-1.602416
 23
0.420293
 33
0.686345
 62
0
  0
3DFACE
  8
Cylinder4
 10
-1.474973
 20
0.547737
 30
0.686345
 11
-1.318884
 21
0.637855
 31
0.686345
 12
-1.375114
 22
0.555154
 32
0.746227
 13
-1.375114
 23
0.555154
 33
0.746227
 62
0
  0
3DFACE
  8
Cylinder4
 10
-1.220642
 20
0.619139
 30
0.746226
 11
-1.318884
 21
0.637855
 31
0.686345
 12
-1.144791
 22
0.684504
 32
0.686345
 13
-1.144791
 23
0.684504
 33
0.686345
 62
0
  0
3DFACE
  8
Cylinder4
 10
-1.220642
 20
0.619139
 30
0.746226
 11
-1.300008
 21
0.592287
 31
0.746134
 12
-1.318884
 22
0.637855
 32
0.686345
 13
-1.318884
 23
0.637855
 33
0.686345
 62
0
  0
3DFACE
  8
Cylinder4
 10
-1.138354
 20
0.635607
 30
0.746129
 11
-1.220642
 21
0.619139
 31
0.746226
 12
-1.144791
 22
0.684504
 32
0.686345
 13
-1.144791
 23
0.684504
 33
0.686345
 62
0
  0
3DFACE
  8
Cylinder4
 10
-1.054743
 20
0.640999
 30
0.746226
 11
-1.138354
 21
0.635607
 31
0.746129
 12
-1.144791
 22
0.684504
 32
0.686345
 13
-1.144791
 23
0.684504
 33
0.686345
 62
0
  0
3DFACE
  8
Cylinder4
 10
-0.970996
 20
0.635603
 30
0.746134
 11
-1.054743
 21
0.640999
 31
0.746226
 12
-0.964556
 22
0.684506
 32
0.686344
 13
-0.964556
 23
0.684506
 33
0.686344
 62
0
  0
3DFACE
  8
Cylinder4
 10
-0.888835
 20
0.619175
 30
0.746226
 11
-0.970996
 21
0.635603
 31
0.746134
 12
-0.964556
 22
0.684506
 32
0.686344
 13
-0.964556
 23
0.684506
 33
0.686344
 62
0
  0
3DFACE
  8
Cylinder4
 10
-0.809342
 20
0.592287
 30
0.746137
 11
-0.888835
 21
0.619175
 31
0.746226
 12
-0.790463
 22
0.637859
 32
0.686344
 13
-0.790463
 23
0.637859
 33
0.686344
 62
0
  0
3DFACE
  8
Cylinder4
 10
-0.734231
 20
0.555158
 30
0.746224
 11
-0.809342
 21
0.592287
 31
0.746137
 12
-0.790463
 22
0.637859
 32
0.686344
 13
-0.790463
 23
0.637859
 33
0.686344
 62
0
  0
3DFACE
  8
Cylinder4
 10
-0.664412
 20
0.508605
 30
0.746145
 11
-0.734231
 21
0.555158
 31
0.746224
 12
-0.634376
 22
0.547744
 32
0.686343
 13
-0.634376
 23
0.547744
 33
0.686343
 62
0
  0
3DFACE
  8
Cylinder4
 10
-0.601464
 20
0.453304
 30
0.746226
 11
-0.664412
 21
0.508605
 31
0.746145
 12
-0.634376
 22
0.547744
 32
0.686343
 13
-0.634376
 23
0.547744
 33
0.686343
 62
0
  0
3DFACE
  8
Cylinder4
 10
-0.546084
 20
0.390261
 30
0.746160
 11
-0.601464
 21
0.453304
 31
0.746226
 12
-0.506929
 22
0.420300
 32
0.686342
 13
-0.506929
 23
0.420300
 33
0.686342
 62
0
  0
3DFACE
  8
Cylinder4
 10
-0.499583
 20
0.320559
 30
0.746227
 11
-0.546084
 21
0.390261
 31
0.746160
 12
-0.506929
 22
0.420300
 32
0.686342
 13
-0.506929
 23
0.420300
 33
0.686342
 62
0
  0
3DFACE
  8
Cylinder4
 10
-0.413673
 20
0.000067
 30
0.746230
 11
-0.370162
 21
0.090121
 31
0.686342
 12
-0.370162
 22
-0.090113
 32
0.686343
 13
-0.370162
 23
-0.090113
 33
0.686343
 62
0
  0
3DFACE
  8
Cylinder4
 10
-0.462416
 20
0.245328
 30
0.746171
 11
-0.499583
 21
0.320559
 31
0.746227
 12
-0.416812
 22
0.264213
 32
0.686342
 13
-0.416812
 23
0.264213
 33
0.686342
 62
0
  0
3DFACE
  8
Cylinder4
 10
-0.435532
 20
0.165966
 30
0.746230
 11
-0.462416
 21
0.245328
 31
0.746171
 12
-0.416812
 22
0.264213
 32
0.686342
 13
-0.416812
 23
0.264213
 33
0.686342
 62
0
  0
3DFACE
  8
Cylinder4
 10
-0.419111
 20
0.083680
 30
0.746183
 11
-0.435532
 21
0.165966
 31
0.746230
 12
-0.370162
 22
0.090121
 32
0.686342
 13
-0.370162
 23
0.090121
 33
0.686342
 62
0
  0
3DFACE
  8
Cylinder4
 10
-0.413673
 20
0.000067
 30
0.746230
 11
-0.419111
 21
0.083680
 31
0.746183
 12
-0.370162
 22
0.090121
 32
0.686342
 13
-0.370162
 23
0.090121
 33
0.686342
 62
0
  0
3DFACE
  8
Cylinder4
 10
-0.435500
 20
-0.165839
 30
0.746234
 11
-0.370162
 21
-0.090113
 31
0.686343
 12
-0.416809
 22
-0.264206
 32
0.686344
 13
-0.416809
 23
-0.264206
 33
0.686344
 62
0
  0
3DFACE
  8
Cylinder4
 10
-0.499523
 20
-0.320442
 30
0.746236
 11
-0.416809
 21
-0.264206
 31
0.686344
 12
-0.506926
 22
-0.420295
 32
0.686344
 13
-0.506926
 23
-0.420295
 33
0.686344
 62
0
  0
3DFACE
  8
Cylinder4
 10
-0.601375
 20
-0.453205
 30
0.746237
 11
-0.506926
 21
-0.420295
 31
0.686344
 12
-0.634371
 22
-0.547741
 32
0.686344
 13
-0.634371
 23
-0.547741
 33
0.686344
 62
0
  0
3DFACE
  8
Cylinder4
 10
-1.300008
 20
0.592287
 30
0.746134
 11
-1.375114
 21
0.555154
 31
0.746227
 12
-1.318884
 22
0.637855
 32
0.686345
 13
-1.318884
 23
0.637855
 33
0.686345
 62
0
  0
3DFACE
  8
Cylinder4
 10
-0.734118
 20
-0.555083
 30
0.746237
 11
-0.634371
 21
-0.547741
 31
0.686344
 12
-0.790460
 22
-0.637859
 32
0.686344
 13
-0.790460
 23
-0.637859
 33
0.686344
 62
0
  0
3DFACE
  8
Cylinder4
 10
-0.888705
 20
-0.619136
 30
0.746235
 11
-0.790460
 21
-0.637859
 31
0.686344
 12
-0.964553
 22
-0.684508
 32
0.686344
 13
-0.964553
 23
-0.684508
 33
0.686344
 62
0
  0
3DFACE
  8
Cylinder4
 10
-1.054604
 20
-0.640997
 30
0.746232
 11
-0.964553
 21
-0.684508
 31
0.686344
 12
-1.144787
 22
-0.684509
 32
0.686344
 13
-1.144787
 23
-0.684509
 33
0.686344
 62
0
  0
3DFACE
  8
Cylinder4
 10
-1.220508
 20
-0.619173
 30
0.746234
 11
-1.144787
 21
-0.684509
 31
0.686344
 12
-1.318882
 22
-0.637862
 32
0.686343
 13
-1.318882
 23
-0.637862
 33
0.686343
 62
0
  0
3DFACE
  8
Cylinder4
 10
-1.375111
 20
-0.555156
 30
0.746231
 11
-1.318882
 21
-0.637862
 31
0.686343
 12
-1.474971
 22
-0.547745
 32
0.686343
 13
-1.474971
 23
-0.547745
 33
0.686343
 62
0
  0
3DFACE
  8
Cylinder4
 10
-1.507877
 20
-0.453307
 30
0.746228
 11
-1.474971
 21
-0.547745
 31
0.686343
 12
-1.602415
 22
-0.420301
 32
0.686342
 13
-1.602415
 23
-0.420301
 33
0.686342
 62
0
  0
3DFACE
  8
Cylinder4
 10
-1.609758
 20
-0.320563
 30
0.746228
 11
-1.602415
 21
-0.420301
 31
0.686342
 12
-1.692533
 22
-0.264214
 32
0.686342
 13
-1.692533
 23
-0.264214
 33
0.686342
 62
0
  0
3DFACE
  8
Cylinder4
 10
-1.673813
 20
-0.165972
 30
0.746227
 11
-1.692533
 21
-0.264214
 31
0.686342
 12
-1.739181
 22
-0.090122
 32
0.686343
 13
-1.739181
 23
-0.090122
 33
0.686343
 62
0
  0
3DFACE
  8
Cylinder4
 10
-1.695673
 20
-0.000072
 30
0.746228
 11
-1.739181
 21
-0.090122
 31
0.686343
 12
-1.739181
 22
0.090113
 32
0.686344
 13
-1.739181
 23
0.090113
 33
0.686344
 62
0
  0
3DFACE
  8
Cylinder4
 10
-1.673849
 20
0.165833
 30
0.746227
 11
-1.739181
 21
0.090113
 31
0.686344
 12
-1.692533
 22
0.264205
 32
0.686344
 13
-1.692533
 23
0.264205
 33
0.686344
 62
0
  0
3DFACE
  8
Cylinder4
 10
-1.609828
 20
0.320439
 30
0.746227
 11
-1.692533
 21
0.264205
 31
0.686344
 12
-1.602416
 22
0.420293
 32
0.686345
 13
-1.602416
 23
0.420293
 33
0.686345
 62
0
  0
3DFACE
  8
Cylinder4
 10
-1.507983
 20
0.453200
 30
0.746225
 11
-1.602416
 21
0.420293
 31
0.686345
 12
-1.474973
 22
0.547737
 32
0.686345
 13
-1.474973
 23
0.547737
 33
0.686345
 62
0
  0
3DFACE
  8
Cylinder4
 10
-1.132612
 20
0.591986
 30
0.793541
 11
-1.220642
 21
0.619139
 31
0.746226
 12
-1.138354
 22
0.635607
 32
0.746129
 13
-1.138354
 23
0.635607
 33
0.746129
 62
0
  0
3DFACE
  8
Cylinder4
 10
-0.976738
 20
0.591990
 30
0.793537
 11
-1.054743
 21
0.640999
 31
0.746226
 12
-0.970996
 22
0.635603
 32
0.746134
 13
-0.970996
 23
0.635603
 33
0.746134
 62
0
  0
3DFACE
  8
Cylinder4
 10
-0.888835
 20
0.619175
 30
0.746226
 11
-0.976738
 21
0.591990
 31
0.793537
 12
-0.970996
 22
0.635603
 32
0.746134
 13
-0.970996
 23
0.635603
 33
0.746134
 62
0
  0
3DFACE
  8
Cylinder4
 10
-0.826176
 20
0.551648
 30
0.793538
 11
-0.888835
 21
0.619175
 31
0.746226
 12
-0.809342
 22
0.592287
 32
0.746137
 13
-0.809342
 23
0.592287
 33
0.746137
 62
0
  0
3DFACE
  8
Cylinder4
 10
-0.734231
 20
0.555158
 30
0.746224
 11
-0.826176
 21
0.551648
 31
0.793538
 12
-0.809342
 22
0.592287
 32
0.746137
 13
-0.809342
 23
0.592287
 33
0.746137
 62
0
  0
3DFACE
  8
Cylinder4
 10
-0.691185
 20
0.473714
 30
0.793537
 11
-0.734231
 21
0.555158
 31
0.746224
 12
-0.664412
 22
0.508605
 32
0.746145
 13
-0.664412
 23
0.508605
 33
0.746145
 62
0
  0
3DFACE
  8
Cylinder4
 10
-0.601464
 20
0.453304
 30
0.746226
 11
-0.691185
 21
0.473714
 31
0.793537
 12
-0.664412
 22
0.508605
 32
0.746145
 13
-0.664412
 23
0.508605
 33
0.746145
 62
0
  0
3DFACE
  8
Cylinder4
 10
-0.580965
 20
0.363496
 30
0.793537
 11
-0.601464
 21
0.453304
 31
0.746226
 12
-0.546084
 22
0.390261
 32
0.746160
 13
-0.546084
 23
0.390261
 33
0.746160
 62
0
  0
3DFACE
  8
Cylinder4
 10
-0.499583
 20
0.320559
 30
0.746227
 11
-0.580965
 21
0.363496
 31
0.793537
 12
-0.546084
 22
0.390261
 32
0.746160
 13
-0.546084
 23
0.390261
 33
0.746160
 62
0
  0
3DFACE
  8
Cylinder4
 10
-0.503029
 20
0.228506
 30
0.793540
 11
-0.499583
 21
0.320559
 31
0.746227
 12
-0.462416
 22
0.245328
 32
0.746171
 13
-0.462416
 23
0.245328
 33
0.746171
 62
0
  0
3DFACE
  8
Cylinder4
 10
-0.435532
 20
0.165966
 30
0.746230
 11
-0.503029
 21
0.228506
 31
0.793540
 12
-0.462416
 22
0.245328
 32
0.746171
 13
-0.462416
 23
0.245328
 33
0.746171
 62
0
  0
3DFACE
  8
Cylinder4
 10
-0.419121
 20
-0.083664
 30
0.746196
 11
-0.413673
 21
0.000067
 31
0.746230
 12
-0.370162
 22
-0.090113
 32
0.686343
 13
-0.370162
 23
-0.090113
 33
0.686343
 62
0
  0
3DFACE
  8
Cylinder4
 10
-0.462687
 20
0.077944
 30
0.793543
 11
-0.435532
 21
0.165966
 31
0.746230
 12
-0.419111
 22
0.083680
 32
0.746183
 13
-0.419111
 23
0.083680
 33
0.746183
 62
0
  0
3DFACE
  8
Cylinder4
 10
-0.435500
 20
-0.165839
 30
0.746234
 11
-0.419121
 21
-0.083664
 31
0.746196
 12
-0.370162
 22
-0.090113
 32
0.686343
 13
-0.370162
 23
-0.090113
 33
0.686343
 62
0
  0
3DFACE
  8
Cylinder4
 10
-0.413673
 20
0.000067
 30
0.746230
 11
-0.462687
 21
0.077944
 31
0.793543
 12
-0.419111
 22
0.083680
 32
0.746183
 13
-0.419111
 23
0.083680
 33
0.746183
 62
0
  0
3DFACE
  8
Cylinder4
 10
-0.462441
 20
-0.245302
 30
0.746208
 11
-0.435500
 21
-0.165839
 31
0.746234
 12
-0.416809
 22
-0.264206
 32
0.686344
 13
-0.416809
 23
-0.264206
 33
0.686344
 62
0
  0
3DFACE
  8
Cylinder4
 10
-0.499523
 20
-0.320442
 30
0.746236
 11
-0.462441
 21
-0.245302
 31
0.746208
 12
-0.416809
 22
-0.264206
 32
0.686344
 13
-0.416809
 23
-0.264206
 33
0.686344
 62
0
  0
3DFACE
  8
Cylinder4
 10
-0.546120
 20
-0.390218
 30
0.746221
 11
-0.499523
 21
-0.320442
 31
0.746236
 12
-0.506926
 22
-0.420295
 32
0.686344
 13
-0.506926
 23
-0.420295
 33
0.686344
 62
0
  0
3DFACE
  8
Cylinder4
 10
-0.601375
 20
-0.453205
 30
0.746237
 11
-0.546120
 21
-0.390218
 31
0.746221
 12
-0.506926
 22
-0.420295
 32
0.686344
 13
-0.506926
 23
-0.420295
 33
0.686344
 62
0
  0
3DFACE
  8
Cylinder4
 10
-0.664448
 20
-0.508542
 30
0.746227
 11
-0.601375
 21
-0.453205
 31
0.746237
 12
-0.634371
 22
-0.547741
 32
0.686344
 13
-0.634371
 23
-0.547741
 33
0.686344
 62
0
  0
3DFACE
  8
Cylinder4
 10
-1.283173
 20
0.551644
 30
0.793539
 11
-1.375114
 21
0.555154
 31
0.746227
 12
-1.300008
 22
0.592287
 32
0.746134
 13
-1.300008
 23
0.592287
 33
0.746134
 62
0
  0
3DFACE
  8
Cylinder4
 10
-0.734118
 20
-0.555083
 30
0.746237
 11
-0.664448
 21
-0.508542
 31
0.746227
 12
-0.634371
 22
-0.547741
 32
0.686344
 13
-0.634371
 23
-0.547741
 33
0.686344
 62
0
  0
3DFACE
  8
Cylinder4
 10
-0.809368
 20
-0.592211
 30
0.746228
 11
-0.734118
 21
-0.555083
 31
0.746237
 12
-0.790460
 22
-0.637859
 32
0.686344
 13
-0.790460
 23
-0.637859
 33
0.686344
 62
0
  0
3DFACE
  8
Cylinder4
 10
-0.888705
 20
-0.619136
 30
0.746235
 11
-0.809368
 21
-0.592211
 31
0.746228
 12
-0.790460
 22
-0.637859
 32
0.686344
 13
-0.790460
 23
-0.637859
 33
0.686344
 62
0
  0
3DFACE
  8
Cylinder4
 10
-0.971003
 20
-0.635522
 30
0.746227
 11
-0.888705
 21
-0.619136
 31
0.746235
 12
-0.964553
 22
-0.684508
 32
0.686344
 13
-0.964553
 23
-0.684508
 33
0.686344
 62
0
  0
3DFACE
  8
Cylinder4
 10
-1.054604
 20
-0.640997
 30
0.746232
 11
-0.971003
 21
-0.635522
 31
0.746227
 12
-0.964553
 22
-0.684508
 32
0.686344
 13
-0.964553
 23
-0.684508
 33
0.686344
 62
0
  0
3DFACE
  8
Cylinder4
 10
-1.138341
 20
-0.635530
 30
0.746218
 11
-1.054604
 21
-0.640997
 31
0.746232
 12
-1.144787
 22
-0.684509
 32
0.686344
 13
-1.144787
 23
-0.684509
 33
0.686344
 62
0
  0
3DFACE
  8
Cylinder4
 10
-1.220508
 20
-0.619173
 30
0.746234
 11
-1.138341
 21
-0.635530
 31
0.746218
 12
-1.144787
 22
-0.684509
 32
0.686344
 13
-1.144787
 23
-0.684509
 33
0.686344
 62
0
  0
3DFACE
  8
Cylinder4
 10
-1.299982
 20
-0.592224
 30
0.746212
 11
-1.220508
 21
-0.619173
 31
0.746234
 12
-1.318882
 22
-0.637862
 32
0.686343
 13
-1.318882
 23
-0.637862
 33
0.686343
 62
0
  0
3DFACE
  8
Cylinder4
 10
-1.375111
 20
-0.555156
 30
0.746231
 11
-1.299982
 21
-0.592224
 31
0.746212
 12
-1.318882
 22
-0.637862
 32
0.686343
 13
-1.318882
 23
-0.637862
 33
0.686343
 62
0
  0
3DFACE
  8
Cylinder4
 10
-1.444909
 20
-0.508561
 30
0.746202
 11
-1.375111
 21
-0.555156
 31
0.746231
 12
-1.474971
 22
-0.547745
 32
0.686343
 13
-1.474971
 23
-0.547745
 33
0.686343
 62
0
  0
3DFACE
  8
Cylinder4
 10
-1.507877
 20
-0.453307
 30
0.746228
 11
-1.444909
 21
-0.508561
 31
0.746202
 12
-1.474971
 22
-0.547745
 32
0.686343
 13
-1.474971
 23
-0.547745
 33
0.686343
 62
0
  0
3DFACE
  8
Cylinder4
 10
-1.563242
 20
-0.390237
 30
0.746194
 11
-1.507877
 21
-0.453307
 31
0.746228
 12
-1.602415
 22
-0.420301
 32
0.686342
 13
-1.602415
 23
-0.420301
 33
0.686342
 62
0
  0
3DFACE
  8
Cylinder4
 10
-1.609758
 20
-0.320563
 30
0.746228
 11
-1.563242
 21
-0.390237
 31
0.746194
 12
-1.602415
 22
-0.420301
 32
0.686342
 13
-1.602415
 23
-0.420301
 33
0.686342
 62
0
  0
3DFACE
  8
Cylinder4
 10
-1.646922
 20
-0.245317
 30
0.746183
 11
-1.609758
 21
-0.320563
 31
0.746228
 12
-1.692533
 22
-0.264214
 32
0.686342
 13
-1.692533
 23
-0.264214
 33
0.686342
 62
0
  0
3DFACE
  8
Cylinder4
 10
-1.673813
 20
-0.165972
 30
0.746227
 11
-1.646922
 21
-0.245317
 31
0.746183
 12
-1.692533
 22
-0.264214
 32
0.686342
 13
-1.692533
 23
-0.264214
 33
0.686342
 62
0
  0
3DFACE
  8
Cylinder4
 10
-1.690246
 20
-0.083675
 30
0.746170
 11
-1.673813
 21
-0.165972
 31
0.746227
 12
-1.739181
 22
-0.090122
 32
0.686343
 13
-1.739181
 23
-0.090122
 33
0.686343
 62
0
  0
3DFACE
  8
Cylinder4
 10
-1.695673
 20
-0.000072
 30
0.746228
 11
-1.690246
 21
-0.083675
 31
0.746170
 12
-1.739181
 22
-0.090122
 32
0.686343
 13
-1.739181
 23
-0.090122
 33
0.686343
 62
0
  0
3DFACE
  8
Cylinder4
 10
-1.690255
 20
0.083675
 30
0.746160
 11
-1.695673
 21
-0.000072
 31
0.746228
 12
-1.739181
 22
0.090113
 32
0.686344
 13
-1.739181
 23
0.090113
 33
0.686344
 62
0
  0
3DFACE
  8
Cylinder4
 10
-1.673849
 20
0.165833
 30
0.746227
 11
-1.690255
 21
0.083675
 31
0.746160
 12
-1.739181
 22
0.090113
 32
0.686344
 13
-1.739181
 23
0.090113
 33
0.686344
 62
0
  0
3DFACE
  8
Cylinder4
 10
-1.646945
 20
0.245325
 30
0.746155
 11
-1.673849
 21
0.165833
 31
0.746227
 12
-1.692533
 22
0.264205
 32
0.686344
 13
-1.692533
 23
0.264205
 33
0.686344
 62
0
  0
3DFACE
  8
Cylinder4
 10
-1.609828
 20
0.320439
 30
0.746227
 11
-1.646945
 21
0.245325
 31
0.746155
 12
-1.692533
 22
0.264205
 32
0.686344
 13
-1.692533
 23
0.264205
 33
0.686344
 62
0
  0
3DFACE
  8
Cylinder4
 10
-1.563277
 20
0.390264
 30
0.746144
 11
-1.609828
 21
0.320439
 31
0.746227
 12
-1.602416
 22
0.420293
 32
0.686345
 13
-1.602416
 23
0.420293
 33
0.686345
 62
0
  0
3DFACE
  8
Cylinder4
 10
-1.507983
 20
0.453200
 30
0.746225
 11
-1.563277
 21
0.390264
 31
0.746144
 12
-1.602416
 22
0.420293
 32
0.686345
 13
-1.602416
 23
0.420293
 33
0.686345
 62
0
  0
3DFACE
  8
Cylinder4
 10
-1.444945
 20
0.508606
 30
0.746135
 11
-1.507983
 21
0.453200
 31
0.746225
 12
-1.474973
 22
0.547737
 32
0.686345
 13
-1.474973
 23
0.547737
 33
0.686345
 62
0
  0
3DFACE
  8
Cylinder4
 10
-1.375114
 20
0.555154
 30
0.746227
 11
-1.444945
 21
0.508606
 31
0.746135
 12
-1.474973
 22
0.547737
 32
0.686345
 13
-1.474973
 23
0.547737
 33
0.686345
 62
0
  0
3DFACE
  8
Cylinder4
 10
-1.375114
 20
0.555154
 30
0.746227
 11
-1.418164
 21
0.473706
 31
0.793540
 12
-1.444945
 22
0.508606
 32
0.746135
 13
-1.444945
 23
0.508606
 33
0.746135
 62
0
  0
3DFACE
  8
Cylinder4
 10
-1.418164
 20
0.473706
 30
0.793540
 11
-1.507983
 21
0.453200
 31
0.746225
 12
-1.444945
 22
0.508606
 32
0.746135
 13
-1.444945
 23
0.508606
 33
0.746135
 62
0
  0
3DFACE
  8
Cylinder4
 10
-1.528378
 20
0.363486
 30
0.793545
 11
-1.609828
 21
0.320439
 31
0.746227
 12
-1.563277
 22
0.390264
 32
0.746144
 13
-1.563277
 23
0.390264
 33
0.746144
 62
0
  0
3DFACE
  8
Cylinder4
 10
-1.220642
 20
0.619139
 30
0.746226
 11
-1.283173
 21
0.551644
 31
0.793539
 12
-1.300008
 22
0.592287
 32
0.746134
 13
-1.300008
 23
0.592287
 33
0.746134
 62
0
  0
3DFACE
  8
Cylinder4
 10
-1.054743
 20
0.640999
 30
0.746226
 11
-1.132612
 21
0.591986
 31
0.793541
 12
-1.138354
 22
0.635607
 32
0.746129
 13
-1.138354
 23
0.635607
 33
0.746129
 62
0
  0
3DFACE
  8
Cylinder4
 10
-0.976738
 20
0.591990
 30
0.793537
 11
-1.054670
 21
0.548406
 31
0.835611
 12
-1.132612
 22
0.591986
 32
0.793541
 13
-1.054743
 23
0.640999
 33
0.746226
 62
0
  0
3DFACE
  8
Cylinder4
 10
-0.826176
 20
0.551648
 30
0.793538
 11
-0.912731
 21
0.529718
 31
0.835611
 12
-0.976738
 22
0.591990
 32
0.793537
 13
-0.888835
 23
0.619175
 33
0.746226
 62
0
  0
3DFACE
  8
Cylinder4
 10
-0.691185
 20
0.473714
 30
0.793537
 11
-0.780465
 21
0.474929
 31
0.835613
 12
-0.826176
 22
0.551648
 32
0.793538
 13
-0.734231
 23
0.555158
 33
0.746224
 62
0
  0
3DFACE
  8
Cylinder4
 10
-0.580965
 20
0.363496
 30
0.793537
 11
-0.666886
 21
0.387772
 31
0.835616
 12
-0.691185
 22
0.473714
 32
0.793537
 13
-0.601464
 23
0.453304
 33
0.746226
 62
0
  0
3DFACE
  8
Cylinder4
 10
-0.503029
 20
0.228506
 30
0.793540
 11
-0.579737
 21
0.274197
 31
0.835614
 12
-0.580965
 22
0.363496
 32
0.793537
 13
-0.499583
 23
0.320559
 33
0.746227
 62
0
  0
3DFACE
  8
Cylinder4
 10
-0.462685
 20
-0.077928
 30
0.793543
 11
-0.413673
 21
0.000067
 31
0.746230
 12
-0.419121
 22
-0.083664
 32
0.746196
 13
-0.419121
 23
-0.083664
 33
0.746196
 62
0
  0
3DFACE
  8
Cylinder4
 10
-0.462687
 20
0.077944
 30
0.793543
 11
-0.524953
 21
0.141934
 31
0.835614
 12
-0.503029
 22
0.228506
 32
0.793540
 13
-0.435532
 23
0.165966
 33
0.746230
 62
0
  0
3DFACE
  8
Cylinder4
 10
-0.435500
 20
-0.165839
 30
0.746234
 11
-0.462685
 21
-0.077928
 31
0.793543
 12
-0.419121
 22
-0.083664
 32
0.746196
 13
-0.419121
 23
-0.083664
 33
0.746196
 62
0
  0
3DFACE
  8
Cylinder4
 10
-0.503027
 20
-0.228491
 30
0.793545
 11
-0.435500
 21
-0.165839
 31
0.746234
 12
-0.462441
 22
-0.245302
 32
0.746208
 13
-0.462441
 23
-0.245302
 33
0.746208
 62
0
  0
3DFACE
  8
Cylinder4
 10
-0.499523
 20
-0.320442
 30
0.746236
 11
-0.503027
 21
-0.228491
 31
0.793545
 12
-0.462441
 22
-0.245302
 32
0.746208
 13
-0.462441
 23
-0.245302
 33
0.746208
 62
0
  0
3DFACE
  8
Cylinder4
 10
-0.601375
 20
-0.453205
 30
0.746237
 11
-0.580965
 21
-0.363480
 31
0.793549
 12
-0.546120
 22
-0.390218
 32
0.746221
 13
-0.546120
 23
-0.390218
 33
0.746221
 62
0
  0
3DFACE
  8
Cylinder4
 10
-0.580965
 20
-0.363480
 30
0.793549
 11
-0.499523
 21
-0.320442
 31
0.746236
 12
-0.546120
 22
-0.390218
 32
0.746221
 13
-0.546120
 23
-0.390218
 33
0.746221
 62
0
  0
3DFACE
  8
Cylinder4
 10
-0.691184
 20
-0.473700
 30
0.793550
 11
-0.601375
 21
-0.453205
 31
0.746237
 12
-0.664448
 22
-0.508542
 32
0.746227
 13
-0.664448
 23
-0.508542
 33
0.746227
 62
0
  0
3DFACE
  8
Cylinder4
 10
-0.734118
 20
-0.555083
 30
0.746237
 11
-0.691184
 21
-0.473700
 31
0.793550
 12
-0.664448
 22
-0.508542
 32
0.746227
 13
-0.664448
 23
-0.508542
 33
0.746227
 62
0
  0
3DFACE
  8
Cylinder4
 10
-0.888705
 20
-0.619136
 30
0.746235
 11
-0.826175
 21
-0.551635
 31
0.793553
 12
-0.809368
 22
-0.592211
 32
0.746228
 13
-0.809368
 23
-0.592211
 33
0.746228
 62
0
  0
3DFACE
  8
Cylinder4
 10
-0.826175
 20
-0.551635
 30
0.793553
 11
-0.734118
 21
-0.555083
 31
0.746237
 12
-0.809368
 22
-0.592211
 32
0.746228
 13
-0.809368
 23
-0.592211
 33
0.746228
 62
0
  0
3DFACE
  8
Cylinder4
 10
-1.054604
 20
-0.640997
 30
0.746232
 11
-0.976736
 21
-0.591978
 31
0.793552
 12
-0.971003
 22
-0.635522
 32
0.746227
 13
-0.971003
 23
-0.635522
 33
0.746227
 62
0
  0
3DFACE
  8
Cylinder4
 10
-0.976736
 20
-0.591978
 30
0.793552
 11
-0.888705
 21
-0.619136
 31
0.746235
 12
-0.971003
 22
-0.635522
 32
0.746227
 13
-0.971003
 23
-0.635522
 33
0.746227
 62
0
  0
3DFACE
  8
Cylinder4
 10
-1.132608
 20
-0.591976
 30
0.793555
 11
-1.054604
 21
-0.640997
 31
0.746232
 12
-1.138341
 22
-0.635530
 32
0.746218
 13
-1.138341
 23
-0.635530
 33
0.746218
 62
0
  0
3DFACE
  8
Cylinder4
 10
-1.283169
 20
-0.551633
 30
0.793554
 11
-1.220508
 21
-0.619173
 31
0.746234
 12
-1.299982
 22
-0.592224
 32
0.746212
 13
-1.299982
 23
-0.592224
 33
0.746212
 62
0
  0
3DFACE
  8
Cylinder4
 10
-1.220508
 20
-0.619173
 30
0.746234
 11
-1.132608
 21
-0.591976
 31
0.793555
 12
-1.138341
 22
-0.635530
 32
0.746218
 13
-1.138341
 23
-0.635530
 33
0.746218
 62
0
  0
3DFACE
  8
Cylinder4
 10
-1.418157
 20
-0.473697
 30
0.793555
 11
-1.375111
 21
-0.555156
 31
0.746231
 12
-1.444909
 22
-0.508561
 32
0.746202
 13
-1.444909
 23
-0.508561
 33
0.746202
 62
0
  0
3DFACE
  8
Cylinder4
 10
-1.375111
 20
-0.555156
 30
0.746231
 11
-1.283169
 21
-0.551633
 31
0.793554
 12
-1.299982
 22
-0.592224
 32
0.746212
 13
-1.299982
 23
-0.592224
 33
0.746212
 62
0
  0
3DFACE
  8
Cylinder4
 10
-1.528375
 20
-0.363482
 30
0.793552
 11
-1.507877
 21
-0.453307
 31
0.746228
 12
-1.563242
 22
-0.390237
 32
0.746194
 13
-1.563242
 23
-0.390237
 33
0.746194
 62
0
  0
3DFACE
  8
Cylinder4
 10
-1.507877
 20
-0.453307
 30
0.746228
 11
-1.418157
 21
-0.473697
 31
0.793555
 12
-1.444909
 22
-0.508561
 32
0.746202
 13
-1.444909
 23
-0.508561
 33
0.746202
 62
0
  0
3DFACE
  8
Cylinder4
 10
-1.609758
 20
-0.320563
 30
0.746228
 11
-1.528375
 21
-0.363482
 31
0.793552
 12
-1.563242
 22
-0.390237
 32
0.746194
 13
-1.563242
 23
-0.390237
 33
0.746194
 62
0
  0
3DFACE
  8
Cylinder4
 10
-1.606310
 20
-0.228494
 30
0.793552
 11
-1.609758
 21
-0.320563
 31
0.746228
 12
-1.646922
 22
-0.245317
 32
0.746183
 13
-1.646922
 23
-0.245317
 33
0.746183
 62
0
  0
3DFACE
  8
Cylinder4
 10
-1.673813
 20
-0.165972
 30
0.746227
 11
-1.606310
 21
-0.228494
 31
0.793552
 12
-1.646922
 22
-0.245317
 32
0.746183
 13
-1.646922
 23
-0.245317
 33
0.746183
 62
0
  0
3DFACE
  8
Cylinder4
 10
-1.646653
 20
-0.077935
 30
0.793550
 11
-1.673813
 21
-0.165972
 31
0.746227
 12
-1.690246
 22
-0.083675
 32
0.746170
 13
-1.690246
 23
-0.083675
 33
0.746170
 62
0
  0
3DFACE
  8
Cylinder4
 10
-1.646655
 20
0.077936
 30
0.793548
 11
-1.695673
 21
-0.000072
 31
0.746228
 12
-1.690255
 22
0.083675
 32
0.746160
 13
-1.690255
 23
0.083675
 33
0.746160
 62
0
  0
3DFACE
  8
Cylinder4
 10
-1.695673
 20
-0.000072
 30
0.746228
 11
-1.646653
 21
-0.077935
 31
0.793550
 12
-1.690246
 22
-0.083675
 32
0.746170
 13
-1.690246
 23
-0.083675
 33
0.746170
 62
0
  0
3DFACE
  8
Cylinder4
 10
-1.606316
 20
0.228497
 30
0.793544
 11
-1.673849
 21
0.165833
 31
0.746227
 12
-1.646945
 22
0.245325
 32
0.746155
 13
-1.646945
 23
0.245325
 33
0.746155
 62
0
  0
3DFACE
  8
Cylinder4
 10
-1.673849
 20
0.165833
 30
0.746227
 11
-1.646655
 21
0.077936
 31
0.793548
 12
-1.690255
 22
0.083675
 32
0.746160
 13
-1.690255
 23
0.083675
 33
0.746160
 62
0
  0
3DFACE
  8
Cylinder4
 10
-1.609828
 20
0.320439
 30
0.746227
 11
-1.606316
 21
0.228497
 31
0.793544
 12
-1.646945
 22
0.245325
 32
0.746155
 13
-1.646945
 23
0.245325
 33
0.746155
 62
0
  0
3DFACE
  8
Cylinder4
 10
-1.507983
 20
0.453200
 30
0.746225
 11
-1.528378
 21
0.363486
 31
0.793545
 12
-1.563277
 22
0.390264
 32
0.746144
 13
-1.563277
 23
0.390264
 33
0.746144
 62
0
  0
3DFACE
  8
Cylinder4
 10
-1.328878
 20
0.474934
 30
0.835610
 11
-1.418164
 21
0.473706
 31
0.793540
 12
-1.375114
 22
0.555154
 32
0.746227
 13
-1.283173
 23
0.551644
 33
0.793539
 62
0
  0
3DFACE
  8
Cylinder4
 10
-1.132612
 20
0.591986
 30
0.793541
 11
-1.196611
 21
0.529720
 31
0.835610
 12
-1.283173
 22
0.551644
 32
0.793539
 13
-1.220642
 23
0.619139
 33
0.746226
 62
0
  0
3DFACE
  8
Cylinder4
 10
-1.264540
 20
0.506659
 30
0.835612
 11
-1.283173
 21
0.551644
 31
0.793539
 12
-1.196611
 22
0.529720
 32
0.835610
 13
-1.196611
 23
0.529720
 33
0.835610
 62
0
  0
3DFACE
  8
Cylinder4
 10
-1.196611
 20
0.529720
 30
0.835610
 11
-1.132612
 21
0.591986
 31
0.793541
 12
-1.126256
 22
0.543712
 32
0.835613
 13
-1.126256
 23
0.543712
 33
0.835613
 62
0
  0
3DFACE
  8
Cylinder4
 10
-1.126256
 20
0.543712
 30
0.835613
 11
-1.132612
 21
0.591986
 31
0.793541
 12
-1.054670
 22
0.548406
 32
0.835611
 13
-1.054670
 23
0.548406
 33
0.835611
 62
0
  0
3DFACE
  8
Cylinder4
 10
-1.054670
 20
0.548406
 30
0.835611
 11
-0.976738
 21
0.591990
 31
0.793537
 12
-0.983095
 22
0.543710
 32
0.835615
 13
-0.983095
 23
0.543710
 33
0.835615
 62
0
  0
3DFACE
  8
Cylinder4
 10
-0.983095
 20
0.543710
 30
0.835615
 11
-0.976738
 21
0.591990
 31
0.793537
 12
-0.912731
 22
0.529718
 32
0.835611
 13
-0.912731
 23
0.529718
 33
0.835611
 62
0
  0
3DFACE
  8
Cylinder4
 10
-0.912731
 20
0.529718
 30
0.835611
 11
-0.826176
 21
0.551648
 31
0.793538
 12
-0.844813
 22
0.506657
 32
0.835616
 13
-0.844813
 23
0.506657
 33
0.835616
 62
0
  0
3DFACE
  8
Cylinder4
 10
-0.844813
 20
0.506657
 30
0.835616
 11
-0.826176
 21
0.551648
 31
0.793538
 12
-0.780465
 22
0.474929
 32
0.835613
 13
-0.780465
 23
0.474929
 33
0.835613
 62
0
  0
3DFACE
  8
Cylinder4
 10
-0.780465
 20
0.474929
 30
0.835613
 11
-0.691185
 21
0.473714
 31
0.793537
 12
-0.720836
 22
0.435075
 32
0.835620
 13
-0.720836
 23
0.435075
 33
0.835620
 62
0
  0
3DFACE
  8
Cylinder4
 10
-0.720836
 20
0.435075
 30
0.835620
 11
-0.691185
 21
0.473714
 31
0.793537
 12
-0.666886
 22
0.387772
 32
0.835616
 13
-0.666886
 23
0.387772
 33
0.835616
 62
0
  0
3DFACE
  8
Cylinder4
 10
-0.666886
 20
0.387772
 30
0.835616
 11
-0.580965
 21
0.363496
 31
0.793537
 12
-0.619604
 22
0.333848
 32
0.835619
 13
-0.619604
 23
0.333848
 33
0.835619
 62
0
  0
3DFACE
  8
Cylinder4
 10
-0.619604
 20
0.333848
 30
0.835619
 11
-0.580965
 21
0.363496
 31
0.793537
 12
-0.579737
 22
0.274197
 32
0.835614
 13
-0.579737
 23
0.274197
 33
0.835614
 62
0
  0
3DFACE
  8
Cylinder4
 10
-0.579737
 20
0.274197
 30
0.835614
 11
-0.503029
 21
0.228506
 31
0.793540
 12
-0.548022
 22
0.209870
 32
0.835619
 13
-0.548022
 23
0.209870
 33
0.835619
 62
0
  0
3DFACE
  8
Cylinder4
 10
-0.462685
 20
-0.077928
 30
0.793543
 11
-0.506271
 21
-0.000005
 31
0.835617
 12
-0.462687
 22
0.077944
 32
0.793543
 13
-0.413673
 23
0.000067
 33
0.746230
 62
0
  0
3DFACE
  8
Cylinder4
 10
-0.548022
 20
0.209870
 30
0.835619
 11
-0.503029
 21
0.228506
 31
0.793540
 12
-0.524953
 22
0.141934
 32
0.835614
 13
-0.524953
 23
0.141934
 33
0.835614
 62
0
  0
3DFACE
  8
Cylinder4
 10
-0.524953
 20
0.141934
 30
0.835614
 11
-0.462687
 21
0.077944
 31
0.793543
 12
-0.510966
 22
0.071589
 32
0.835617
 13
-0.510966
 23
0.071589
 33
0.835617
 62
0
  0
3DFACE
  8
Cylinder4
 10
-0.503027
 20
-0.228491
 30
0.793545
 11
-0.524959
 21
-0.141941
 31
0.835619
 12
-0.462685
 22
-0.077928
 32
0.793543
 13
-0.435500
 23
-0.165839
 33
0.746234
 62
0
  0
3DFACE
  8
Cylinder4
 10
-0.580965
 20
-0.363480
 30
0.793549
 11
-0.579744
 21
-0.274204
 31
0.835618
 12
-0.503027
 22
-0.228491
 32
0.793545
 13
-0.499523
 23
-0.320442
 33
0.746236
 62
0
  0
3DFACE
  8
Cylinder4
 10
-0.691184
 20
-0.473700
 30
0.793550
 11
-0.666891
 21
-0.387779
 31
0.835616
 12
-0.580965
 22
-0.363480
 32
0.793549
 13
-0.601375
 23
-0.453205
 33
0.746237
 62
0
  0
3DFACE
  8
Cylinder4
 10
-1.328878
 20
0.474934
 30
0.835610
 11
-1.283173
 21
0.551644
 31
0.793539
 12
-1.264540
 22
0.506659
 32
0.835612
 13
-1.264540
 23
0.506659
 33
0.835612
 62
0
  0
3DFACE
  8
Cylinder4
 10
-0.826175
 20
-0.551635
 30
0.793553
 11
-0.780467
 21
-0.474931
 31
0.835615
 12
-0.691184
 22
-0.473700
 32
0.793550
 13
-0.734118
 23
-0.555083
 33
0.746237
 62
0
  0
3DFACE
  8
Cylinder4
 10
-0.976736
 20
-0.591978
 30
0.793552
 11
-0.912723
 21
-0.529720
 31
0.835611
 12
-0.826175
 22
-0.551635
 32
0.793553
 13
-0.888705
 23
-0.619136
 33
0.746235
 62
0
  0
3DFACE
  8
Cylinder4
 10
-1.132608
 20
-0.591976
 30
0.793555
 11
-1.054661
 21
-0.548413
 31
0.835608
 12
-0.976736
 22
-0.591978
 32
0.793552
 13
-1.054604
 23
-0.640997
 33
0.746232
 62
0
  0
3DFACE
  8
Cylinder4
 10
-1.283169
 20
-0.551633
 30
0.793554
 11
-1.196598
 21
-0.529729
 31
0.835609
 12
-1.132608
 22
-0.591976
 32
0.793555
 13
-1.220508
 23
-0.619173
 33
0.746234
 62
0
  0
3DFACE
  8
Cylinder4
 10
-1.418157
 20
-0.473697
 30
0.793555
 11
-1.328868
 21
-0.474948
 31
0.835606
 12
-1.283169
 22
-0.551633
 32
0.793554
 13
-1.375111
 23
-0.555156
 33
0.746231
 62
0
  0
3DFACE
  8
Cylinder4
 10
-1.528375
 20
-0.363482
 30
0.793552
 11
-1.442450
 21
-0.387800
 31
0.835605
 12
-1.418157
 22
-0.473697
 32
0.793555
 13
-1.507877
 23
-0.453307
 33
0.746228
 62
0
  0
3DFACE
  8
Cylinder4
 10
-1.606310
 20
-0.228494
 30
0.793552
 11
-1.529608
 21
-0.274221
 31
0.835604
 12
-1.528375
 22
-0.363482
 32
0.793552
 13
-1.609758
 23
-0.320563
 33
0.746228
 62
0
  0
3DFACE
  8
Cylinder4
 10
-1.646653
 20
-0.077935
 30
0.793550
 11
-1.584400
 21
-0.141955
 31
0.835603
 12
-1.606310
 22
-0.228494
 32
0.793552
 13
-1.673813
 23
-0.165972
 33
0.746227
 62
0
  0
3DFACE
  8
Cylinder4
 10
-1.646655
 20
0.077936
 30
0.793548
 11
-1.603089
 21
-0.000012
 31
0.835605
 12
-1.646653
 22
-0.077935
 32
0.793550
 13
-1.695673
 23
-0.000072
 33
0.746228
 62
0
  0
3DFACE
  8
Cylinder4
 10
-1.606316
 20
0.228497
 30
0.793544
 11
-1.584403
 21
0.141930
 31
0.835605
 12
-1.646655
 22
0.077936
 32
0.793548
 13
-1.673849
 23
0.165833
 33
0.746227
 62
0
  0
3DFACE
  8
Cylinder4
 10
-1.528378
 20
0.363486
 30
0.793545
 11
-1.529617
 21
0.274201
 31
0.835605
 12
-1.606316
 22
0.228497
 32
0.793544
 13
-1.609828
 23
0.320439
 33
0.746227
 62
0
  0
3DFACE
  8
Cylinder4
 10
-1.418164
 20
0.473706
 30
0.793540
 11
-1.442467
 21
0.387777
 31
0.835607
 12
-1.528378
 22
0.363486
 32
0.793545
 13
-1.507983
 23
0.453200
 33
0.746225
 62
0
  0
3DFACE
  8
Cylinder4
 10
-1.196611
 20
0.529720
 30
0.835610
 11
-1.126256
 21
0.543712
 31
0.835613
 12
-1.118458
 22
0.484485
 32
0.882035
 13
-1.118458
 23
0.484485
 33
0.882035
 62
0
  0
3DFACE
  8
Cylinder4
 10
-1.054670
 20
0.548406
 30
0.835611
 11
-0.983095
 21
0.543710
 31
0.835615
 12
-0.990891
 22
0.484486
 32
0.882034
 13
-0.990891
 23
0.484486
 33
0.882034
 62
0
  0
3DFACE
  8
Cylinder4
 10
-0.912731
 20
0.529718
 30
0.835611
 11
-0.844813
 21
0.506657
 31
0.835616
 12
-0.867670
 22
0.451471
 32
0.882033
 13
-0.867670
 23
0.451471
 33
0.882033
 62
0
  0
3DFACE
  8
Cylinder4
 10
-0.867670
 20
0.451471
 30
0.882033
 11
-0.844813
 21
0.506657
 31
0.835616
 12
-0.780465
 22
0.474929
 32
0.835613
 13
-0.780465
 23
0.474929
 33
0.835613
 62
0
  0
3DFACE
  8
Cylinder4
 10
-0.780465
 20
0.474929
 30
0.835613
 11
-0.720836
 21
0.435075
 31
0.835620
 12
-0.757193
 22
0.387691
 32
0.882032
 13
-0.757193
 23
0.387691
 33
0.882032
 62
0
  0
3DFACE
  8
Cylinder4
 10
-0.757193
 20
0.387691
 30
0.882032
 11
-0.720836
 21
0.435075
 31
0.835620
 12
-0.666886
 22
0.387772
 32
0.835616
 13
-0.666886
 23
0.387772
 33
0.835616
 62
0
  0
3DFACE
  8
Cylinder4
 10
-0.666886
 20
0.387772
 30
0.835616
 11
-0.619604
 21
0.333848
 31
0.835619
 12
-0.666990
 22
0.297486
 32
0.882034
 13
-0.666990
 23
0.297486
 33
0.882034
 62
0
  0
3DFACE
  8
Cylinder4
 10
-0.666990
 20
0.297486
 30
0.882034
 11
-0.619604
 21
0.333848
 31
0.835619
 12
-0.579737
 22
0.274197
 32
0.835614
 13
-0.579737
 23
0.274197
 33
0.835614
 62
0
  0
3DFACE
  8
Cylinder4
 10
-0.510966
 20
0.071589
 30
0.835617
 11
-0.462687
 21
0.077944
 31
0.793543
 12
-0.506271
 22
-0.000005
 32
0.835617
 13
-0.506271
 23
-0.000005
 33
0.835617
 62
0
  0
3DFACE
  8
Cylinder4
 10
-0.579737
 20
0.274197
 30
0.835614
 11
-0.548022
 21
0.209870
 31
0.835619
 12
-0.603203
 22
0.187012
 32
0.882033
 13
-0.603203
 23
0.187012
 33
0.882033
 62
0
  0
3DFACE
  8
Cylinder4
 10
-0.603203
 20
0.187012
 30
0.882033
 11
-0.548022
 21
0.209870
 31
0.835619
 12
-0.524953
 22
0.141934
 32
0.835614
 13
-0.524953
 23
0.141934
 33
0.835614
 62
0
  0
3DFACE
  8
Cylinder4
 10
-0.506271
 20
-0.000005
 30
0.835617
 11
-0.462685
 21
-0.077928
 31
0.793543
 12
-0.510970
 22
-0.071571
 32
0.835623
 13
-0.510970
 23
-0.071571
 33
0.835623
 62
0
  0
3DFACE
  8
Cylinder4
 10
-0.524953
 20
0.141934
 30
0.835614
 11
-0.510966
 21
0.071589
 31
0.835617
 12
-0.570189
 22
0.063790
 32
0.882037
 13
-0.570189
 23
0.063790
 33
0.882037
 62
0
  0
3DFACE
  8
Cylinder4
 10
-0.510970
 20
-0.071571
 30
0.835623
 11
-0.462685
 21
-0.077928
 31
0.793543
 12
-0.524959
 22
-0.141941
 32
0.835619
 13
-0.524959
 23
-0.141941
 33
0.835619
 62
0
  0
3DFACE
  8
Cylinder4
 10
-0.524959
 20
-0.141941
 30
0.835619
 11
-0.503027
 21
-0.228491
 31
0.793545
 12
-0.548023
 22
-0.209852
 32
0.835626
 13
-0.548023
 23
-0.209852
 33
0.835626
 62
0
  0
3DFACE
  8
Cylinder4
 10
-0.548023
 20
-0.209852
 30
0.835626
 11
-0.503027
 21
-0.228491
 31
0.793545
 12
-0.579744
 22
-0.274204
 32
0.835618
 13
-0.579744
 23
-0.274204
 33
0.835618
 62
0
  0
3DFACE
  8
Cylinder4
 10
-0.579744
 20
-0.274204
 30
0.835618
 11
-0.580965
 21
-0.363480
 31
0.793549
 12
-0.619597
 22
-0.333837
 32
0.835622
 13
-0.619597
 23
-0.333837
 33
0.835622
 62
0
  0
3DFACE
  8
Cylinder4
 10
-0.619597
 20
-0.333837
 30
0.835622
 11
-0.580965
 21
-0.363480
 31
0.793549
 12
-0.666891
 22
-0.387779
 32
0.835616
 13
-0.666891
 23
-0.387779
 33
0.835616
 62
0
  0
3DFACE
  8
Cylinder4
 10
-0.666891
 20
-0.387779
 30
0.835616
 11
-0.691184
 21
-0.473700
 31
0.793550
 12
-0.720828
 22
-0.435067
 32
0.835623
 13
-0.720828
 23
-0.435067
 33
0.835623
 62
0
  0
3DFACE
  8
Cylinder4
 10
-1.328878
 20
0.474934
 30
0.835610
 11
-1.264540
 21
0.506659
 31
0.835612
 12
-1.241678
 22
0.451466
 32
0.882036
 13
-1.241678
 23
0.451466
 33
0.882036
 62
0
  0
3DFACE
  8
Cylinder4
 10
-0.720828
 20
-0.435067
 30
0.835623
 11
-0.691184
 21
-0.473700
 31
0.793550
 12
-0.780467
 22
-0.474931
 32
0.835615
 13
-0.780467
 23
-0.474931
 33
0.835615
 62
0
  0
3DFACE
  8
Cylinder4
 10
-0.780467
 20
-0.474931
 30
0.835615
 11
-0.826175
 21
-0.551635
 31
0.793553
 12
-0.844806
 22
-0.506656
 32
0.835617
 13
-0.844806
 23
-0.506656
 33
0.835617
 62
0
  0
3DFACE
  8
Cylinder4
 10
-0.844806
 20
-0.506656
 30
0.835617
 11
-0.826175
 21
-0.551635
 31
0.793553
 12
-0.912723
 22
-0.529720
 32
0.835611
 13
-0.912723
 23
-0.529720
 33
0.835611
 62
0
  0
3DFACE
  8
Cylinder4
 10
-0.912723
 20
-0.529720
 30
0.835611
 11
-0.976736
 21
-0.591978
 31
0.793552
 12
-0.983092
 22
-0.543709
 32
0.835618
 13
-0.983092
 23
-0.543709
 33
0.835618
 62
0
  0
3DFACE
  8
Cylinder4
 10
-0.983092
 20
-0.543709
 30
0.835618
 11
-0.976736
 21
-0.591978
 31
0.793552
 12
-1.054661
 22
-0.548413
 32
0.835608
 13
-1.054661
 23
-0.548413
 33
0.835608
 62
0
  0
3DFACE
  8
Cylinder4
 10
-1.054661
 20
-0.548413
 30
0.835608
 11
-1.132608
 21
-0.591976
 31
0.793555
 12
-1.126255
 22
-0.543716
 32
0.835611
 13
-1.126255
 23
-0.543716
 33
0.835611
 62
0
  0
3DFACE
  8
Cylinder4
 10
-1.126255
 20
-0.543716
 30
0.835611
 11
-1.132608
 21
-0.591976
 31
0.793555
 12
-1.196598
 22
-0.529729
 32
0.835609
 13
-1.196598
 23
-0.529729
 33
0.835609
 62
0
  0
3DFACE
  8
Cylinder4
 10
-1.196598
 20
-0.529729
 30
0.835609
 11
-1.283169
 21
-0.551633
 31
0.793554
 12
-1.264543
 22
-0.506664
 32
0.835610
 13
-1.264543
 23
-0.506664
 33
0.835610
 62
0
  0
3DFACE
  8
Cylinder4
 10
-1.264543
 20
-0.506664
 30
0.835610
 11
-1.283169
 21
-0.551633
 31
0.793554
 12
-1.328868
 22
-0.474948
 32
0.835606
 13
-1.328868
 23
-0.474948
 33
0.835606
 62
0
  0
3DFACE
  8
Cylinder4
 10
-1.328868
 20
-0.474948
 30
0.835606
 11
-1.418157
 21
-0.473697
 31
0.793555
 12
-1.388530
 22
-0.435084
 32
0.835606
 13
-1.388530
 23
-0.435084
 33
0.835606
 62
0
  0
3DFACE
  8
Cylinder4
 10
-1.388530
 20
-0.435084
 30
0.835606
 11
-1.418157
 21
-0.473697
 31
0.793555
 12
-1.442450
 22
-0.387800
 32
0.835605
 13
-1.442450
 23
-0.387800
 33
0.835605
 62
0
  0
3DFACE
  8
Cylinder4
 10
-1.442450
 20
-0.387800
 30
0.835605
 11
-1.528375
 21
-0.363482
 31
0.793552
 12
-1.489763
 22
-0.333852
 32
0.835605
 13
-1.489763
 23
-0.333852
 33
0.835605
 62
0
  0
3DFACE
  8
Cylinder4
 10
-1.489763
 20
-0.333852
 30
0.835605
 11
-1.528375
 21
-0.363482
 31
0.793552
 12
-1.529608
 22
-0.274221
 32
0.835604
 13
-1.529608
 23
-0.274221
 33
0.835604
 62
0
  0
3DFACE
  8
Cylinder4
 10
-1.529608
 20
-0.274221
 30
0.835604
 11
-1.606310
 21
-0.228494
 31
0.793552
 12
-1.561350
 22
-0.209869
 32
0.835600
 13
-1.561350
 23
-0.209869
 33
0.835600
 62
0
  0
3DFACE
  8
Cylinder4
 10
-1.561350
 20
-0.209869
 30
0.835600
 11
-1.606310
 21
-0.228494
 31
0.793552
 12
-1.584400
 22
-0.141955
 32
0.835603
 13
-1.584400
 23
-0.141955
 33
0.835603
 62
0
  0
3DFACE
  8
Cylinder4
 10
-1.584400
 20
-0.141955
 30
0.835603
 11
-1.646653
 21
-0.077935
 31
0.793550
 12
-1.598405
 22
-0.071581
 32
0.835599
 13
-1.598405
 23
-0.071581
 33
0.835599
 62
0
  0
3DFACE
  8
Cylinder4
 10
-1.598405
 20
-0.071581
 30
0.835599
 11
-1.646653
 21
-0.077935
 31
0.793550
 12
-1.603089
 22
-0.000012
 32
0.835605
 13
-1.603089
 23
-0.000012
 33
0.835605
 62
0
  0
3DFACE
  8
Cylinder4
 10
-1.603089
 20
-0.000012
 30
0.835605
 11
-1.646655
 21
0.077936
 31
0.793548
 12
-1.598401
 22
0.071585
 32
0.835601
 13
-1.598401
 23
0.071585
 33
0.835601
 62
0
  0
3DFACE
  8
Cylinder4
 10
-1.598401
 20
0.071585
 30
0.835601
 11
-1.646655
 21
0.077936
 31
0.793548
 12
-1.584403
 22
0.141930
 32
0.835605
 13
-1.584403
 23
0.141930
 33
0.835605
 62
0
  0
3DFACE
  8
Cylinder4
 10
-1.584403
 20
0.141930
 30
0.835605
 11
-1.606316
 21
0.228497
 31
0.793544
 12
-1.561344
 22
0.209870
 32
0.835604
 13
-1.561344
 23
0.209870
 33
0.835604
 62
0
  0
3DFACE
  8
Cylinder4
 10
-1.561344
 20
0.209870
 30
0.835604
 11
-1.606316
 21
0.228497
 31
0.793544
 12
-1.529617
 22
0.274201
 32
0.835605
 13
-1.529617
 23
0.274201
 33
0.835605
 62
0
  0
3DFACE
  8
Cylinder4
 10
-1.529617
 20
0.274201
 30
0.835605
 11
-1.528378
 21
0.363486
 31
0.793545
 12
-1.489767
 22
0.333860
 32
0.835597
 13
-1.489767
 23
0.333860
 33
0.835597
 62
0
  0
3DFACE
  8
Cylinder4
 10
-1.489767
 20
0.333860
 30
0.835597
 11
-1.528378
 21
0.363486
 31
0.793545
 12
-1.442467
 22
0.387777
 32
0.835607
 13
-1.442467
 23
0.387777
 33
0.835607
 62
0
  0
3DFACE
  8
Cylinder4
 10
-1.442467
 20
0.387777
 30
0.835607
 11
-1.418164
 21
0.473706
 31
0.793540
 12
-1.388527
 22
0.435083
 32
0.835606
 13
-1.388527
 23
0.435083
 33
0.835606
 62
0
  0
3DFACE
  8
Cylinder4
 10
-1.388527
 20
0.435083
 30
0.835606
 11
-1.418164
 21
0.473706
 31
0.793540
 12
-1.328878
 22
0.474934
 32
0.835610
 13
-1.328878
 23
0.474934
 33
0.835610
 62
0
  0
3DFACE
  8
Cylinder4
 10
-1.352148
 20
0.387674
 30
0.882044
 11
-1.388527
 21
0.435083
 31
0.835606
 12
-1.328878
 22
0.474934
 32
0.835610
 13
-1.328878
 23
0.474934
 33
0.835610
 62
0
  0
3DFACE
  8
Cylinder4
 10
-1.442467
 20
0.387777
 30
0.835607
 11
-1.388527
 21
0.435083
 31
0.835606
 12
-1.352148
 22
0.387674
 32
0.882044
 13
-1.352148
 23
0.387674
 33
0.882044
 62
0
  0
3DFACE
  8
Cylinder4
 10
-1.529617
 20
0.274201
 30
0.835605
 11
-1.489767
 21
0.333860
 31
0.835597
 12
-1.442337
 22
0.297465
 32
0.882055
 13
-1.442337
 23
0.297465
 33
0.882055
 62
0
  0
3DFACE
  8
Cylinder4
 10
-1.584403
 20
0.141930
 30
0.835605
 11
-1.561344
 21
0.209870
 31
0.835604
 12
-1.506121
 22
0.186996
 32
0.882052
 13
-1.506121
 23
0.186996
 33
0.882052
 62
0
  0
3DFACE
  8
Cylinder4
 10
-1.241678
 20
0.451466
 30
0.882036
 11
-1.264540
 21
0.506659
 31
0.835612
 12
-1.196611
 22
0.529720
 32
0.835610
 13
-1.196611
 23
0.529720
 33
0.835610
 62
0
  0
3DFACE
  8
Cylinder4
 10
-1.118458
 20
0.484485
 30
0.882035
 11
-1.126256
 21
0.543712
 31
0.835613
 12
-1.054670
 22
0.548406
 32
0.835611
 13
-1.054670
 23
0.548406
 33
0.835611
 62
0
  0
3DFACE
  8
Cylinder4
 10
-0.990891
 20
0.484486
 30
0.882034
 11
-0.983095
 21
0.543710
 31
0.835615
 12
-0.912731
 22
0.529718
 32
0.835611
 13
-0.912731
 23
0.529718
 33
0.835611
 62
0
  0
3DFACE
  8
Cylinder4
 10
-0.990891
 20
0.484486
 30
0.882034
 11
-0.912731
 21
0.529718
 31
0.835611
 12
-0.867670
 22
0.451471
 32
0.882033
 13
-0.938844
 23
0.432274
 33
0.908879
 62
0
  0
3DFACE
  8
Cylinder4
 10
-0.867670
 20
0.451471
 30
0.882033
 11
-0.780465
 21
0.474929
 31
0.835613
 12
-0.757193
 22
0.387691
 32
0.882032
 13
-0.860315
 23
0.336636
 33
0.951592
 62
0
  0
3DFACE
  8
Cylinder4
 10
-0.757193
 20
0.387691
 30
0.882032
 11
-0.666886
 21
0.387772
 31
0.835616
 12
-0.666990
 22
0.297486
 32
0.882034
 13
-0.738223
 23
0.316443
 33
0.908880
 62
0
  0
3DFACE
  8
Cylinder4
 10
-0.666990
 20
0.297486
 30
0.882034
 11
-0.579737
 21
0.274197
 31
0.835614
 12
-0.603203
 22
0.187012
 32
0.882033
 13
-0.718040
 23
0.194353
 33
0.951595
 62
0
  0
3DFACE
  8
Cylinder4
 10
-0.506271
 20
-0.000005
 30
0.835617
 11
-0.510970
 21
-0.071571
 31
0.835623
 12
-0.570185
 22
-0.063776
 32
0.882036
 13
-0.570185
 23
-0.063776
 33
0.882036
 62
0
  0
3DFACE
  8
Cylinder4
 10
-0.570189
 20
0.063790
 30
0.882037
 11
-0.510966
 21
0.071589
 31
0.835617
 12
-0.506271
 22
-0.000005
 32
0.835617
 13
-0.506271
 23
-0.000005
 33
0.835617
 62
0
  0
3DFACE
  8
Cylinder4
 10
-0.603203
 20
0.187012
 30
0.882033
 11
-0.524953
 21
0.141934
 31
0.835614
 12
-0.570189
 22
0.063790
 32
0.882037
 13
-0.622398
 23
0.115822
 33
0.908882
 62
0
  0
3DFACE
  8
Cylinder4
 10
-0.570185
 20
-0.063776
 30
0.882036
 11
-0.510970
 21
-0.071571
 31
0.835623
 12
-0.524959
 22
-0.141941
 32
0.835619
 13
-0.524959
 23
-0.141941
 33
0.835619
 62
0
  0
3DFACE
  8
Cylinder4
 10
-0.603204
 20
-0.186997
 30
0.882039
 11
-0.548023
 21
-0.209852
 31
0.835626
 12
-0.579744
 22
-0.274204
 32
0.835618
 13
-0.579744
 23
-0.274204
 33
0.835618
 62
0
  0
3DFACE
  8
Cylinder4
 10
-0.524959
 20
-0.141941
 30
0.835619
 11
-0.548023
 21
-0.209852
 31
0.835626
 12
-0.603204
 22
-0.186997
 32
0.882039
 13
-0.603204
 23
-0.186997
 33
0.882039
 62
0
  0
3DFACE
  8
Cylinder4
 10
-0.579744
 20
-0.274204
 30
0.835618
 11
-0.619597
 21
-0.333837
 31
0.835622
 12
-0.666986
 22
-0.297475
 32
0.882039
 13
-0.666986
 23
-0.297475
 33
0.882039
 62
0
  0
3DFACE
  8
Cylinder4
 10
-0.666986
 20
-0.297475
 30
0.882039
 11
-0.619597
 21
-0.333837
 31
0.835622
 12
-0.666891
 22
-0.387779
 32
0.835616
 13
-0.666891
 23
-0.387779
 33
0.835616
 62
0
  0
3DFACE
  8
Cylinder4
 10
-0.666891
 20
-0.387779
 30
0.835616
 11
-0.720828
 21
-0.435067
 31
0.835623
 12
-0.757190
 22
-0.387680
 32
0.882040
 13
-0.757190
 23
-0.387680
 33
0.882040
 62
0
  0
3DFACE
  8
Cylinder4
 10
-0.757190
 20
-0.387680
 30
0.882040
 11
-0.720828
 21
-0.435067
 31
0.835623
 12
-0.780467
 22
-0.474931
 32
0.835615
 13
-0.780467
 23
-0.474931
 33
0.835615
 62
0
  0
3DFACE
  8
Cylinder4
 10
-0.867669
 20
-0.451461
 30
0.882043
 11
-0.844806
 21
-0.506656
 31
0.835617
 12
-0.912723
 22
-0.529720
 32
0.835611
 13
-0.912723
 23
-0.529720
 33
0.835611
 62
0
  0
3DFACE
  8
Cylinder4
 10
-0.780467
 20
-0.474931
 30
0.835615
 11
-0.844806
 21
-0.506656
 31
0.835617
 12
-0.867669
 22
-0.451461
 32
0.882043
 13
-0.867669
 23
-0.451461
 33
0.882043
 62
0
  0
3DFACE
  8
Cylinder4
 10
-0.990889
 20
-0.484478
 30
0.882043
 11
-0.983092
 21
-0.543709
 31
0.835618
 12
-1.054661
 22
-0.548413
 32
0.835608
 13
-1.054661
 23
-0.548413
 33
0.835608
 62
0
  0
3DFACE
  8
Cylinder4
 10
-0.912723
 20
-0.529720
 30
0.835611
 11
-0.983092
 21
-0.543709
 31
0.835618
 12
-0.990889
 22
-0.484478
 32
0.882043
 13
-0.990889
 23
-0.484478
 33
0.882043
 62
0
  0
3DFACE
  8
Cylinder4
 10
-1.118455
 20
-0.484476
 30
0.882045
 11
-1.126255
 21
-0.543716
 31
0.835611
 12
-1.196598
 22
-0.529729
 32
0.835609
 13
-1.196598
 23
-0.529729
 33
0.835609
 62
0
  0
3DFACE
  8
Cylinder4
 10
-1.054661
 20
-0.548413
 30
0.835608
 11
-1.126255
 21
-0.543716
 31
0.835611
 12
-1.118455
 22
-0.484476
 32
0.882045
 13
-1.118455
 23
-0.484476
 33
0.882045
 62
0
  0
3DFACE
  8
Cylinder4
 10
-1.196598
 20
-0.529729
 30
0.835609
 11
-1.264543
 21
-0.506664
 31
0.835610
 12
-1.241677
 22
-0.451461
 32
0.882042
 13
-1.241677
 23
-0.451461
 33
0.882042
 62
0
  0
3DFACE
  8
Cylinder4
 10
-1.328868
 20
-0.474948
 30
0.835606
 11
-1.388530
 21
-0.435084
 31
0.835606
 12
-1.352152
 22
-0.387677
 32
0.882042
 13
-1.352152
 23
-0.387677
 33
0.882042
 62
0
  0
3DFACE
  8
Cylinder4
 10
-1.241677
 20
-0.451461
 30
0.882042
 11
-1.264543
 21
-0.506664
 31
0.835610
 12
-1.328868
 22
-0.474948
 32
0.835606
 13
-1.328868
 23
-0.474948
 33
0.835606
 62
0
  0
3DFACE
  8
Cylinder4
 10
-1.442450
 20
-0.387800
 30
0.835605
 11
-1.489763
 21
-0.333852
 31
0.835605
 12
-1.442351
 22
-0.297473
 32
0.882044
 13
-1.442351
 23
-0.297473
 33
0.882044
 62
0
  0
3DFACE
  8
Cylinder4
 10
-1.352152
 20
-0.387677
 30
0.882042
 11
-1.388530
 21
-0.435084
 31
0.835606
 12
-1.442450
 22
-0.387800
 32
0.835605
 13
-1.442450
 23
-0.387800
 33
0.835605
 62
0
  0
3DFACE
  8
Cylinder4
 10
-1.442351
 20
-0.297473
 30
0.882044
 11
-1.489763
 21
-0.333852
 31
0.835605
 12
-1.529608
 22
-0.274221
 32
0.835604
 13
-1.529608
 23
-0.274221
 33
0.835604
 62
0
  0
3DFACE
  8
Cylinder4
 10
-1.529608
 20
-0.274221
 30
0.835604
 11
-1.561350
 21
-0.209869
 31
0.835600
 12
-1.506130
 22
-0.186997
 32
0.882046
 13
-1.506130
 23
-0.186997
 33
0.882046
 62
0
  0
3DFACE
  8
Cylinder4
 10
-1.584400
 20
-0.141955
 30
0.835603
 11
-1.598405
 21
-0.071581
 31
0.835599
 12
-1.539144
 22
-0.063780
 32
0.882048
 13
-1.539144
 23
-0.063780
 33
0.882048
 62
0
  0
3DFACE
  8
Cylinder4
 10
-1.506130
 20
-0.186997
 30
0.882046
 11
-1.561350
 21
-0.209869
 31
0.835600
 12
-1.584400
 22
-0.141955
 32
0.835603
 13
-1.584400
 23
-0.141955
 33
0.835603
 62
0
  0
3DFACE
  8
Cylinder4
 10
-1.603089
 20
-0.000012
 30
0.835605
 11
-1.598401
 21
0.071585
 31
0.835601
 12
-1.539143
 22
0.063783
 32
0.882048
 13
-1.539143
 23
0.063783
 33
0.882048
 62
0
  0
3DFACE
  8
Cylinder4
 10
-1.539144
 20
-0.063780
 30
0.882048
 11
-1.598405
 21
-0.071581
 31
0.835599
 12
-1.603089
 22
-0.000012
 32
0.835605
 13
-1.603089
 23
-0.000012
 33
0.835605
 62
0
  0
3DFACE
  8
Cylinder4
 10
-1.539143
 20
0.063783
 30
0.882048
 11
-1.598401
 21
0.071585
 31
0.835601
 12
-1.584403
 22
0.141930
 32
0.835605
 13
-1.584403
 23
0.141930
 33
0.835605
 62
0
  0
3DFACE
  8
Cylinder4
 10
-1.506121
 20
0.186996
 30
0.882052
 11
-1.561344
 21
0.209870
 31
0.835604
 12
-1.529617
 22
0.274201
 32
0.835605
 13
-1.529617
 23
0.274201
 33
0.835605
 62
0
  0
3DFACE
  8
Cylinder4
 10
-1.442337
 20
0.297465
 30
0.882055
 11
-1.489767
 21
0.333860
 31
0.835597
 12
-1.442467
 22
0.387777
 32
0.835607
 13
-1.442467
 23
0.387777
 33
0.835607
 62
0
  0
3DFACE
  8
Cylinder4
 10
-1.328878
 20
0.474934
 30
0.835610
 11
-1.241678
 21
0.451466
 31
0.882036
 12
-1.249030
 22
0.336637
 32
0.951591
 13
-1.352148
 23
0.387674
 33
0.882044
 62
0
  0
3DFACE
  8
Cylinder4
 10
-1.241678
 20
0.451466
 30
0.882036
 11
-1.196611
 21
0.529720
 31
0.835610
 12
-1.118458
 22
0.484485
 32
0.882035
 13
-1.170499
 23
0.432273
 33
0.908881
 62
0
  0
3DFACE
  8
Cylinder4
 10
-1.118458
 20
0.484485
 30
0.882035
 11
-1.054670
 21
0.548406
 31
0.835611
 12
-0.990891
 22
0.484486
 32
0.882034
 13
-1.054673
 23
0.388713
 33
0.951592
 62
0
  0
3DFACE
  8
Cylinder4
 10
-1.118458
 20
0.484485
 30
0.882035
 11
-1.054673
 21
0.388713
 31
0.951592
 12
-1.170499
 22
0.432273
 32
0.908881
 13
-1.170499
 23
0.432273
 33
0.908881
 62
0
  0
3DFACE
  8
Cylinder4
 10
-0.990891
 20
0.484486
 30
0.882034
 11
-0.938844
 21
0.432274
 31
0.908879
 12
-1.054673
 22
0.388713
 32
0.951592
 13
-1.054673
 23
0.388713
 33
0.951592
 62
0
  0
3DFACE
  8
Cylinder4
 10
-0.867670
 20
0.451471
 30
0.882033
 11
-0.860315
 21
0.336636
 31
0.951592
 12
-0.938844
 22
0.432274
 32
0.908879
 13
-0.938844
 23
0.432274
 33
0.908879
 62
0
  0
3DFACE
  8
Cylinder4
 10
-0.757193
 20
0.387691
 30
0.882032
 11
-0.738223
 21
0.316443
 31
0.908880
 12
-0.860315
 22
0.336636
 32
0.951592
 13
-0.860315
 23
0.336636
 33
0.951592
 62
0
  0
3DFACE
  8
Cylinder4
 10
-0.666990
 20
0.297486
 30
0.882034
 11
-0.718040
 21
0.194353
 31
0.951595
 12
-0.738223
 22
0.316443
 32
0.908880
 13
-0.738223
 23
0.316443
 33
0.908880
 62
0
  0
3DFACE
  8
Cylinder4
 10
-0.570189
 20
0.063790
 30
0.882037
 11
-0.506271
 21
-0.000005
 31
0.835617
 12
-0.570185
 22
-0.063776
 32
0.882036
 13
-0.665966
 23
-0.000001
 33
0.951598
 62
0
  0
3DFACE
  8
Cylinder4
 10
-0.603203
 20
0.187012
 30
0.882033
 11
-0.622398
 21
0.115822
 31
0.908882
 12
-0.718040
 22
0.194353
 32
0.951595
 13
-0.718040
 23
0.194353
 33
0.951595
 62
0
  0
3DFACE
  8
Cylinder4
 10
-0.570185
 20
-0.063776
 30
0.882036
 11
-0.524959
 21
-0.141941
 31
0.835619
 12
-0.603204
 22
-0.186997
 32
0.882039
 13
-0.622400
 23
-0.115830
 33
0.908882
 62
0
  0
3DFACE
  8
Cylinder4
 10
-0.570189
 20
0.063790
 30
0.882037
 11
-0.665966
 21
-0.000001
 31
0.951598
 12
-0.622398
 22
0.115822
 32
0.908882
 13
-0.622398
 23
0.115822
 33
0.908882
 62
0
  0
3DFACE
  8
Cylinder4
 10
-0.603204
 20
-0.186997
 30
0.882039
 11
-0.579744
 21
-0.274204
 31
0.835618
 12
-0.666986
 22
-0.297475
 32
0.882039
 13
-0.718041
 23
-0.194353
 33
0.951598
 62
0
  0
3DFACE
  8
Cylinder4
 10
-0.666986
 20
-0.297475
 30
0.882039
 11
-0.666891
 21
-0.387779
 31
0.835616
 12
-0.757190
 22
-0.387680
 32
0.882040
 13
-0.738225
 23
-0.316445
 33
0.908882
 62
0
  0
3DFACE
  8
Cylinder4
 10
-0.757190
 20
-0.387680
 30
0.882040
 11
-0.780467
 21
-0.474931
 31
0.835615
 12
-0.867669
 22
-0.451461
 32
0.882043
 13
-0.860316
 23
-0.336631
 33
0.951597
 62
0
  0
3DFACE
  8
Cylinder4
 10
-0.867669
 20
-0.451461
 30
0.882043
 11
-0.912723
 21
-0.529720
 31
0.835611
 12
-0.990889
 22
-0.484478
 32
0.882043
 13
-0.938836
 23
-0.432274
 33
0.908880
 62
0
  0
3DFACE
  8
Cylinder4
 10
-0.990889
 20
-0.484478
 30
0.882043
 11
-1.054661
 21
-0.548413
 31
0.835608
 12
-1.118455
 22
-0.484476
 32
0.882045
 13
-1.054669
 23
-0.388713
 33
0.951594
 62
0
  0
3DFACE
  8
Cylinder4
 10
-1.118455
 20
-0.484476
 30
0.882045
 11
-1.196598
 21
-0.529729
 31
0.835609
 12
-1.241677
 22
-0.451461
 32
0.882042
 13
-1.170489
 23
-0.432281
 33
0.908879
 62
0
  0
3DFACE
  8
Cylinder4
 10
-1.241677
 20
-0.451461
 30
0.882042
 11
-1.328868
 21
-0.474948
 31
0.835606
 12
-1.352152
 22
-0.387677
 32
0.882042
 13
-1.249027
 23
-0.336639
 33
0.951592
 62
0
  0
3DFACE
  8
Cylinder4
 10
-1.352152
 20
-0.387677
 30
0.882042
 11
-1.442450
 21
-0.387800
 31
0.835605
 12
-1.442351
 22
-0.297473
 32
0.882044
 13
-1.371116
 23
-0.316460
 33
0.908877
 62
0
  0
3DFACE
  8
Cylinder4
 10
-1.442351
 20
-0.297473
 30
0.882044
 11
-1.529608
 21
-0.274221
 31
0.835604
 12
-1.506130
 22
-0.186997
 32
0.882046
 13
-1.391309
 23
-0.194363
 33
0.951590
 62
0
  0
3DFACE
  8
Cylinder4
 10
-1.506130
 20
-0.186997
 30
0.882046
 11
-1.584400
 21
-0.141955
 31
0.835603
 12
-1.539144
 22
-0.063780
 32
0.882048
 13
-1.486950
 23
-0.115844
 33
0.908876
 62
0
  0
3DFACE
  8
Cylinder4
 10
-1.539144
 20
-0.063780
 30
0.882048
 11
-1.603089
 21
-0.000012
 31
0.835605
 12
-1.539143
 22
0.063783
 32
0.882048
 13
-1.443392
 23
-0.000005
 33
0.951589
 62
0
  0
3DFACE
  8
Cylinder4
 10
-1.539143
 20
0.063783
 30
0.882048
 11
-1.584403
 21
0.141930
 31
0.835605
 12
-1.506121
 22
0.186996
 32
0.882052
 13
-1.486959
 23
0.115817
 33
0.908875
 62
0
  0
3DFACE
  8
Cylinder4
 10
-1.506121
 20
0.186996
 30
0.882052
 11
-1.529617
 21
0.274201
 31
0.835605
 12
-1.442337
 22
0.297465
 32
0.882055
 13
-1.391315
 23
0.194355
 33
0.951590
 62
0
  0
3DFACE
  8
Cylinder4
 10
-1.442337
 20
0.297465
 30
0.882055
 11
-1.442467
 21
0.387777
 31
0.835607
 12
-1.352148
 22
0.387674
 32
0.882044
 13
-1.371132
 23
0.316434
 33
0.908881
 62
0
  0
3DFACE
  8
Cylinder4
 10
-1.241678
 20
0.451466
 30
0.882036
 11
-1.170499
 21
0.432273
 31
0.908881
 12
-1.249030
 22
0.336637
 32
0.951591
 13
-1.249030
 23
0.336637
 33
0.951591
 62
0
  0
3DFACE
  8
Cylinder4
 10
-1.352148
 20
0.387674
 30
0.882044
 11
-1.249030
 21
0.336637
 31
0.951591
 12
-1.371132
 22
0.316434
 32
0.908881
 13
-1.371132
 23
0.316434
 33
0.908881
 62
0
  0
3DFACE
  8
Cylinder4
 10
-1.054673
 20
0.388713
 30
0.951592
 11
-0.938844
 21
0.432274
 31
0.908879
 12
-0.860315
 22
0.336636
 32
0.951592
 13
-0.979384
 23
0.330961
 33
0.973127
 62
0
  0
3DFACE
  8
Cylinder4
 10
-0.860315
 20
0.336636
 30
0.951592
 11
-0.738223
 21
0.316443
 31
0.908880
 12
-0.718040
 22
0.194353
 32
0.951595
 13
-0.805690
 23
0.230677
 33
0.973127
 62
0
  0
3DFACE
  8
Cylinder4
 10
-0.570185
 20
-0.063776
 30
0.882036
 11
-0.622400
 21
-0.115830
 31
0.908882
 12
-0.665966
 22
-0.000001
 32
0.951598
 13
-0.665966
 23
-0.000001
 33
0.951598
 62
0
  0
3DFACE
  8
Cylinder4
 10
-0.603204
 20
-0.186997
 30
0.882039
 11
-0.718041
 21
-0.194353
 31
0.951598
 12
-0.622400
 22
-0.115830
 32
0.908882
 13
-0.622400
 23
-0.115830
 33
0.908882
 62
0
  0
3DFACE
  8
Cylinder4
 10
-0.730406
 20
0.100282
 30
0.973127
 11
-0.718040
 21
0.194353
 31
0.951595
 12
-0.622398
 22
0.115822
 32
0.908882
 13
-0.665966
 23
-0.000001
 33
0.951598
 62
0
  0
3DFACE
  8
Cylinder4
 10
-0.666986
 20
-0.297475
 30
0.882039
 11
-0.738225
 21
-0.316445
 31
0.908882
 12
-0.718041
 22
-0.194353
 32
0.951598
 13
-0.718041
 23
-0.194353
 33
0.951598
 62
0
  0
3DFACE
  8
Cylinder4
 10
-0.665966
 20
-0.000001
 30
0.951598
 11
-0.622400
 21
-0.115830
 31
0.908882
 12
-0.718041
 22
-0.194353
 32
0.951598
 13
-0.730406
 23
-0.100287
 33
0.973127
 62
0
  0
3DFACE
  8
Cylinder4
 10
-0.757190
 20
-0.387680
 30
0.882040
 11
-0.860316
 21
-0.336631
 31
0.951597
 12
-0.738225
 22
-0.316445
 32
0.908882
 13
-0.738225
 23
-0.316445
 33
0.908882
 62
0
  0
3DFACE
  8
Cylinder4
 10
-0.867669
 20
-0.451461
 30
0.882043
 11
-0.938836
 21
-0.432274
 31
0.908880
 12
-0.860316
 22
-0.336631
 32
0.951597
 13
-0.860316
 23
-0.336631
 33
0.951597
 62
0
  0
3DFACE
  8
Cylinder4
 10
-0.990889
 20
-0.484478
 30
0.882043
 11
-1.054669
 21
-0.388713
 31
0.951594
 12
-0.938836
 22
-0.432274
 32
0.908880
 13
-0.938836
 23
-0.432274
 33
0.908880
 62
0
  0
3DFACE
  8
Cylinder4
 10
-1.241677
 20
-0.451461
 30
0.882042
 11
-1.249027
 21
-0.336639
 31
0.951592
 12
-1.170489
 22
-0.432281
 32
0.908879
 13
-1.170489
 23
-0.432281
 33
0.908879
 62
0
  0
3DFACE
  8
Cylinder4
 10
-1.118455
 20
-0.484476
 30
0.882045
 11
-1.170489
 21
-0.432281
 31
0.908879
 12
-1.054669
 22
-0.388713
 32
0.951594
 13
-1.054669
 23
-0.388713
 33
0.951594
 62
0
  0
3DFACE
  8
Cylinder4
 10
-1.352152
 20
-0.387677
 30
0.882042
 11
-1.371116
 21
-0.316460
 31
0.908877
 12
-1.249027
 22
-0.336639
 32
0.951592
 13
-1.249027
 23
-0.336639
 33
0.951592
 62
0
  0
3DFACE
  8
Cylinder4
 10
-1.442351
 20
-0.297473
 30
0.882044
 11
-1.391309
 21
-0.194363
 31
0.951590
 12
-1.371116
 22
-0.316460
 32
0.908877
 13
-1.371116
 23
-0.316460
 33
0.908877
 62
0
  0
3DFACE
  8
Cylinder4
 10
-1.539144
 20
-0.063780
 30
0.882048
 11
-1.443392
 21
-0.000005
 31
0.951589
 12
-1.486950
 22
-0.115844
 32
0.908876
 13
-1.486950
 23
-0.115844
 33
0.908876
 62
0
  0
3DFACE
  8
Cylinder4
 10
-1.506130
 20
-0.186997
 30
0.882046
 11
-1.486950
 21
-0.115844
 31
0.908876
 12
-1.391309
 22
-0.194363
 32
0.951590
 13
-1.391309
 23
-0.194363
 33
0.951590
 62
0
  0
3DFACE
  8
Cylinder4
 10
-1.506121
 20
0.186996
 30
0.882052
 11
-1.391315
 21
0.194355
 31
0.951590
 12
-1.486959
 22
0.115817
 32
0.908875
 13
-1.486959
 23
0.115817
 33
0.908875
 62
0
  0
3DFACE
  8
Cylinder4
 10
-1.539143
 20
0.063783
 30
0.882048
 11
-1.486959
 21
0.115817
 31
0.908875
 12
-1.443392
 22
-0.000005
 32
0.951589
 13
-1.443392
 23
-0.000005
 33
0.951589
 62
0
  0
3DFACE
  8
Cylinder4
 10
-1.442337
 20
0.297465
 30
0.882055
 11
-1.371132
 21
0.316434
 31
0.908881
 12
-1.391315
 22
0.194355
 32
0.951590
 13
-1.391315
 23
0.194355
 33
0.951590
 62
0
  0
3DFACE
  8
Cylinder4
 10
-1.054673
 20
0.388713
 30
0.951592
 11
-1.129959
 21
0.330963
 31
0.973126
 12
-1.249030
 22
0.336637
 32
0.951591
 13
-1.170499
 23
0.432273
 33
0.908881
 62
0
  0
3DFACE
  8
Cylinder4
 10
-0.730406
 20
0.100282
 30
0.973127
 11
-0.797477
 21
0.079935
 31
0.998580
 12
-0.856854
 22
0.182758
 32
0.998584
 13
-0.856854
 23
0.182758
 33
0.998584
 62
0
  0
3DFACE
  8
Cylinder4
 10
-0.805690
 20
0.230677
 30
0.973127
 11
-0.730406
 21
0.100282
 31
0.973127
 12
-0.856854
 22
0.182758
 32
0.998584
 13
-0.856854
 23
0.182758
 33
0.998584
 62
0
  0
3DFACE
  8
Cylinder4
 10
-0.718040
 20
0.194353
 30
0.951595
 11
-0.730406
 21
0.100282
 31
0.973127
 12
-0.805690
 22
0.230677
 32
0.973127
 13
-0.805690
 23
0.230677
 33
0.973127
 62
0
  0
3DFACE
  8
Cylinder4
 10
-0.805688
 20
-0.230680
 30
0.973128
 11
-0.718041
 21
-0.194353
 31
0.951598
 12
-0.738225
 22
-0.316445
 32
0.908882
 13
-0.860316
 23
-0.336631
 33
0.951597
 62
0
  0
3DFACE
  8
Cylinder4
 10
-0.995301
 20
0.262696
 30
0.998582
 11
-0.979384
 21
0.330961
 31
0.973127
 12
-0.860315
 22
0.336636
 32
0.951592
 13
-0.860315
 23
0.336636
 33
0.951592
 62
0
  0
3DFACE
  8
Cylinder4
 10
-0.860315
 20
0.336636
 30
0.951592
 11
-0.805690
 21
0.230677
 31
0.973127
 12
-0.856854
 22
0.182758
 32
0.998584
 13
-0.856854
 23
0.182758
 33
0.998584
 62
0
  0
3DFACE
  8
Cylinder4
 10
-0.797477
 20
0.079935
 30
0.998580
 11
-0.730406
 21
0.100282
 31
0.973127
 12
-0.665966
 22
-0.000001
 32
0.951598
 13
-0.665966
 23
-0.000001
 33
0.951598
 62
0
  0
3DFACE
  8
Cylinder4
 10
-1.249030
 20
0.336637
 30
0.951591
 11
-1.129959
 21
0.330963
 31
0.973126
 12
-1.114040
 22
0.262692
 32
0.998584
 13
-1.114040
 23
0.262692
 33
0.998584
 62
0
  0
3DFACE
  8
Cylinder4
 10
-0.665966
 20
-0.000001
 30
0.951598
 11
-0.730406
 21
-0.100287
 31
0.973127
 12
-0.797475
 22
-0.079941
 32
0.998580
 13
-0.797475
 23
-0.079941
 33
0.998580
 62
0
  0
3DFACE
  8
Cylinder4
 10
-0.860316
 20
-0.336631
 30
0.951597
 11
-0.938836
 21
-0.432274
 31
0.908880
 12
-1.054669
 22
-0.388713
 32
0.951594
 13
-0.979384
 23
-0.330967
 33
0.973127
 62
0
  0
3DFACE
  8
Cylinder4
 10
-1.129957
 20
-0.330966
 30
0.973127
 11
-1.054669
 21
-0.388713
 31
0.951594
 12
-1.170489
 22
-0.432281
 32
0.908879
 13
-1.249027
 23
-0.336639
 33
0.951592
 62
0
  0
3DFACE
  8
Cylinder4
 10
-1.249027
 20
-0.336639
 30
0.951592
 11
-1.371116
 21
-0.316460
 31
0.908877
 12
-1.391309
 22
-0.194363
 32
0.951590
 13
-1.303651
 23
-0.230688
 33
0.973125
 62
0
  0
3DFACE
  8
Cylinder4
 10
-1.378940
 20
-0.100283
 30
0.973126
 11
-1.391309
 21
-0.194363
 31
0.951590
 12
-1.486950
 22
-0.115844
 32
0.908876
 13
-1.443392
 23
-0.000005
 33
0.951589
 62
0
  0
3DFACE
  8
Cylinder4
 10
-1.443392
 20
-0.000005
 30
0.951589
 11
-1.486959
 21
0.115817
 31
0.908875
 12
-1.391315
 22
0.194355
 32
0.951590
 13
-1.378944
 23
0.100277
 33
0.973125
 62
0
  0
3DFACE
  8
Cylinder4
 10
-1.303652
 20
0.230681
 30
0.973126
 11
-1.391315
 21
0.194355
 31
0.951590
 12
-1.371132
 22
0.316434
 32
0.908881
 13
-1.249030
 23
0.336637
 33
0.951591
 62
0
  0
3DFACE
  8
Cylinder4
 10
-1.252484
 20
0.182758
 30
0.998585
 11
-1.303652
 21
0.230681
 31
0.973126
 12
-1.249030
 22
0.336637
 32
0.951591
 13
-1.249030
 23
0.336637
 33
0.951591
 62
0
  0
3DFACE
  8
Cylinder4
 10
-0.995301
 20
0.262696
 30
0.998582
 11
-1.114040
 21
0.262692
 31
0.998584
 12
-1.129959
 22
0.330963
 32
0.973126
 13
-1.129959
 23
0.330963
 33
0.973126
 62
0
  0
3DFACE
  8
Cylinder4
 10
-1.054673
 20
0.388713
 30
0.951592
 11
-0.995301
 21
0.262696
 31
0.998582
 12
-1.129959
 22
0.330963
 32
0.973126
 13
-1.129959
 23
0.330963
 33
0.973126
 62
0
  0
3DFACE
  8
Cylinder4
 10
-0.979384
 20
0.330961
 30
0.973127
 11
-0.995301
 21
0.262696
 31
0.998582
 12
-1.054673
 22
0.388713
 32
0.951592
 13
-1.054673
 23
0.388713
 33
0.951592
 62
0
  0
3DFACE
  8
Cylinder4
 10
-0.995301
 20
0.262696
 30
0.998582
 11
-0.860315
 21
0.336636
 31
0.951592
 12
-0.856854
 22
0.182758
 32
0.998584
 13
-0.856854
 23
0.182758
 33
0.998584
 62
0
  0
3DFACE
  8
Cylinder4
 10
-0.856849
 20
-0.182764
 30
0.998582
 11
-0.805688
 21
-0.230680
 31
0.973128
 12
-0.860316
 22
-0.336631
 32
0.951597
 13
-0.860316
 23
-0.336631
 33
0.951597
 62
0
  0
3DFACE
  8
Cylinder4
 10
-0.797475
 20
-0.079941
 30
0.998580
 11
-0.805688
 21
-0.230680
 31
0.973128
 12
-0.856849
 22
-0.182764
 32
0.998582
 13
-0.856849
 23
-0.182764
 33
0.998582
 62
0
  0
3DFACE
  8
Cylinder4
 10
-0.718041
 20
-0.194353
 30
0.951598
 11
-0.805688
 21
-0.230680
 31
0.973128
 12
-0.797475
 22
-0.079941
 32
0.998580
 13
-0.797475
 23
-0.079941
 33
0.998580
 62
0
  0
3DFACE
  8
Cylinder4
 10
-0.730406
 20
-0.100287
 30
0.973127
 11
-0.718041
 21
-0.194353
 31
0.951598
 12
-0.797475
 22
-0.079941
 32
0.998580
 13
-0.797475
 23
-0.079941
 33
0.998580
 62
0
  0
3DFACE
  8
Cylinder4
 10
-0.797477
 20
0.079935
 30
0.998580
 11
-0.665966
 21
-0.000001
 31
0.951598
 12
-0.797475
 22
-0.079941
 32
0.998580
 13
-0.797475
 23
-0.079941
 33
0.998580
 62
0
  0
3DFACE
  8
Cylinder4
 10
-0.860316
 20
-0.336631
 30
0.951597
 11
-0.979384
 21
-0.330967
 31
0.973127
 12
-0.995300
 22
-0.262704
 32
0.998581
 13
-0.995300
 23
-0.262704
 33
0.998581
 62
0
  0
3DFACE
  8
Cylinder4
 10
-0.856849
 20
-0.182764
 30
0.998582
 11
-0.860316
 21
-0.336631
 31
0.951597
 12
-0.995300
 22
-0.262704
 32
0.998581
 13
-0.995300
 23
-0.262704
 33
0.998581
 62
0
  0
3DFACE
  8
Cylinder4
 10
-1.114042
 20
-0.262706
 30
0.998580
 11
-1.129957
 21
-0.330966
 31
0.973127
 12
-1.249027
 22
-0.336639
 32
0.951592
 13
-1.249027
 23
-0.336639
 33
0.951592
 62
0
  0
3DFACE
  8
Cylinder4
 10
-1.249027
 20
-0.336639
 30
0.951592
 11
-1.303651
 21
-0.230688
 31
0.973125
 12
-1.252488
 22
-0.182769
 32
0.998582
 13
-1.252488
 23
-0.182769
 33
0.998582
 62
0
  0
3DFACE
  8
Cylinder4
 10
-1.443392
 20
-0.000005
 30
0.951589
 11
-1.378944
 21
0.100277
 31
0.973125
 12
-1.311860
 22
0.079928
 32
0.998582
 13
-1.311860
 23
0.079928
 33
0.998582
 62
0
  0
3DFACE
  8
Cylinder4
 10
-1.311859
 20
-0.079934
 30
0.998582
 11
-1.378940
 21
-0.100283
 31
0.973126
 12
-1.443392
 22
-0.000005
 32
0.951589
 13
-1.443392
 23
-0.000005
 33
0.951589
 62
0
  0
3DFACE
  8
Cylinder4
 10
-1.252484
 20
0.182758
 30
0.998585
 11
-1.249030
 21
0.336637
 31
0.951591
 12
-1.114040
 22
0.262692
 32
0.998584
 13
-1.114040
 23
0.262692
 33
0.998584
 62
0
  0
3DFACE
  8
Cylinder4
 10
-1.311859
 20
-0.079934
 30
0.998582
 11
-1.443392
 21
-0.000005
 31
0.951589
 12
-1.311860
 22
0.079928
 32
0.998582
 13
-1.311860
 23
0.079928
 33
0.998582
 62
0
  0
3DFACE
  8
Cylinder4
 10
-1.311860
 20
0.079928
 30
0.998582
 11
-1.378944
 21
0.100277
 31
0.973125
 12
-1.391315
 22
0.194355
 32
0.951590
 13
-1.391315
 23
0.194355
 33
0.951590
 62
0
  0
3DFACE
  8
Cylinder4
 10
-1.303652
 20
0.230681
 30
0.973126
 11
-1.311860
 21
0.079928
 31
0.998582
 12
-1.391315
 22
0.194355
 32
0.951590
 13
-1.391315
 23
0.194355
 33
0.951590
 62
0
  0
3DFACE
  8
Cylinder4
 10
-1.252484
 20
0.182758
 30
0.998585
 11
-1.311860
 21
0.079928
 31
0.998582
 12
-1.303652
 22
0.230681
 32
0.973126
 13
-1.303652
 23
0.230681
 33
0.973126
 62
0
  0
3DFACE
  8
Cylinder4
 10
-1.114042
 20
-0.262706
 30
0.998580
 11
-1.249027
 21
-0.336639
 31
0.951592
 12
-1.252488
 22
-0.182769
 32
0.998582
 13
-1.252488
 23
-0.182769
 33
0.998582
 62
0
  0
3DFACE
  8
Cylinder4
 10
-1.378940
 20
-0.100283
 30
0.973126
 11
-1.303651
 21
-0.230688
 31
0.973125
 12
-1.391309
 22
-0.194363
 32
0.951590
 13
-1.391309
 23
-0.194363
 33
0.951590
 62
0
  0
3DFACE
  8
Cylinder4
 10
-1.252488
 20
-0.182769
 30
0.998582
 11
-1.303651
 21
-0.230688
 31
0.973125
 12
-1.378940
 22
-0.100283
 32
0.973126
 13
-1.378940
 23
-0.100283
 33
0.973126
 62
0
  0
3DFACE
  8
Cylinder4
 10
-1.311859
 20
-0.079934
 30
0.998582
 11
-1.252488
 21
-0.182769
 31
0.998582
 12
-1.378940
 22
-0.100283
 32
0.973126
 13
-1.378940
 23
-0.100283
 33
0.973126
 62
0
  0
3DFACE
  8
Cylinder4
 10
-1.114042
 20
-0.262706
 30
0.998580
 11
-1.054669
 21
-0.388713
 31
0.951594
 12
-1.129957
 22
-0.330966
 32
0.973127
 13
-1.129957
 23
-0.330966
 33
0.973127
 62
0
  0
3DFACE
  8
Cylinder4
 10
-0.979384
 20
-0.330967
 30
0.973127
 11
-1.054669
 21
-0.388713
 31
0.951594
 12
-1.114042
 22
-0.262706
 32
0.998580
 13
-1.114042
 23
-0.262706
 33
0.998580
 62
0
  0
3DFACE
  8
Cylinder4
 10
-0.995300
 20
-0.262704
 30
0.998581
 11
-0.979384
 21
-0.330967
 31
0.973127
 12
-1.114042
 22
-0.262706
 32
0.998580
 13
-1.114042
 23
-0.262706
 33
0.998580
 62
0
  0
3DFACE
  8
Cylinder4
 10
-1.114042
 20
-0.262706
 30
0.998580
 11
-1.252488
 21
-0.182769
 31
0.998582
 12
-1.311859
 22
-0.079934
 32
0.998582
 13
-1.311859
 23
-0.079934
 33
0.998582
 62
0
  0
3DFACE
  8
Cylinder4
 10
-1.311860
 20
0.079928
 30
0.998582
 11
-1.114042
 21
-0.262706
 31
0.998580
 12
-1.311859
 22
-0.079934
 32
0.998582
 13
-1.311859
 23
-0.079934
 33
0.998582
 62
0
  0
3DFACE
  8
Cylinder4
 10
-0.995300
 20
-0.262704
 30
0.998581
 11
-1.114042
 21
-0.262706
 31
0.998580
 12
-1.311860
 22
0.079928
 32
0.998582
 13
-1.311860
 23
0.079928
 33
0.998582
 62
0
  0
3DFACE
  8
Cylinder4
 10
-1.252484
 20
0.182758
 30
0.998585
 11
-0.995300
 21
-0.262704
 31
0.998581
 12
-1.311860
 22
0.079928
 32
0.998582
 13
-1.311860
 23
0.079928
 33
0.998582
 62
0
  0
3DFACE
  8
Cylinder4
 10
-1.114040
 20
0.262692
 30
0.998584
 11
-0.995300
 21
-0.262704
 31
0.998581
 12
-1.252484
 22
0.182758
 32
0.998585
 13
-1.252484
 23
0.182758
 33
0.998585
 62
0
  0
3DFACE
  8
Cylinder4
 10
-0.856849
 20
-0.182764
 30
0.998582
 11
-0.995300
 21
-0.262704
 31
0.998581
 12
-1.114040
 22
0.262692
 32
0.998584
 13
-1.114040
 23
0.262692
 33
0.998584
 62
0
  0
3DFACE
  8
Cylinder4
 10
-0.995301
 20
0.262696
 30
0.998582
 11
-0.856849
 21
-0.182764
 31
0.998582
 12
-1.114040
 22
0.262692
 32
0.998584
 13
-1.114040
 23
0.262692
 33
0.998584
 62
0
  0
3DFACE
  8
Cylinder4
 10
-0.797475
 20
-0.079941
 30
0.998580
 11
-0.856849
 21
-0.182764
 31
0.998582
 12
-0.995301
 22
0.262696
 32
0.998582
 13
-0.995301
 23
0.262696
 33
0.998582
 62
0
  0
3DFACE
  8
Cylinder4
 10
-0.856854
 20
0.182758
 30
0.998584
 11
-0.797475
 21
-0.079941
 31
0.998580
 12
-0.995301
 22
0.262696
 32
0.998582
 13
-0.995301
 23
0.262696
 33
0.998582
 62
0
  0
3DFACE
  8
Cylinder4
 10
-0.797477
 20
0.079935
 30
0.998580
 11
-0.797475
 21
-0.079941
 31
0.998580
 12
-0.856854
 22
0.182758
 32
0.998584
 13
-0.856854
 23
0.182758
 33
0.998584
 62
0
 0
ENDSEC
 0
EOF
