solid OpenSCAD_Model
  facet normal 0.5486 0.227238 -0.804613
    outer loop
      vertex 3.2 0 1.5
      vertex 1 0 0
      vertex 2.26274 2.26274 1.5
    endloop
  endfacet
  facet normal 0.5486 0.227238 -0.804613
    outer loop
      vertex 1 0 0
      vertex 0.707107 0.707107 0
      vertex 2.26274 2.26274 1.5
    endloop
  endfacet
  facet normal 0.5486 -0.227238 -0.804613
    outer loop
      vertex 2.26274 -2.26274 1.5
      vertex 0.707107 -0.707107 0
      vertex 1 0 0
    endloop
  endfacet
  facet normal 0.227238 -0.5486 -0.804613
    outer loop
      vertex 2.26274 -2.26274 1.5
      vertex 0 -3.2 1.5
      vertex 0 -1 0
    endloop
  endfacet
  facet normal 0 0 1
    outer loop
      vertex 2.26274 2.26274 1.5
      vertex 2.26274 -2.26274 1.5
      vertex 3.2 0 1.5
    endloop
  endfacet
  facet normal 0 0 1
    outer loop
      vertex 0 3.2 1.5
      vertex 2.26274 -2.26274 1.5
      vertex 2.26274 2.26274 1.5
    endloop
  endfacet
  facet normal 0 0 1
    outer loop
      vertex 0 3.2 1.5
      vertex 0 -3.2 1.5
      vertex 2.26274 -2.26274 1.5
    endloop
  endfacet
  facet normal -0 0 1
    outer loop
      vertex -2.26274 2.26274 1.5
      vertex 0 -3.2 1.5
      vertex 0 3.2 1.5
    endloop
  endfacet
  facet normal 0 0 1
    outer loop
      vertex -2.26274 2.26274 1.5
      vertex -2.26274 -2.26274 1.5
      vertex 0 -3.2 1.5
    endloop
  endfacet
  facet normal 0 -0 1
    outer loop
      vertex -2.26274 -2.26274 1.5
      vertex -2.26274 2.26274 1.5
      vertex -3.2 0 1.5
    endloop
  endfacet
  facet normal -0.227238 -0.5486 -0.804613
    outer loop
      vertex 0 -3.2 1.5
      vertex -2.26274 -2.26274 1.5
      vertex 0 -1 0
    endloop
  endfacet
  facet normal 0.5486 -0.227238 -0.804613
    outer loop
      vertex 2.26274 -2.26274 1.5
      vertex 1 0 0
      vertex 3.2 0 1.5
    endloop
  endfacet
  facet normal -0.227238 -0.5486 -0.804613
    outer loop
      vertex 0 -1 0
      vertex -2.26274 -2.26274 1.5
      vertex -0.707107 -0.707107 0
    endloop
  endfacet
  facet normal -0.5486 -0.227238 -0.804613
    outer loop
      vertex -2.26274 -2.26274 1.5
      vertex -3.2 0 1.5
      vertex -1 0 0
    endloop
  endfacet
  facet normal -0.227238 0.5486 -0.804613
    outer loop
      vertex -0.707107 0.707107 0
      vertex -2.26274 2.26274 1.5
      vertex 0 1 0
    endloop
  endfacet
  facet normal -0.5486 0.227238 -0.804613
    outer loop
      vertex -1 0 0
      vertex -3.2 0 1.5
      vertex -2.26274 2.26274 1.5
    endloop
  endfacet
  facet normal -0.5486 0.227238 -0.804613
    outer loop
      vertex -1 0 0
      vertex -2.26274 2.26274 1.5
      vertex -0.707107 0.707107 0
    endloop
  endfacet
  facet normal -0.227238 0.5486 -0.804613
    outer loop
      vertex 0 1 0
      vertex -2.26274 2.26274 1.5
      vertex 0 3.2 1.5
    endloop
  endfacet
  facet normal 0.227238 -0.5486 -0.804613
    outer loop
      vertex 2.26274 -2.26274 1.5
      vertex 0 -1 0
      vertex 0.707107 -0.707107 0
    endloop
  endfacet
  facet normal -0.5486 -0.227238 -0.804613
    outer loop
      vertex -0.707107 -0.707107 0
      vertex -2.26274 -2.26274 1.5
      vertex -1 0 0
    endloop
  endfacet
  facet normal 0.227238 0.5486 -0.804613
    outer loop
      vertex 2.26274 2.26274 1.5
      vertex 0 1 0
      vertex 0 3.2 1.5
    endloop
  endfacet
  facet normal 0.227238 0.5486 -0.804613
    outer loop
      vertex 0.707107 0.707107 0
      vertex 0 1 0
      vertex 2.26274 2.26274 1.5
    endloop
  endfacet
  facet normal 0.923879 0.382684 0
    outer loop
      vertex 1 0 0
      vertex 0.707107 0.707107 -0.75
      vertex 0.707107 0.707107 0
    endloop
  endfacet
  facet normal 0.923879 0.382684 0
    outer loop
      vertex 0.707107 0.707107 -0.75
      vertex 1 0 0
      vertex 1 0 -0.75
    endloop
  endfacet
  facet normal -0.923879 0.382684 0
    outer loop
      vertex -1 0 -0.75
      vertex -0.707107 0.707107 0
      vertex -0.707107 0.707107 -0.75
    endloop
  endfacet
  facet normal -0.923879 0.382684 0
    outer loop
      vertex -0.707107 0.707107 0
      vertex -1 0 -0.75
      vertex -1 0 0
    endloop
  endfacet
  facet normal 0.382684 0.923879 -0
    outer loop
      vertex 0.707107 0.707107 -0.75
      vertex 0 1 0
      vertex 0.707107 0.707107 0
    endloop
  endfacet
  facet normal 0.382684 0.923879 0
    outer loop
      vertex 0 1 0
      vertex 0.707107 0.707107 -0.75
      vertex 0 1 -0.75
    endloop
  endfacet
  facet normal 0 0 -1
    outer loop
      vertex 0.707107 -0.707107 -0.75
      vertex 0.707107 0.707107 -0.75
      vertex 1 0 -0.75
    endloop
  endfacet
  facet normal 0 0 -1
    outer loop
      vertex 0 -1 -0.75
      vertex 0.707107 0.707107 -0.75
      vertex 0.707107 -0.707107 -0.75
    endloop
  endfacet
  facet normal 0 0 -1
    outer loop
      vertex 0 -1 -0.75
      vertex 0 1 -0.75
      vertex 0.707107 0.707107 -0.75
    endloop
  endfacet
  facet normal 0 0 -1
    outer loop
      vertex -0.707107 -0.707107 -0.75
      vertex 0 1 -0.75
      vertex 0 -1 -0.75
    endloop
  endfacet
  facet normal 0 0 -1
    outer loop
      vertex -0.707107 -0.707107 -0.75
      vertex -0.707107 0.707107 -0.75
      vertex 0 1 -0.75
    endloop
  endfacet
  facet normal 0 -0 -1
    outer loop
      vertex -0.707107 0.707107 -0.75
      vertex -0.707107 -0.707107 -0.75
      vertex -1 0 -0.75
    endloop
  endfacet
  facet normal -0.382684 0.923879 0
    outer loop
      vertex 0 1 -0.75
      vertex -0.707107 0.707107 0
      vertex 0 1 0
    endloop
  endfacet
  facet normal -0.382684 0.923879 0
    outer loop
      vertex -0.707107 0.707107 0
      vertex 0 1 -0.75
      vertex -0.707107 0.707107 -0.75
    endloop
  endfacet
  facet normal 0.382684 -0.923879 0
    outer loop
      vertex 0 -1 -0.75
      vertex 0.707107 -0.707107 0
      vertex 0 -1 0
    endloop
  endfacet
  facet normal 0.382684 -0.923879 0
    outer loop
      vertex 0.707107 -0.707107 0
      vertex 0 -1 -0.75
      vertex 0.707107 -0.707107 -0.75
    endloop
  endfacet
  facet normal -0.923879 -0.382684 0
    outer loop
      vertex -0.707107 -0.707107 -0.75
      vertex -1 0 0
      vertex -1 0 -0.75
    endloop
  endfacet
  facet normal -0.923879 -0.382684 0
    outer loop
      vertex -1 0 0
      vertex -0.707107 -0.707107 -0.75
      vertex -0.707107 -0.707107 0
    endloop
  endfacet
  facet normal 0.923879 -0.382684 0
    outer loop
      vertex 0.707107 -0.707107 0
      vertex 1 0 -0.75
      vertex 1 0 0
    endloop
  endfacet
  facet normal 0.923879 -0.382684 0
    outer loop
      vertex 1 0 -0.75
      vertex 0.707107 -0.707107 0
      vertex 0.707107 -0.707107 -0.75
    endloop
  endfacet
  facet normal -0.382684 -0.923879 0
    outer loop
      vertex -0.707107 -0.707107 -0.75
      vertex 0 -1 0
      vertex -0.707107 -0.707107 0
    endloop
  endfacet
  facet normal -0.382684 -0.923879 -0
    outer loop
      vertex 0 -1 0
      vertex -0.707107 -0.707107 -0.75
      vertex 0 -1 -0.75
    endloop
  endfacet
endsolid OpenSCAD_Model
