solid OpenSCAD_Model
  facet normal -0.124554 0.992213 0
    outer loop
      vertex -0.474278 0.14445 -0.25
      vertex -0.650989 0.122268 0.25
      vertex -0.474278 0.14445 0.25
    endloop
  endfacet
  facet normal -0.124554 0.992213 0
    outer loop
      vertex -0.650989 0.122268 0.25
      vertex -0.474278 0.14445 -0.25
      vertex -0.650989 0.122268 -0.25
    endloop
  endfacet
  facet normal -0.669132 -0.743144 0
    outer loop
      vertex -0.717893 -0.0836411 -0.25
      vertex -0.698473 -0.101127 0.25
      vertex -0.717893 -0.0836411 0.25
    endloop
  endfacet
  facet normal -0.669132 -0.743144 -0
    outer loop
      vertex -0.698473 -0.101127 0.25
      vertex -0.717893 -0.0836411 -0.25
      vertex -0.698473 -0.101127 -0.25
    endloop
  endfacet
  facet normal -0.913551 0.406724 0
    outer loop
      vertex -0.743881 0.0386267 -0.25
      vertex -0.733253 0.0625 0.25
      vertex -0.733253 0.0625 -0.25
    endloop
  endfacet
  facet normal -0.913551 0.406724 0
    outer loop
      vertex -0.733253 0.0625 0.25
      vertex -0.743881 0.0386267 -0.25
      vertex -0.743881 0.0386267 0.25
    endloop
  endfacet
  facet normal -0.499997 0.866027 0
    outer loop
      vertex -0.675841 0.114193 -0.25
      vertex -0.698473 0.101127 0.25
      vertex -0.675841 0.114193 0.25
    endloop
  endfacet
  facet normal -0.499997 0.866027 0
    outer loop
      vertex -0.698473 0.101127 0.25
      vertex -0.675841 0.114193 -0.25
      vertex -0.698473 0.101127 -0.25
    endloop
  endfacet
  facet normal 0 0 1
    outer loop
      vertex 0.431381 0.579892 0.25
      vertex 0.436814 0.528199 0.25
      vertex 0.436814 0.554332 0.25
    endloop
  endfacet
  facet normal 0 0 1
    outer loop
      vertex 0.431381 0.579892 0.25
      vertex 0.431381 0.502638 0.25
      vertex 0.436814 0.528199 0.25
    endloop
  endfacet
  facet normal 0 0 1
    outer loop
      vertex 0.420753 0.603765 0.25
      vertex 0.431381 0.502638 0.25
      vertex 0.431381 0.579892 0.25
    endloop
  endfacet
  facet normal 0 0 1
    outer loop
      vertex 0.405393 0.624907 0.25
      vertex 0.431381 0.502638 0.25
      vertex 0.420753 0.603765 0.25
    endloop
  endfacet
  facet normal 0 0 1
    outer loop
      vertex 0.385973 0.642392 0.25
      vertex 0.431381 0.502638 0.25
      vertex 0.405393 0.624907 0.25
    endloop
  endfacet
  facet normal 0 0 1
    outer loop
      vertex 0.363341 0.655458 0.25
      vertex 0.431381 0.502638 0.25
      vertex 0.385973 0.642392 0.25
    endloop
  endfacet
  facet normal -0 0 1
    outer loop
      vertex 0.219606 0.624907 0.25
      vertex 0.431381 0.502638 0.25
      vertex 0.363341 0.655458 0.25
    endloop
  endfacet
  facet normal 0 0 1
    outer loop
      vertex 0.431381 0.502638 0.25
      vertex 0.219606 0.624907 0.25
      vertex 0.362237 0.338511 0.25
    endloop
  endfacet
  facet normal 0 0 1
    outer loop
      vertex 0.219606 0.624907 0.25
      vertex 0.363341 0.655458 0.25
      vertex 0.338489 0.663534 0.25
    endloop
  endfacet
  facet normal 0 0 1
    outer loop
      vertex 0.743881 0.0386267 0.25
      vertex 0.749314 -0.0130653 0.25
      vertex 0.749314 0.0130653 0.25
    endloop
  endfacet
  facet normal 0 0 1
    outer loop
      vertex 0.743881 0.0386267 0.25
      vertex 0.743881 -0.0386267 0.25
      vertex 0.749314 -0.0130653 0.25
    endloop
  endfacet
  facet normal 0 0 1
    outer loop
      vertex 0.733253 0.062499 0.25
      vertex 0.743881 -0.0386267 0.25
      vertex 0.743881 0.0386267 0.25
    endloop
  endfacet
  facet normal 0 0 1
    outer loop
      vertex 0.733253 0.062499 0.25
      vertex 0.733253 -0.0625 0.25
      vertex 0.743881 -0.0386267 0.25
    endloop
  endfacet
  facet normal 0 0 1
    outer loop
      vertex 0.717893 0.0836411 0.25
      vertex 0.733253 -0.0625 0.25
      vertex 0.733253 0.062499 0.25
    endloop
  endfacet
  facet normal 0 0 1
    outer loop
      vertex 0.717893 0.0836411 0.25
      vertex 0.717893 -0.0836411 0.25
      vertex 0.733253 -0.0625 0.25
    endloop
  endfacet
  facet normal 0 0 1
    outer loop
      vertex 0.698473 0.101127 0.25
      vertex 0.717893 -0.0836411 0.25
      vertex 0.717893 0.0836411 0.25
    endloop
  endfacet
  facet normal 0 0 1
    outer loop
      vertex 0.698473 0.101127 0.25
      vertex 0.698473 -0.101127 0.25
      vertex 0.717893 -0.0836411 0.25
    endloop
  endfacet
  facet normal 0 0 1
    outer loop
      vertex 0.675841 0.114193 0.25
      vertex 0.698473 -0.101127 0.25
      vertex 0.698473 0.101127 0.25
    endloop
  endfacet
  facet normal 0 0 1
    outer loop
      vertex 0.675841 0.114193 0.25
      vertex 0.675841 -0.114193 0.25
      vertex 0.698473 -0.101127 0.25
    endloop
  endfacet
  facet normal 0 0 1
    outer loop
      vertex 0.650989 0.122268 0.25
      vertex 0.675841 -0.114193 0.25
      vertex 0.675841 0.114193 0.25
    endloop
  endfacet
  facet normal 0 0 1
    outer loop
      vertex 0.650989 0.122268 0.25
      vertex 0.650989 -0.122268 0.25
      vertex 0.675841 -0.114193 0.25
    endloop
  endfacet
  facet normal 0 0 1
    outer loop
      vertex 0.474278 0.14445 0.25
      vertex 0.650989 -0.122268 0.25
      vertex 0.650989 0.122268 0.25
    endloop
  endfacet
  facet normal 0 0 1
    outer loop
      vertex 0.474278 0.14445 0.25
      vertex 0.474278 -0.14445 0.25
      vertex 0.650989 -0.122268 0.25
    endloop
  endfacet
  facet normal 0 0 1
    outer loop
      vertex 0.362237 0.338511 0.25
      vertex 0.474278 -0.14445 0.25
      vertex 0.474278 0.14445 0.25
    endloop
  endfacet
  facet normal 0 0 1
    outer loop
      vertex 0.474278 -0.14445 0.25
      vertex 0.362237 0.338511 0.25
      vertex 0.362237 -0.338511 0.25
    endloop
  endfacet
  facet normal 0 0 1
    outer loop
      vertex 0.431381 -0.502638 0.25
      vertex 0.436814 -0.554332 0.25
      vertex 0.436814 -0.528199 0.25
    endloop
  endfacet
  facet normal 0 0 1
    outer loop
      vertex 0.431381 -0.502638 0.25
      vertex 0.431381 -0.579892 0.25
      vertex 0.436814 -0.554332 0.25
    endloop
  endfacet
  facet normal 0 0 1
    outer loop
      vertex 0.431381 -0.502638 0.25
      vertex 0.420753 -0.603765 0.25
      vertex 0.431381 -0.579892 0.25
    endloop
  endfacet
  facet normal 0 0 1
    outer loop
      vertex 0.431381 -0.502638 0.25
      vertex 0.405393 -0.624907 0.25
      vertex 0.420753 -0.603765 0.25
    endloop
  endfacet
  facet normal 0 0 1
    outer loop
      vertex 0.431381 -0.502638 0.25
      vertex 0.385973 -0.642392 0.25
      vertex 0.405393 -0.624907 0.25
    endloop
  endfacet
  facet normal 0 0 1
    outer loop
      vertex 0.431381 -0.502638 0.25
      vertex 0.363341 -0.655458 0.25
      vertex 0.385973 -0.642392 0.25
    endloop
  endfacet
  facet normal 0 0 1
    outer loop
      vertex 0.219606 -0.624907 0.25
      vertex 0.431381 -0.502638 0.25
      vertex 0.362237 -0.338511 0.25
    endloop
  endfacet
  facet normal 0 0 1
    outer loop
      vertex 0.362237 0.338511 0.25
      vertex 0.112041 0.482963 0.25
      vertex 0.362237 -0.338511 0.25
    endloop
  endfacet
  facet normal 0 0 1
    outer loop
      vertex 0.112041 -0.482963 0.25
      vertex 0.362237 -0.338511 0.25
      vertex 0.112041 0.482963 0.25
    endloop
  endfacet
  facet normal 0 0 1
    outer loop
      vertex 0.219606 0.624907 0.25
      vertex 0.338489 0.663534 0.25
      vertex 0.3125 0.666265 0.25
    endloop
  endfacet
  facet normal 0 -0 1
    outer loop
      vertex 0.219606 -0.624907 0.25
      vertex 0.362237 -0.338511 0.25
      vertex 0.112041 -0.482963 0.25
    endloop
  endfacet
  facet normal 0 0 1
    outer loop
      vertex 0.219606 0.624907 0.25
      vertex 0.3125 0.666265 0.25
      vertex 0.28651 0.663534 0.25
    endloop
  endfacet
  facet normal 0 0 1
    outer loop
      vertex 0.431381 -0.502638 0.25
      vertex 0.219606 -0.624907 0.25
      vertex 0.363341 -0.655458 0.25
    endloop
  endfacet
  facet normal 0 0 1
    outer loop
      vertex 0.219606 0.624907 0.25
      vertex 0.28651 0.663534 0.25
      vertex 0.261658 0.655458 0.25
    endloop
  endfacet
  facet normal 0 0 1
    outer loop
      vertex 0.363341 -0.655458 0.25
      vertex 0.219606 -0.624907 0.25
      vertex 0.338489 -0.663534 0.25
    endloop
  endfacet
  facet normal 0 0 1
    outer loop
      vertex 0.219606 0.624907 0.25
      vertex 0.261658 0.655458 0.25
      vertex 0.239026 0.642392 0.25
    endloop
  endfacet
  facet normal 0 0 1
    outer loop
      vertex 0.338489 -0.663534 0.25
      vertex 0.219606 -0.624907 0.25
      vertex 0.312499 -0.666265 0.25
    endloop
  endfacet
  facet normal 0 0 1
    outer loop
      vertex 0.362237 0.338511 0.25
      vertex 0.219606 0.624907 0.25
      vertex 0.112041 0.482963 0.25
    endloop
  endfacet
  facet normal 0 0 1
    outer loop
      vertex 0.312499 -0.666265 0.25
      vertex 0.219606 -0.624907 0.25
      vertex 0.28651 -0.663534 0.25
    endloop
  endfacet
  facet normal 0 0 1
    outer loop
      vertex 0.28651 -0.663534 0.25
      vertex 0.219606 -0.624907 0.25
      vertex 0.261658 -0.655458 0.25
    endloop
  endfacet
  facet normal 0 0 1
    outer loop
      vertex 0.261658 -0.655458 0.25
      vertex 0.219606 -0.624907 0.25
      vertex 0.239026 -0.642392 0.25
    endloop
  endfacet
  facet normal -0 0 1
    outer loop
      vertex -0.112041 0.482963 0.25
      vertex 0.112041 -0.482963 0.25
      vertex 0.112041 0.482963 0.25
    endloop
  endfacet
  facet normal 0 0 1
    outer loop
      vertex -0.112041 0.482963 0.25
      vertex -0.112041 -0.482963 0.25
      vertex 0.112041 -0.482963 0.25
    endloop
  endfacet
  facet normal 0 0 1
    outer loop
      vertex -0.362237 0.338511 0.25
      vertex -0.112041 0.482963 0.25
      vertex -0.219606 0.624907 0.25
    endloop
  endfacet
  facet normal 0 0 1
    outer loop
      vertex -0.112041 0.482963 0.25
      vertex -0.362237 0.338511 0.25
      vertex -0.112041 -0.482963 0.25
    endloop
  endfacet
  facet normal 0 0 1
    outer loop
      vertex -0.431381 0.502638 0.25
      vertex -0.219606 0.624907 0.25
      vertex -0.239026 0.642392 0.25
    endloop
  endfacet
  facet normal -0 0 1
    outer loop
      vertex -0.362237 -0.338511 0.25
      vertex -0.112041 -0.482963 0.25
      vertex -0.362237 0.338511 0.25
    endloop
  endfacet
  facet normal 0 0 1
    outer loop
      vertex -0.431381 0.502638 0.25
      vertex -0.239026 0.642392 0.25
      vertex -0.261658 0.655458 0.25
    endloop
  endfacet
  facet normal 0 0 1
    outer loop
      vertex -0.112041 -0.482963 0.25
      vertex -0.362237 -0.338511 0.25
      vertex -0.219606 -0.624907 0.25
    endloop
  endfacet
  facet normal 0 0 1
    outer loop
      vertex -0.431381 0.502638 0.25
      vertex -0.261658 0.655458 0.25
      vertex -0.28651 0.663534 0.25
    endloop
  endfacet
  facet normal -0 0 1
    outer loop
      vertex -0.431381 -0.502638 0.25
      vertex -0.219606 -0.624907 0.25
      vertex -0.362237 -0.338511 0.25
    endloop
  endfacet
  facet normal 0 0 1
    outer loop
      vertex -0.431381 0.502638 0.25
      vertex -0.28651 0.663534 0.25
      vertex -0.3125 0.666265 0.25
    endloop
  endfacet
  facet normal 0 0 1
    outer loop
      vertex -0.219606 -0.624907 0.25
      vertex -0.431381 -0.502638 0.25
      vertex -0.239026 -0.642392 0.25
    endloop
  endfacet
  facet normal 0 0 1
    outer loop
      vertex -0.431381 0.502638 0.25
      vertex -0.3125 0.666265 0.25
      vertex -0.338489 0.663534 0.25
    endloop
  endfacet
  facet normal 0 0 1
    outer loop
      vertex -0.239026 -0.642392 0.25
      vertex -0.431381 -0.502638 0.25
      vertex -0.261658 -0.655458 0.25
    endloop
  endfacet
  facet normal 0 0 1
    outer loop
      vertex -0.261658 -0.655458 0.25
      vertex -0.431381 -0.502638 0.25
      vertex -0.28651 -0.663534 0.25
    endloop
  endfacet
  facet normal 0 0 1
    outer loop
      vertex -0.431381 0.502638 0.25
      vertex -0.338489 0.663534 0.25
      vertex -0.363341 0.655458 0.25
    endloop
  endfacet
  facet normal 0 0 1
    outer loop
      vertex -0.431381 0.502638 0.25
      vertex -0.363341 0.655458 0.25
      vertex -0.385973 0.642392 0.25
    endloop
  endfacet
  facet normal 0 0 1
    outer loop
      vertex -0.431381 0.502638 0.25
      vertex -0.385973 0.642392 0.25
      vertex -0.405393 0.624907 0.25
    endloop
  endfacet
  facet normal 0 0 1
    outer loop
      vertex -0.431381 0.502638 0.25
      vertex -0.405393 0.624907 0.25
      vertex -0.420753 0.603765 0.25
    endloop
  endfacet
  facet normal 0 0 1
    outer loop
      vertex -0.431381 0.502638 0.25
      vertex -0.420753 0.603765 0.25
      vertex -0.431381 0.579892 0.25
    endloop
  endfacet
  facet normal 0 0 1
    outer loop
      vertex -0.219606 0.624907 0.25
      vertex -0.431381 0.502638 0.25
      vertex -0.362237 0.338511 0.25
    endloop
  endfacet
  facet normal -0 0 1
    outer loop
      vertex -0.436814 0.554332 0.25
      vertex -0.431381 0.502638 0.25
      vertex -0.431381 0.579892 0.25
    endloop
  endfacet
  facet normal 0 0 1
    outer loop
      vertex -0.431381 0.502638 0.25
      vertex -0.436814 0.554332 0.25
      vertex -0.436814 0.528199 0.25
    endloop
  endfacet
  facet normal -0 0 1
    outer loop
      vertex -0.474278 0.14445 0.25
      vertex -0.362237 -0.338511 0.25
      vertex -0.362237 0.338511 0.25
    endloop
  endfacet
  facet normal 0 0 1
    outer loop
      vertex -0.474278 0.14445 0.25
      vertex -0.474278 -0.14445 0.25
      vertex -0.362237 -0.338511 0.25
    endloop
  endfacet
  facet normal -0 0 1
    outer loop
      vertex -0.650989 0.122268 0.25
      vertex -0.474278 -0.14445 0.25
      vertex -0.474278 0.14445 0.25
    endloop
  endfacet
  facet normal 0 0 1
    outer loop
      vertex -0.650989 0.122268 0.25
      vertex -0.650989 -0.122268 0.25
      vertex -0.474278 -0.14445 0.25
    endloop
  endfacet
  facet normal -0 0 1
    outer loop
      vertex -0.675841 0.114193 0.25
      vertex -0.650989 -0.122268 0.25
      vertex -0.650989 0.122268 0.25
    endloop
  endfacet
  facet normal 0 0 1
    outer loop
      vertex -0.675841 0.114193 0.25
      vertex -0.675841 -0.114193 0.25
      vertex -0.650989 -0.122268 0.25
    endloop
  endfacet
  facet normal -0 0 1
    outer loop
      vertex -0.698473 0.101127 0.25
      vertex -0.675841 -0.114193 0.25
      vertex -0.675841 0.114193 0.25
    endloop
  endfacet
  facet normal 0 0 1
    outer loop
      vertex -0.698473 0.101127 0.25
      vertex -0.698473 -0.101127 0.25
      vertex -0.675841 -0.114193 0.25
    endloop
  endfacet
  facet normal -0 0 1
    outer loop
      vertex -0.717893 0.0836411 0.25
      vertex -0.698473 -0.101127 0.25
      vertex -0.698473 0.101127 0.25
    endloop
  endfacet
  facet normal 0 0 1
    outer loop
      vertex -0.717893 0.0836411 0.25
      vertex -0.717893 -0.0836411 0.25
      vertex -0.698473 -0.101127 0.25
    endloop
  endfacet
  facet normal -0 0 1
    outer loop
      vertex -0.733253 0.0625 0.25
      vertex -0.717893 -0.0836411 0.25
      vertex -0.717893 0.0836411 0.25
    endloop
  endfacet
  facet normal 0 0 1
    outer loop
      vertex -0.733253 0.0625 0.25
      vertex -0.733253 -0.062499 0.25
      vertex -0.717893 -0.0836411 0.25
    endloop
  endfacet
  facet normal -0 0 1
    outer loop
      vertex -0.743881 0.0386267 0.25
      vertex -0.733253 -0.062499 0.25
      vertex -0.733253 0.0625 0.25
    endloop
  endfacet
  facet normal 0 0 1
    outer loop
      vertex -0.743881 0.0386267 0.25
      vertex -0.743881 -0.0386267 0.25
      vertex -0.733253 -0.062499 0.25
    endloop
  endfacet
  facet normal -0 0 1
    outer loop
      vertex -0.749314 0.0130653 0.25
      vertex -0.743881 -0.0386267 0.25
      vertex -0.743881 0.0386267 0.25
    endloop
  endfacet
  facet normal 0 0 1
    outer loop
      vertex -0.743881 -0.0386267 0.25
      vertex -0.749314 0.0130653 0.25
      vertex -0.749314 -0.0130653 0.25
    endloop
  endfacet
  facet normal 0 0 1
    outer loop
      vertex -0.28651 -0.663534 0.25
      vertex -0.431381 -0.502638 0.25
      vertex -0.3125 -0.666265 0.25
    endloop
  endfacet
  facet normal 0 0 1
    outer loop
      vertex -0.3125 -0.666265 0.25
      vertex -0.431381 -0.502638 0.25
      vertex -0.338489 -0.663534 0.25
    endloop
  endfacet
  facet normal 0 0 1
    outer loop
      vertex -0.338489 -0.663534 0.25
      vertex -0.431381 -0.502638 0.25
      vertex -0.363341 -0.655458 0.25
    endloop
  endfacet
  facet normal 0 0 1
    outer loop
      vertex -0.363341 -0.655458 0.25
      vertex -0.431381 -0.502638 0.25
      vertex -0.385973 -0.642392 0.25
    endloop
  endfacet
  facet normal 0 0 1
    outer loop
      vertex -0.385973 -0.642392 0.25
      vertex -0.431381 -0.502638 0.25
      vertex -0.405393 -0.624907 0.25
    endloop
  endfacet
  facet normal 0 0 1
    outer loop
      vertex -0.405393 -0.624907 0.25
      vertex -0.431381 -0.502638 0.25
      vertex -0.420753 -0.603765 0.25
    endloop
  endfacet
  facet normal 0 0 1
    outer loop
      vertex -0.431381 -0.502638 0.25
      vertex -0.431381 -0.579892 0.25
      vertex -0.420753 -0.603765 0.25
    endloop
  endfacet
  facet normal -0 0 1
    outer loop
      vertex -0.436814 -0.528199 0.25
      vertex -0.431381 -0.579892 0.25
      vertex -0.431381 -0.502638 0.25
    endloop
  endfacet
  facet normal 0 0 1
    outer loop
      vertex -0.431381 -0.579892 0.25
      vertex -0.436814 -0.528199 0.25
      vertex -0.436814 -0.554332 0.25
    endloop
  endfacet
  facet normal -0.978149 -0.207906 0
    outer loop
      vertex -0.743881 -0.0386267 -0.25
      vertex -0.749314 -0.0130653 0.25
      vertex -0.749314 -0.0130653 -0.25
    endloop
  endfacet
  facet normal -0.978149 -0.207906 0
    outer loop
      vertex -0.749314 -0.0130653 0.25
      vertex -0.743881 -0.0386267 -0.25
      vertex -0.743881 -0.0386267 0.25
    endloop
  endfacet
  facet normal -0.309004 0.951061 0
    outer loop
      vertex -0.650989 0.122268 -0.25
      vertex -0.675841 0.114193 0.25
      vertex -0.650989 0.122268 0.25
    endloop
  endfacet
  facet normal -0.309004 0.951061 0
    outer loop
      vertex -0.675841 0.114193 0.25
      vertex -0.650989 0.122268 -0.25
      vertex -0.675841 0.114193 -0.25
    endloop
  endfacet
  facet normal -0.499997 -0.866027 0
    outer loop
      vertex -0.698473 -0.101127 -0.25
      vertex -0.675841 -0.114193 0.25
      vertex -0.698473 -0.101127 0.25
    endloop
  endfacet
  facet normal -0.499997 -0.866027 -0
    outer loop
      vertex -0.675841 -0.114193 0.25
      vertex -0.698473 -0.101127 -0.25
      vertex -0.675841 -0.114193 -0.25
    endloop
  endfacet
  facet normal 0 0 -1
    outer loop
      vertex 0.431381 -0.579892 -0.25
      vertex 0.436814 -0.528199 -0.25
      vertex 0.436814 -0.554332 -0.25
    endloop
  endfacet
  facet normal 0 0 -1
    outer loop
      vertex 0.431381 -0.579892 -0.25
      vertex 0.431381 -0.502638 -0.25
      vertex 0.436814 -0.528199 -0.25
    endloop
  endfacet
  facet normal 0 0 -1
    outer loop
      vertex 0.420753 -0.603765 -0.25
      vertex 0.431381 -0.502638 -0.25
      vertex 0.431381 -0.579892 -0.25
    endloop
  endfacet
  facet normal 0 0 -1
    outer loop
      vertex 0.405393 -0.624907 -0.25
      vertex 0.431381 -0.502638 -0.25
      vertex 0.420753 -0.603765 -0.25
    endloop
  endfacet
  facet normal 0 0 -1
    outer loop
      vertex 0.385973 -0.642392 -0.25
      vertex 0.431381 -0.502638 -0.25
      vertex 0.405393 -0.624907 -0.25
    endloop
  endfacet
  facet normal 0 0 -1
    outer loop
      vertex 0.363341 -0.655458 -0.25
      vertex 0.431381 -0.502638 -0.25
      vertex 0.385973 -0.642392 -0.25
    endloop
  endfacet
  facet normal 0 0 -1
    outer loop
      vertex 0.219606 -0.624907 -0.25
      vertex 0.431381 -0.502638 -0.25
      vertex 0.363341 -0.655458 -0.25
    endloop
  endfacet
  facet normal -0 0 -1
    outer loop
      vertex 0.431381 -0.502638 -0.25
      vertex 0.219606 -0.624907 -0.25
      vertex 0.362237 -0.338511 -0.25
    endloop
  endfacet
  facet normal 0 0 -1
    outer loop
      vertex 0.219606 -0.624907 -0.25
      vertex 0.363341 -0.655458 -0.25
      vertex 0.338489 -0.663534 -0.25
    endloop
  endfacet
  facet normal 0 0 -1
    outer loop
      vertex 0.743881 -0.0386267 -0.25
      vertex 0.749314 0.0130653 -0.25
      vertex 0.749314 -0.0130653 -0.25
    endloop
  endfacet
  facet normal 0 0 -1
    outer loop
      vertex 0.743881 -0.0386267 -0.25
      vertex 0.743881 0.0386267 -0.25
      vertex 0.749314 0.0130653 -0.25
    endloop
  endfacet
  facet normal 0 0 -1
    outer loop
      vertex 0.733253 -0.0625 -0.25
      vertex 0.743881 0.0386267 -0.25
      vertex 0.743881 -0.0386267 -0.25
    endloop
  endfacet
  facet normal 0 0 -1
    outer loop
      vertex 0.733253 -0.0625 -0.25
      vertex 0.733253 0.062499 -0.25
      vertex 0.743881 0.0386267 -0.25
    endloop
  endfacet
  facet normal 0 0 -1
    outer loop
      vertex 0.717893 -0.0836411 -0.25
      vertex 0.733253 0.062499 -0.25
      vertex 0.733253 -0.0625 -0.25
    endloop
  endfacet
  facet normal 0 0 -1
    outer loop
      vertex 0.717893 -0.0836411 -0.25
      vertex 0.717893 0.0836411 -0.25
      vertex 0.733253 0.062499 -0.25
    endloop
  endfacet
  facet normal 0 0 -1
    outer loop
      vertex 0.698473 -0.101127 -0.25
      vertex 0.717893 0.0836411 -0.25
      vertex 0.717893 -0.0836411 -0.25
    endloop
  endfacet
  facet normal 0 0 -1
    outer loop
      vertex 0.698473 -0.101127 -0.25
      vertex 0.698473 0.101127 -0.25
      vertex 0.717893 0.0836411 -0.25
    endloop
  endfacet
  facet normal 0 0 -1
    outer loop
      vertex 0.675841 -0.114193 -0.25
      vertex 0.698473 0.101127 -0.25
      vertex 0.698473 -0.101127 -0.25
    endloop
  endfacet
  facet normal 0 0 -1
    outer loop
      vertex 0.675841 -0.114193 -0.25
      vertex 0.675841 0.114193 -0.25
      vertex 0.698473 0.101127 -0.25
    endloop
  endfacet
  facet normal 0 0 -1
    outer loop
      vertex 0.650989 -0.122268 -0.25
      vertex 0.675841 0.114193 -0.25
      vertex 0.675841 -0.114193 -0.25
    endloop
  endfacet
  facet normal 0 0 -1
    outer loop
      vertex 0.650989 -0.122268 -0.25
      vertex 0.650989 0.122268 -0.25
      vertex 0.675841 0.114193 -0.25
    endloop
  endfacet
  facet normal 0 0 -1
    outer loop
      vertex 0.474278 -0.14445 -0.25
      vertex 0.650989 0.122268 -0.25
      vertex 0.650989 -0.122268 -0.25
    endloop
  endfacet
  facet normal 0 0 -1
    outer loop
      vertex 0.474278 -0.14445 -0.25
      vertex 0.474278 0.14445 -0.25
      vertex 0.650989 0.122268 -0.25
    endloop
  endfacet
  facet normal 0 0 -1
    outer loop
      vertex 0.362237 -0.338511 -0.25
      vertex 0.474278 0.14445 -0.25
      vertex 0.474278 -0.14445 -0.25
    endloop
  endfacet
  facet normal -0 0 -1
    outer loop
      vertex 0.474278 0.14445 -0.25
      vertex 0.362237 -0.338511 -0.25
      vertex 0.362237 0.338511 -0.25
    endloop
  endfacet
  facet normal 0 0 -1
    outer loop
      vertex 0.431381 0.502638 -0.25
      vertex 0.436814 0.554332 -0.25
      vertex 0.436814 0.528199 -0.25
    endloop
  endfacet
  facet normal 0 0 -1
    outer loop
      vertex 0.431381 0.502638 -0.25
      vertex 0.431381 0.579892 -0.25
      vertex 0.436814 0.554332 -0.25
    endloop
  endfacet
  facet normal 0 0 -1
    outer loop
      vertex 0.431381 0.502638 -0.25
      vertex 0.420753 0.603765 -0.25
      vertex 0.431381 0.579892 -0.25
    endloop
  endfacet
  facet normal 0 0 -1
    outer loop
      vertex 0.431381 0.502638 -0.25
      vertex 0.405393 0.624907 -0.25
      vertex 0.420753 0.603765 -0.25
    endloop
  endfacet
  facet normal 0 0 -1
    outer loop
      vertex 0.431381 0.502638 -0.25
      vertex 0.385973 0.642392 -0.25
      vertex 0.405393 0.624907 -0.25
    endloop
  endfacet
  facet normal 0 0 -1
    outer loop
      vertex 0.431381 0.502638 -0.25
      vertex 0.363341 0.655458 -0.25
      vertex 0.385973 0.642392 -0.25
    endloop
  endfacet
  facet normal 0 0 -1
    outer loop
      vertex 0.219606 0.624907 -0.25
      vertex 0.431381 0.502638 -0.25
      vertex 0.362237 0.338511 -0.25
    endloop
  endfacet
  facet normal -0 0 -1
    outer loop
      vertex 0.362237 -0.338511 -0.25
      vertex 0.112041 -0.482963 -0.25
      vertex 0.362237 0.338511 -0.25
    endloop
  endfacet
  facet normal 0 0 -1
    outer loop
      vertex 0.112041 0.482963 -0.25
      vertex 0.362237 0.338511 -0.25
      vertex 0.112041 -0.482963 -0.25
    endloop
  endfacet
  facet normal 0 0 -1
    outer loop
      vertex 0.431381 0.502638 -0.25
      vertex 0.219606 0.624907 -0.25
      vertex 0.363341 0.655458 -0.25
    endloop
  endfacet
  facet normal 0 0 -1
    outer loop
      vertex 0.219606 -0.624907 -0.25
      vertex 0.338489 -0.663534 -0.25
      vertex 0.312499 -0.666265 -0.25
    endloop
  endfacet
  facet normal 0 0 -1
    outer loop
      vertex 0.219606 -0.624907 -0.25
      vertex 0.312499 -0.666265 -0.25
      vertex 0.28651 -0.663534 -0.25
    endloop
  endfacet
  facet normal 0 -0 -1
    outer loop
      vertex 0.219606 0.624907 -0.25
      vertex 0.362237 0.338511 -0.25
      vertex 0.112041 0.482963 -0.25
    endloop
  endfacet
  facet normal 0 0 -1
    outer loop
      vertex 0.219606 -0.624907 -0.25
      vertex 0.28651 -0.663534 -0.25
      vertex 0.261658 -0.655458 -0.25
    endloop
  endfacet
  facet normal -0 0 -1
    outer loop
      vertex 0.363341 0.655458 -0.25
      vertex 0.219606 0.624907 -0.25
      vertex 0.338489 0.663534 -0.25
    endloop
  endfacet
  facet normal 0 0 -1
    outer loop
      vertex 0.219606 -0.624907 -0.25
      vertex 0.261658 -0.655458 -0.25
      vertex 0.239026 -0.642392 -0.25
    endloop
  endfacet
  facet normal -0 0 -1
    outer loop
      vertex 0.338489 0.663534 -0.25
      vertex 0.219606 0.624907 -0.25
      vertex 0.3125 0.666265 -0.25
    endloop
  endfacet
  facet normal 0 0 -1
    outer loop
      vertex 0.362237 -0.338511 -0.25
      vertex 0.219606 -0.624907 -0.25
      vertex 0.112041 -0.482963 -0.25
    endloop
  endfacet
  facet normal 0 0 -1
    outer loop
      vertex 0.3125 0.666265 -0.25
      vertex 0.219606 0.624907 -0.25
      vertex 0.28651 0.663534 -0.25
    endloop
  endfacet
  facet normal 0 0 -1
    outer loop
      vertex 0.28651 0.663534 -0.25
      vertex 0.219606 0.624907 -0.25
      vertex 0.261658 0.655458 -0.25
    endloop
  endfacet
  facet normal 0 0 -1
    outer loop
      vertex 0.261658 0.655458 -0.25
      vertex 0.219606 0.624907 -0.25
      vertex 0.239026 0.642392 -0.25
    endloop
  endfacet
  facet normal 0 0 -1
    outer loop
      vertex -0.112041 -0.482963 -0.25
      vertex 0.112041 0.482963 -0.25
      vertex 0.112041 -0.482963 -0.25
    endloop
  endfacet
  facet normal 0 0 -1
    outer loop
      vertex -0.112041 -0.482963 -0.25
      vertex -0.112041 0.482963 -0.25
      vertex 0.112041 0.482963 -0.25
    endloop
  endfacet
  facet normal 0 0 -1
    outer loop
      vertex -0.362237 -0.338511 -0.25
      vertex -0.112041 -0.482963 -0.25
      vertex -0.219606 -0.624907 -0.25
    endloop
  endfacet
  facet normal 0 0 -1
    outer loop
      vertex -0.112041 -0.482963 -0.25
      vertex -0.362237 -0.338511 -0.25
      vertex -0.112041 0.482963 -0.25
    endloop
  endfacet
  facet normal 0 0 -1
    outer loop
      vertex -0.431381 -0.502638 -0.25
      vertex -0.219606 -0.624907 -0.25
      vertex -0.239026 -0.642392 -0.25
    endloop
  endfacet
  facet normal 0 0 -1
    outer loop
      vertex -0.362237 0.338511 -0.25
      vertex -0.112041 0.482963 -0.25
      vertex -0.362237 -0.338511 -0.25
    endloop
  endfacet
  facet normal 0 0 -1
    outer loop
      vertex -0.431381 -0.502638 -0.25
      vertex -0.239026 -0.642392 -0.25
      vertex -0.261658 -0.655458 -0.25
    endloop
  endfacet
  facet normal -0 0 -1
    outer loop
      vertex -0.112041 0.482963 -0.25
      vertex -0.362237 0.338511 -0.25
      vertex -0.219606 0.624907 -0.25
    endloop
  endfacet
  facet normal 0 0 -1
    outer loop
      vertex -0.431381 -0.502638 -0.25
      vertex -0.261658 -0.655458 -0.25
      vertex -0.28651 -0.663534 -0.25
    endloop
  endfacet
  facet normal 0 0 -1
    outer loop
      vertex -0.431381 0.502638 -0.25
      vertex -0.219606 0.624907 -0.25
      vertex -0.362237 0.338511 -0.25
    endloop
  endfacet
  facet normal 0 0 -1
    outer loop
      vertex -0.431381 -0.502638 -0.25
      vertex -0.28651 -0.663534 -0.25
      vertex -0.3125 -0.666265 -0.25
    endloop
  endfacet
  facet normal -0 0 -1
    outer loop
      vertex -0.219606 0.624907 -0.25
      vertex -0.431381 0.502638 -0.25
      vertex -0.239026 0.642392 -0.25
    endloop
  endfacet
  facet normal 0 0 -1
    outer loop
      vertex -0.431381 -0.502638 -0.25
      vertex -0.3125 -0.666265 -0.25
      vertex -0.338489 -0.663534 -0.25
    endloop
  endfacet
  facet normal -0 0 -1
    outer loop
      vertex -0.239026 0.642392 -0.25
      vertex -0.431381 0.502638 -0.25
      vertex -0.261658 0.655458 -0.25
    endloop
  endfacet
  facet normal -0 0 -1
    outer loop
      vertex -0.261658 0.655458 -0.25
      vertex -0.431381 0.502638 -0.25
      vertex -0.28651 0.663534 -0.25
    endloop
  endfacet
  facet normal 0 0 -1
    outer loop
      vertex -0.431381 -0.502638 -0.25
      vertex -0.338489 -0.663534 -0.25
      vertex -0.363341 -0.655458 -0.25
    endloop
  endfacet
  facet normal 0 0 -1
    outer loop
      vertex -0.431381 -0.502638 -0.25
      vertex -0.363341 -0.655458 -0.25
      vertex -0.385973 -0.642392 -0.25
    endloop
  endfacet
  facet normal 0 0 -1
    outer loop
      vertex -0.431381 -0.502638 -0.25
      vertex -0.385973 -0.642392 -0.25
      vertex -0.405393 -0.624907 -0.25
    endloop
  endfacet
  facet normal 0 0 -1
    outer loop
      vertex -0.431381 -0.502638 -0.25
      vertex -0.405393 -0.624907 -0.25
      vertex -0.420753 -0.603765 -0.25
    endloop
  endfacet
  facet normal 0 0 -1
    outer loop
      vertex -0.431381 -0.502638 -0.25
      vertex -0.420753 -0.603765 -0.25
      vertex -0.431381 -0.579892 -0.25
    endloop
  endfacet
  facet normal 0 0 -1
    outer loop
      vertex -0.219606 -0.624907 -0.25
      vertex -0.431381 -0.502638 -0.25
      vertex -0.362237 -0.338511 -0.25
    endloop
  endfacet
  facet normal 0 0 -1
    outer loop
      vertex -0.436814 -0.554332 -0.25
      vertex -0.431381 -0.502638 -0.25
      vertex -0.431381 -0.579892 -0.25
    endloop
  endfacet
  facet normal 0 0 -1
    outer loop
      vertex -0.431381 -0.502638 -0.25
      vertex -0.436814 -0.554332 -0.25
      vertex -0.436814 -0.528199 -0.25
    endloop
  endfacet
  facet normal 0 0 -1
    outer loop
      vertex -0.474278 -0.14445 -0.25
      vertex -0.362237 0.338511 -0.25
      vertex -0.362237 -0.338511 -0.25
    endloop
  endfacet
  facet normal 0 0 -1
    outer loop
      vertex -0.474278 -0.14445 -0.25
      vertex -0.474278 0.14445 -0.25
      vertex -0.362237 0.338511 -0.25
    endloop
  endfacet
  facet normal 0 0 -1
    outer loop
      vertex -0.650989 -0.122268 -0.25
      vertex -0.474278 0.14445 -0.25
      vertex -0.474278 -0.14445 -0.25
    endloop
  endfacet
  facet normal 0 0 -1
    outer loop
      vertex -0.650989 -0.122268 -0.25
      vertex -0.650989 0.122268 -0.25
      vertex -0.474278 0.14445 -0.25
    endloop
  endfacet
  facet normal 0 0 -1
    outer loop
      vertex -0.675841 -0.114193 -0.25
      vertex -0.650989 0.122268 -0.25
      vertex -0.650989 -0.122268 -0.25
    endloop
  endfacet
  facet normal 0 0 -1
    outer loop
      vertex -0.675841 -0.114193 -0.25
      vertex -0.675841 0.114193 -0.25
      vertex -0.650989 0.122268 -0.25
    endloop
  endfacet
  facet normal 0 0 -1
    outer loop
      vertex -0.698473 -0.101127 -0.25
      vertex -0.675841 0.114193 -0.25
      vertex -0.675841 -0.114193 -0.25
    endloop
  endfacet
  facet normal 0 0 -1
    outer loop
      vertex -0.698473 -0.101127 -0.25
      vertex -0.698473 0.101127 -0.25
      vertex -0.675841 0.114193 -0.25
    endloop
  endfacet
  facet normal 0 0 -1
    outer loop
      vertex -0.717893 -0.0836411 -0.25
      vertex -0.698473 0.101127 -0.25
      vertex -0.698473 -0.101127 -0.25
    endloop
  endfacet
  facet normal 0 0 -1
    outer loop
      vertex -0.717893 -0.0836411 -0.25
      vertex -0.717893 0.0836411 -0.25
      vertex -0.698473 0.101127 -0.25
    endloop
  endfacet
  facet normal 0 0 -1
    outer loop
      vertex -0.733253 -0.062499 -0.25
      vertex -0.717893 0.0836411 -0.25
      vertex -0.717893 -0.0836411 -0.25
    endloop
  endfacet
  facet normal 0 0 -1
    outer loop
      vertex -0.733253 -0.062499 -0.25
      vertex -0.733253 0.0625 -0.25
      vertex -0.717893 0.0836411 -0.25
    endloop
  endfacet
  facet normal 0 0 -1
    outer loop
      vertex -0.743881 -0.0386267 -0.25
      vertex -0.733253 0.0625 -0.25
      vertex -0.733253 -0.062499 -0.25
    endloop
  endfacet
  facet normal 0 0 -1
    outer loop
      vertex -0.743881 -0.0386267 -0.25
      vertex -0.743881 0.0386267 -0.25
      vertex -0.733253 0.0625 -0.25
    endloop
  endfacet
  facet normal 0 0 -1
    outer loop
      vertex -0.749314 -0.0130653 -0.25
      vertex -0.743881 0.0386267 -0.25
      vertex -0.743881 -0.0386267 -0.25
    endloop
  endfacet
  facet normal 0 0 -1
    outer loop
      vertex -0.743881 0.0386267 -0.25
      vertex -0.749314 -0.0130653 -0.25
      vertex -0.749314 0.0130653 -0.25
    endloop
  endfacet
  facet normal -0 0 -1
    outer loop
      vertex -0.28651 0.663534 -0.25
      vertex -0.431381 0.502638 -0.25
      vertex -0.3125 0.666265 -0.25
    endloop
  endfacet
  facet normal 0 0 -1
    outer loop
      vertex -0.3125 0.666265 -0.25
      vertex -0.431381 0.502638 -0.25
      vertex -0.338489 0.663534 -0.25
    endloop
  endfacet
  facet normal 0 0 -1
    outer loop
      vertex -0.338489 0.663534 -0.25
      vertex -0.431381 0.502638 -0.25
      vertex -0.363341 0.655458 -0.25
    endloop
  endfacet
  facet normal 0 0 -1
    outer loop
      vertex -0.363341 0.655458 -0.25
      vertex -0.431381 0.502638 -0.25
      vertex -0.385973 0.642392 -0.25
    endloop
  endfacet
  facet normal 0 0 -1
    outer loop
      vertex -0.385973 0.642392 -0.25
      vertex -0.431381 0.502638 -0.25
      vertex -0.405393 0.624907 -0.25
    endloop
  endfacet
  facet normal 0 0 -1
    outer loop
      vertex -0.405393 0.624907 -0.25
      vertex -0.431381 0.502638 -0.25
      vertex -0.420753 0.603765 -0.25
    endloop
  endfacet
  facet normal 0 0 -1
    outer loop
      vertex -0.431381 0.502638 -0.25
      vertex -0.431381 0.579892 -0.25
      vertex -0.420753 0.603765 -0.25
    endloop
  endfacet
  facet normal 0 0 -1
    outer loop
      vertex -0.436814 0.528199 -0.25
      vertex -0.431381 0.579892 -0.25
      vertex -0.431381 0.502638 -0.25
    endloop
  endfacet
  facet normal 0 0 -1
    outer loop
      vertex -0.431381 0.579892 -0.25
      vertex -0.436814 0.528199 -0.25
      vertex -0.436814 0.554332 -0.25
    endloop
  endfacet
  facet normal -1 0 0
    outer loop
      vertex -0.749314 -0.0130653 -0.25
      vertex -0.749314 0.0130653 0.25
      vertex -0.749314 0.0130653 -0.25
    endloop
  endfacet
  facet normal -1 -0 0
    outer loop
      vertex -0.749314 0.0130653 0.25
      vertex -0.749314 -0.0130653 -0.25
      vertex -0.749314 -0.0130653 0.25
    endloop
  endfacet
  facet normal -0.978149 0.207906 0
    outer loop
      vertex -0.749314 0.0130653 -0.25
      vertex -0.743881 0.0386267 0.25
      vertex -0.743881 0.0386267 -0.25
    endloop
  endfacet
  facet normal -0.978149 0.207906 0
    outer loop
      vertex -0.743881 0.0386267 0.25
      vertex -0.749314 0.0130653 -0.25
      vertex -0.749314 0.0130653 0.25
    endloop
  endfacet
  facet normal -0.913545 -0.406738 0
    outer loop
      vertex -0.733253 -0.062499 -0.25
      vertex -0.743881 -0.0386267 0.25
      vertex -0.743881 -0.0386267 -0.25
    endloop
  endfacet
  facet normal -0.913545 -0.406738 0
    outer loop
      vertex -0.743881 -0.0386267 0.25
      vertex -0.733253 -0.062499 -0.25
      vertex -0.733253 -0.062499 0.25
    endloop
  endfacet
  facet normal -0.80903 -0.587768 0
    outer loop
      vertex -0.717893 -0.0836411 -0.25
      vertex -0.733253 -0.062499 0.25
      vertex -0.733253 -0.062499 -0.25
    endloop
  endfacet
  facet normal -0.80903 -0.587768 0
    outer loop
      vertex -0.733253 -0.062499 0.25
      vertex -0.717893 -0.0836411 -0.25
      vertex -0.717893 -0.0836411 0.25
    endloop
  endfacet
  facet normal -0.669132 0.743144 0
    outer loop
      vertex -0.698473 0.101127 -0.25
      vertex -0.717893 0.0836411 0.25
      vertex -0.698473 0.101127 0.25
    endloop
  endfacet
  facet normal -0.669132 0.743144 0
    outer loop
      vertex -0.717893 0.0836411 0.25
      vertex -0.698473 0.101127 -0.25
      vertex -0.717893 0.0836411 -0.25
    endloop
  endfacet
  facet normal -0.809017 0.587785 0
    outer loop
      vertex -0.733253 0.0625 -0.25
      vertex -0.717893 0.0836411 0.25
      vertex -0.717893 0.0836411 -0.25
    endloop
  endfacet
  facet normal -0.809017 0.587785 0
    outer loop
      vertex -0.717893 0.0836411 0.25
      vertex -0.733253 0.0625 -0.25
      vertex -0.733253 0.0625 0.25
    endloop
  endfacet
  facet normal -0.309004 -0.951061 0
    outer loop
      vertex -0.675841 -0.114193 -0.25
      vertex -0.650989 -0.122268 0.25
      vertex -0.675841 -0.114193 0.25
    endloop
  endfacet
  facet normal -0.309004 -0.951061 -0
    outer loop
      vertex -0.650989 -0.122268 0.25
      vertex -0.675841 -0.114193 -0.25
      vertex -0.650989 -0.122268 -0.25
    endloop
  endfacet
  facet normal -0.124554 -0.992213 0
    outer loop
      vertex -0.650989 -0.122268 -0.25
      vertex -0.474278 -0.14445 0.25
      vertex -0.650989 -0.122268 0.25
    endloop
  endfacet
  facet normal -0.124554 -0.992213 -0
    outer loop
      vertex -0.474278 -0.14445 0.25
      vertex -0.650989 -0.122268 -0.25
      vertex -0.474278 -0.14445 -0.25
    endloop
  endfacet
  facet normal -0.921559 0.388238 0
    outer loop
      vertex -0.431381 -0.502638 -0.25
      vertex -0.362237 -0.338511 0.25
      vertex -0.362237 -0.338511 -0.25
    endloop
  endfacet
  facet normal -0.921559 0.388238 0
    outer loop
      vertex -0.362237 -0.338511 0.25
      vertex -0.431381 -0.502638 -0.25
      vertex -0.431381 -0.502638 0.25
    endloop
  endfacet
  facet normal -0.809017 -0.587785 0
    outer loop
      vertex -0.405393 -0.624907 -0.25
      vertex -0.420753 -0.603765 0.25
      vertex -0.420753 -0.603765 -0.25
    endloop
  endfacet
  facet normal -0.809017 -0.587785 0
    outer loop
      vertex -0.420753 -0.603765 0.25
      vertex -0.405393 -0.624907 -0.25
      vertex -0.405393 -0.624907 0.25
    endloop
  endfacet
  facet normal -1 0 0
    outer loop
      vertex -0.436814 -0.554332 -0.25
      vertex -0.436814 -0.528199 0.25
      vertex -0.436814 -0.528199 -0.25
    endloop
  endfacet
  facet normal -1 -0 0
    outer loop
      vertex -0.436814 -0.528199 0.25
      vertex -0.436814 -0.554332 -0.25
      vertex -0.436814 -0.554332 0.25
    endloop
  endfacet
  facet normal -0.309037 -0.95105 0
    outer loop
      vertex -0.363341 -0.655458 -0.25
      vertex -0.338489 -0.663534 0.25
      vertex -0.363341 -0.655458 0.25
    endloop
  endfacet
  facet normal -0.309037 -0.95105 -0
    outer loop
      vertex -0.338489 -0.663534 0.25
      vertex -0.363341 -0.655458 -0.25
      vertex -0.338489 -0.663534 -0.25
    endloop
  endfacet
  facet normal -0.669132 -0.743144 0
    outer loop
      vertex -0.405393 -0.624907 -0.25
      vertex -0.385973 -0.642392 0.25
      vertex -0.405393 -0.624907 0.25
    endloop
  endfacet
  facet normal -0.669132 -0.743144 -0
    outer loop
      vertex -0.385973 -0.642392 0.25
      vertex -0.405393 -0.624907 -0.25
      vertex -0.385973 -0.642392 -0.25
    endloop
  endfacet
  facet normal -0.978149 0.207906 0
    outer loop
      vertex -0.436814 -0.528199 -0.25
      vertex -0.431381 -0.502638 0.25
      vertex -0.431381 -0.502638 -0.25
    endloop
  endfacet
  facet normal -0.978149 0.207906 0
    outer loop
      vertex -0.431381 -0.502638 0.25
      vertex -0.436814 -0.528199 -0.25
      vertex -0.436814 -0.528199 0.25
    endloop
  endfacet
  facet normal 0.499997 -0.866027 0
    outer loop
      vertex -0.261658 -0.655458 -0.25
      vertex -0.239026 -0.642392 0.25
      vertex -0.261658 -0.655458 0.25
    endloop
  endfacet
  facet normal 0.499997 -0.866027 0
    outer loop
      vertex -0.239026 -0.642392 0.25
      vertex -0.261658 -0.655458 -0.25
      vertex -0.239026 -0.642392 -0.25
    endloop
  endfacet
  facet normal -0.499997 -0.866027 0
    outer loop
      vertex -0.385973 -0.642392 -0.25
      vertex -0.363341 -0.655458 0.25
      vertex -0.385973 -0.642392 0.25
    endloop
  endfacet
  facet normal -0.499997 -0.866027 -0
    outer loop
      vertex -0.363341 -0.655458 0.25
      vertex -0.385973 -0.642392 -0.25
      vertex -0.363341 -0.655458 -0.25
    endloop
  endfacet
  facet normal -0.104521 -0.994523 0
    outer loop
      vertex -0.338489 -0.663534 -0.25
      vertex -0.3125 -0.666265 0.25
      vertex -0.338489 -0.663534 0.25
    endloop
  endfacet
  facet normal -0.104521 -0.994523 -0
    outer loop
      vertex -0.3125 -0.666265 0.25
      vertex -0.338489 -0.663534 -0.25
      vertex -0.3125 -0.666265 -0.25
    endloop
  endfacet
  facet normal 0.309037 -0.95105 0
    outer loop
      vertex -0.28651 -0.663534 -0.25
      vertex -0.261658 -0.655458 0.25
      vertex -0.28651 -0.663534 0.25
    endloop
  endfacet
  facet normal 0.309037 -0.95105 0
    outer loop
      vertex -0.261658 -0.655458 0.25
      vertex -0.28651 -0.663534 -0.25
      vertex -0.261658 -0.655458 -0.25
    endloop
  endfacet
  facet normal -0.978147 -0.207914 0
    outer loop
      vertex -0.431381 -0.579892 -0.25
      vertex -0.436814 -0.554332 0.25
      vertex -0.436814 -0.554332 -0.25
    endloop
  endfacet
  facet normal -0.978147 -0.207914 0
    outer loop
      vertex -0.436814 -0.554332 0.25
      vertex -0.431381 -0.579892 -0.25
      vertex -0.431381 -0.579892 0.25
    endloop
  endfacet
  facet normal -0.913551 -0.406724 0
    outer loop
      vertex -0.420753 -0.603765 -0.25
      vertex -0.431381 -0.579892 0.25
      vertex -0.431381 -0.579892 -0.25
    endloop
  endfacet
  facet normal -0.913551 -0.406724 0
    outer loop
      vertex -0.431381 -0.579892 0.25
      vertex -0.420753 -0.603765 -0.25
      vertex -0.420753 -0.603765 0.25
    endloop
  endfacet
  facet normal 0.669132 -0.743144 0
    outer loop
      vertex -0.239026 -0.642392 -0.25
      vertex -0.219606 -0.624907 0.25
      vertex -0.239026 -0.642392 0.25
    endloop
  endfacet
  facet normal 0.669132 -0.743144 0
    outer loop
      vertex -0.219606 -0.624907 0.25
      vertex -0.239026 -0.642392 -0.25
      vertex -0.219606 -0.624907 -0.25
    endloop
  endfacet
  facet normal 0.797005 -0.603972 0
    outer loop
      vertex -0.219606 -0.624907 0.25
      vertex -0.112041 -0.482963 -0.25
      vertex -0.112041 -0.482963 0.25
    endloop
  endfacet
  facet normal 0.797005 -0.603972 0
    outer loop
      vertex -0.112041 -0.482963 -0.25
      vertex -0.219606 -0.624907 0.25
      vertex -0.219606 -0.624907 -0.25
    endloop
  endfacet
  facet normal 0.104518 -0.994523 0
    outer loop
      vertex -0.3125 -0.666265 -0.25
      vertex -0.28651 -0.663534 0.25
      vertex -0.3125 -0.666265 0.25
    endloop
  endfacet
  facet normal 0.104518 -0.994523 0
    outer loop
      vertex -0.28651 -0.663534 0.25
      vertex -0.3125 -0.666265 -0.25
      vertex -0.28651 -0.663534 -0.25
    endloop
  endfacet
  facet normal -0.797005 -0.603972 0
    outer loop
      vertex 0.219606 -0.624907 -0.25
      vertex 0.112041 -0.482963 0.25
      vertex 0.112041 -0.482963 -0.25
    endloop
  endfacet
  facet normal -0.797005 -0.603972 0
    outer loop
      vertex 0.112041 -0.482963 0.25
      vertex 0.219606 -0.624907 -0.25
      vertex 0.219606 -0.624907 0.25
    endloop
  endfacet
  facet normal 0.978147 -0.207914 0
    outer loop
      vertex 0.431381 -0.579892 0.25
      vertex 0.436814 -0.554332 -0.25
      vertex 0.436814 -0.554332 0.25
    endloop
  endfacet
  facet normal 0.978147 -0.207914 0
    outer loop
      vertex 0.436814 -0.554332 -0.25
      vertex 0.431381 -0.579892 0.25
      vertex 0.431381 -0.579892 -0.25
    endloop
  endfacet
  facet normal -0.309037 -0.95105 0
    outer loop
      vertex 0.261658 -0.655458 -0.25
      vertex 0.28651 -0.663534 0.25
      vertex 0.261658 -0.655458 0.25
    endloop
  endfacet
  facet normal -0.309037 -0.95105 -0
    outer loop
      vertex 0.28651 -0.663534 0.25
      vertex 0.261658 -0.655458 -0.25
      vertex 0.28651 -0.663534 -0.25
    endloop
  endfacet
  facet normal 0.809017 -0.587785 0
    outer loop
      vertex 0.405393 -0.624907 0.25
      vertex 0.420753 -0.603765 -0.25
      vertex 0.420753 -0.603765 0.25
    endloop
  endfacet
  facet normal 0.809017 -0.587785 0
    outer loop
      vertex 0.420753 -0.603765 -0.25
      vertex 0.405393 -0.624907 0.25
      vertex 0.405393 -0.624907 -0.25
    endloop
  endfacet
  facet normal -0.104521 -0.994523 0
    outer loop
      vertex 0.28651 -0.663534 -0.25
      vertex 0.312499 -0.666265 0.25
      vertex 0.28651 -0.663534 0.25
    endloop
  endfacet
  facet normal -0.104521 -0.994523 -0
    outer loop
      vertex 0.312499 -0.666265 0.25
      vertex 0.28651 -0.663534 -0.25
      vertex 0.312499 -0.666265 -0.25
    endloop
  endfacet
  facet normal -0.669132 -0.743144 0
    outer loop
      vertex 0.219606 -0.624907 -0.25
      vertex 0.239026 -0.642392 0.25
      vertex 0.219606 -0.624907 0.25
    endloop
  endfacet
  facet normal -0.669132 -0.743144 -0
    outer loop
      vertex 0.239026 -0.642392 0.25
      vertex 0.219606 -0.624907 -0.25
      vertex 0.239026 -0.642392 -0.25
    endloop
  endfacet
  facet normal 1 -0 0
    outer loop
      vertex 0.436814 -0.554332 0.25
      vertex 0.436814 -0.528199 -0.25
      vertex 0.436814 -0.528199 0.25
    endloop
  endfacet
  facet normal 1 0 0
    outer loop
      vertex 0.436814 -0.528199 -0.25
      vertex 0.436814 -0.554332 0.25
      vertex 0.436814 -0.554332 -0.25
    endloop
  endfacet
  facet normal 0.309037 -0.95105 0
    outer loop
      vertex 0.338489 -0.663534 -0.25
      vertex 0.363341 -0.655458 0.25
      vertex 0.338489 -0.663534 0.25
    endloop
  endfacet
  facet normal 0.309037 -0.95105 0
    outer loop
      vertex 0.363341 -0.655458 0.25
      vertex 0.338489 -0.663534 -0.25
      vertex 0.363341 -0.655458 -0.25
    endloop
  endfacet
  facet normal 0.669132 -0.743144 0
    outer loop
      vertex 0.385973 -0.642392 -0.25
      vertex 0.405393 -0.624907 0.25
      vertex 0.385973 -0.642392 0.25
    endloop
  endfacet
  facet normal 0.669132 -0.743144 0
    outer loop
      vertex 0.405393 -0.624907 0.25
      vertex 0.385973 -0.642392 -0.25
      vertex 0.405393 -0.624907 -0.25
    endloop
  endfacet
  facet normal 0.913551 -0.406724 0
    outer loop
      vertex 0.420753 -0.603765 0.25
      vertex 0.431381 -0.579892 -0.25
      vertex 0.431381 -0.579892 0.25
    endloop
  endfacet
  facet normal 0.913551 -0.406724 0
    outer loop
      vertex 0.431381 -0.579892 -0.25
      vertex 0.420753 -0.603765 0.25
      vertex 0.420753 -0.603765 -0.25
    endloop
  endfacet
  facet normal 0.104518 -0.994523 0
    outer loop
      vertex 0.312499 -0.666265 -0.25
      vertex 0.338489 -0.663534 0.25
      vertex 0.312499 -0.666265 0.25
    endloop
  endfacet
  facet normal 0.104518 -0.994523 0
    outer loop
      vertex 0.338489 -0.663534 0.25
      vertex 0.312499 -0.666265 -0.25
      vertex 0.338489 -0.663534 -0.25
    endloop
  endfacet
  facet normal -0.499997 -0.866027 0
    outer loop
      vertex 0.239026 -0.642392 -0.25
      vertex 0.261658 -0.655458 0.25
      vertex 0.239026 -0.642392 0.25
    endloop
  endfacet
  facet normal -0.499997 -0.866027 -0
    outer loop
      vertex 0.261658 -0.655458 0.25
      vertex 0.239026 -0.642392 -0.25
      vertex 0.261658 -0.655458 -0.25
    endloop
  endfacet
  facet normal 0.978149 0.207906 0
    outer loop
      vertex 0.436814 -0.528199 0.25
      vertex 0.431381 -0.502638 -0.25
      vertex 0.431381 -0.502638 0.25
    endloop
  endfacet
  facet normal 0.978149 0.207906 0
    outer loop
      vertex 0.431381 -0.502638 -0.25
      vertex 0.436814 -0.528199 0.25
      vertex 0.436814 -0.528199 -0.25
    endloop
  endfacet
  facet normal 0.921559 0.388238 0
    outer loop
      vertex 0.431381 -0.502638 0.25
      vertex 0.362237 -0.338511 -0.25
      vertex 0.362237 -0.338511 0.25
    endloop
  endfacet
  facet normal 0.921559 0.388238 0
    outer loop
      vertex 0.362237 -0.338511 -0.25
      vertex 0.431381 -0.502638 0.25
      vertex 0.431381 -0.502638 -0.25
    endloop
  endfacet
  facet normal 0.499997 -0.866027 0
    outer loop
      vertex 0.363341 -0.655458 -0.25
      vertex 0.385973 -0.642392 0.25
      vertex 0.363341 -0.655458 0.25
    endloop
  endfacet
  facet normal 0.499997 -0.866027 0
    outer loop
      vertex 0.385973 -0.642392 0.25
      vertex 0.363341 -0.655458 -0.25
      vertex 0.385973 -0.642392 -0.25
    endloop
  endfacet
  facet normal 0.124554 -0.992213 0
    outer loop
      vertex 0.474278 -0.14445 -0.25
      vertex 0.650989 -0.122268 0.25
      vertex 0.474278 -0.14445 0.25
    endloop
  endfacet
  facet normal 0.124554 -0.992213 0
    outer loop
      vertex 0.650989 -0.122268 0.25
      vertex 0.474278 -0.14445 -0.25
      vertex 0.650989 -0.122268 -0.25
    endloop
  endfacet
  facet normal 0.309004 -0.951061 0
    outer loop
      vertex 0.650989 -0.122268 -0.25
      vertex 0.675841 -0.114193 0.25
      vertex 0.650989 -0.122268 0.25
    endloop
  endfacet
  facet normal 0.309004 -0.951061 0
    outer loop
      vertex 0.675841 -0.114193 0.25
      vertex 0.650989 -0.122268 -0.25
      vertex 0.675841 -0.114193 -0.25
    endloop
  endfacet
  facet normal 0.499997 0.866027 -0
    outer loop
      vertex 0.698473 0.101127 -0.25
      vertex 0.675841 0.114193 0.25
      vertex 0.698473 0.101127 0.25
    endloop
  endfacet
  facet normal 0.499997 0.866027 0
    outer loop
      vertex 0.675841 0.114193 0.25
      vertex 0.698473 0.101127 -0.25
      vertex 0.675841 0.114193 -0.25
    endloop
  endfacet
  facet normal 0.978149 -0.207906 0
    outer loop
      vertex 0.743881 -0.0386267 0.25
      vertex 0.749314 -0.0130653 -0.25
      vertex 0.749314 -0.0130653 0.25
    endloop
  endfacet
  facet normal 0.978149 -0.207906 0
    outer loop
      vertex 0.749314 -0.0130653 -0.25
      vertex 0.743881 -0.0386267 0.25
      vertex 0.743881 -0.0386267 -0.25
    endloop
  endfacet
  facet normal 0.978149 0.207906 0
    outer loop
      vertex 0.749314 0.0130653 0.25
      vertex 0.743881 0.0386267 -0.25
      vertex 0.743881 0.0386267 0.25
    endloop
  endfacet
  facet normal 0.978149 0.207906 0
    outer loop
      vertex 0.743881 0.0386267 -0.25
      vertex 0.749314 0.0130653 0.25
      vertex 0.749314 0.0130653 -0.25
    endloop
  endfacet
  facet normal 0.913545 0.406738 0
    outer loop
      vertex 0.743881 0.0386267 0.25
      vertex 0.733253 0.062499 -0.25
      vertex 0.733253 0.062499 0.25
    endloop
  endfacet
  facet normal 0.913545 0.406738 0
    outer loop
      vertex 0.733253 0.062499 -0.25
      vertex 0.743881 0.0386267 0.25
      vertex 0.743881 0.0386267 -0.25
    endloop
  endfacet
  facet normal 0.669132 0.743144 -0
    outer loop
      vertex 0.717893 0.0836411 -0.25
      vertex 0.698473 0.101127 0.25
      vertex 0.717893 0.0836411 0.25
    endloop
  endfacet
  facet normal 0.669132 0.743144 0
    outer loop
      vertex 0.698473 0.101127 0.25
      vertex 0.717893 0.0836411 -0.25
      vertex 0.698473 0.101127 -0.25
    endloop
  endfacet
  facet normal 0.669132 -0.743144 0
    outer loop
      vertex 0.698473 -0.101127 -0.25
      vertex 0.717893 -0.0836411 0.25
      vertex 0.698473 -0.101127 0.25
    endloop
  endfacet
  facet normal 0.669132 -0.743144 0
    outer loop
      vertex 0.717893 -0.0836411 0.25
      vertex 0.698473 -0.101127 -0.25
      vertex 0.717893 -0.0836411 -0.25
    endloop
  endfacet
  facet normal 0.913551 -0.406724 0
    outer loop
      vertex 0.733253 -0.0625 0.25
      vertex 0.743881 -0.0386267 -0.25
      vertex 0.743881 -0.0386267 0.25
    endloop
  endfacet
  facet normal 0.913551 -0.406724 0
    outer loop
      vertex 0.743881 -0.0386267 -0.25
      vertex 0.733253 -0.0625 0.25
      vertex 0.733253 -0.0625 -0.25
    endloop
  endfacet
  facet normal 0.499997 -0.866027 0
    outer loop
      vertex 0.675841 -0.114193 -0.25
      vertex 0.698473 -0.101127 0.25
      vertex 0.675841 -0.114193 0.25
    endloop
  endfacet
  facet normal 0.499997 -0.866027 0
    outer loop
      vertex 0.698473 -0.101127 0.25
      vertex 0.675841 -0.114193 -0.25
      vertex 0.698473 -0.101127 -0.25
    endloop
  endfacet
  facet normal 0.309004 0.951061 -0
    outer loop
      vertex 0.675841 0.114193 -0.25
      vertex 0.650989 0.122268 0.25
      vertex 0.675841 0.114193 0.25
    endloop
  endfacet
  facet normal 0.309004 0.951061 0
    outer loop
      vertex 0.650989 0.122268 0.25
      vertex 0.675841 0.114193 -0.25
      vertex 0.650989 0.122268 -0.25
    endloop
  endfacet
  facet normal 0.124554 0.992213 -0
    outer loop
      vertex 0.650989 0.122268 -0.25
      vertex 0.474278 0.14445 0.25
      vertex 0.650989 0.122268 0.25
    endloop
  endfacet
  facet normal 0.124554 0.992213 0
    outer loop
      vertex 0.474278 0.14445 0.25
      vertex 0.650989 0.122268 -0.25
      vertex 0.474278 0.14445 -0.25
    endloop
  endfacet
  facet normal 1 -0 0
    outer loop
      vertex 0.749314 -0.0130653 0.25
      vertex 0.749314 0.0130653 -0.25
      vertex 0.749314 0.0130653 0.25
    endloop
  endfacet
  facet normal 1 0 0
    outer loop
      vertex 0.749314 0.0130653 -0.25
      vertex 0.749314 -0.0130653 0.25
      vertex 0.749314 -0.0130653 -0.25
    endloop
  endfacet
  facet normal 0.80903 0.587768 0
    outer loop
      vertex 0.733253 0.062499 0.25
      vertex 0.717893 0.0836411 -0.25
      vertex 0.717893 0.0836411 0.25
    endloop
  endfacet
  facet normal 0.80903 0.587768 0
    outer loop
      vertex 0.717893 0.0836411 -0.25
      vertex 0.733253 0.062499 0.25
      vertex 0.733253 0.062499 -0.25
    endloop
  endfacet
  facet normal 0.809017 -0.587785 0
    outer loop
      vertex 0.717893 -0.0836411 0.25
      vertex 0.733253 -0.0625 -0.25
      vertex 0.733253 -0.0625 0.25
    endloop
  endfacet
  facet normal 0.809017 -0.587785 0
    outer loop
      vertex 0.733253 -0.0625 -0.25
      vertex 0.717893 -0.0836411 0.25
      vertex 0.717893 -0.0836411 -0.25
    endloop
  endfacet
  facet normal -0.309037 0.95105 0
    outer loop
      vertex 0.28651 0.663534 -0.25
      vertex 0.261658 0.655458 0.25
      vertex 0.28651 0.663534 0.25
    endloop
  endfacet
  facet normal -0.309037 0.95105 0
    outer loop
      vertex 0.261658 0.655458 0.25
      vertex 0.28651 0.663534 -0.25
      vertex 0.261658 0.655458 -0.25
    endloop
  endfacet
  facet normal 0.921559 -0.388238 0
    outer loop
      vertex 0.362237 0.338511 0.25
      vertex 0.431381 0.502638 -0.25
      vertex 0.431381 0.502638 0.25
    endloop
  endfacet
  facet normal 0.921559 -0.388238 0
    outer loop
      vertex 0.431381 0.502638 -0.25
      vertex 0.362237 0.338511 0.25
      vertex 0.362237 0.338511 -0.25
    endloop
  endfacet
  facet normal 0.669132 0.743144 -0
    outer loop
      vertex 0.405393 0.624907 -0.25
      vertex 0.385973 0.642392 0.25
      vertex 0.405393 0.624907 0.25
    endloop
  endfacet
  facet normal 0.669132 0.743144 0
    outer loop
      vertex 0.385973 0.642392 0.25
      vertex 0.405393 0.624907 -0.25
      vertex 0.385973 0.642392 -0.25
    endloop
  endfacet
  facet normal 0.978149 -0.207906 0
    outer loop
      vertex 0.431381 0.502638 0.25
      vertex 0.436814 0.528199 -0.25
      vertex 0.436814 0.528199 0.25
    endloop
  endfacet
  facet normal 0.978149 -0.207906 0
    outer loop
      vertex 0.436814 0.528199 -0.25
      vertex 0.431381 0.502638 0.25
      vertex 0.431381 0.502638 -0.25
    endloop
  endfacet
  facet normal -0.499997 0.866027 0
    outer loop
      vertex 0.261658 0.655458 -0.25
      vertex 0.239026 0.642392 0.25
      vertex 0.261658 0.655458 0.25
    endloop
  endfacet
  facet normal -0.499997 0.866027 0
    outer loop
      vertex 0.239026 0.642392 0.25
      vertex 0.261658 0.655458 -0.25
      vertex 0.239026 0.642392 -0.25
    endloop
  endfacet
  facet normal 0.499997 0.866027 -0
    outer loop
      vertex 0.385973 0.642392 -0.25
      vertex 0.363341 0.655458 0.25
      vertex 0.385973 0.642392 0.25
    endloop
  endfacet
  facet normal 0.499997 0.866027 0
    outer loop
      vertex 0.363341 0.655458 0.25
      vertex 0.385973 0.642392 -0.25
      vertex 0.363341 0.655458 -0.25
    endloop
  endfacet
  facet normal 0.104521 0.994523 -0
    outer loop
      vertex 0.338489 0.663534 -0.25
      vertex 0.3125 0.666265 0.25
      vertex 0.338489 0.663534 0.25
    endloop
  endfacet
  facet normal 0.104521 0.994523 0
    outer loop
      vertex 0.3125 0.666265 0.25
      vertex 0.338489 0.663534 -0.25
      vertex 0.3125 0.666265 -0.25
    endloop
  endfacet
  facet normal -0.104518 0.994523 0
    outer loop
      vertex 0.3125 0.666265 -0.25
      vertex 0.28651 0.663534 0.25
      vertex 0.3125 0.666265 0.25
    endloop
  endfacet
  facet normal -0.104518 0.994523 0
    outer loop
      vertex 0.28651 0.663534 0.25
      vertex 0.3125 0.666265 -0.25
      vertex 0.28651 0.663534 -0.25
    endloop
  endfacet
  facet normal 0.978147 0.207914 0
    outer loop
      vertex 0.436814 0.554332 0.25
      vertex 0.431381 0.579892 -0.25
      vertex 0.431381 0.579892 0.25
    endloop
  endfacet
  facet normal 0.978147 0.207914 0
    outer loop
      vertex 0.431381 0.579892 -0.25
      vertex 0.436814 0.554332 0.25
      vertex 0.436814 0.554332 -0.25
    endloop
  endfacet
  facet normal 0.809017 0.587785 0
    outer loop
      vertex 0.420753 0.603765 0.25
      vertex 0.405393 0.624907 -0.25
      vertex 0.405393 0.624907 0.25
    endloop
  endfacet
  facet normal 0.809017 0.587785 0
    outer loop
      vertex 0.405393 0.624907 -0.25
      vertex 0.420753 0.603765 0.25
      vertex 0.420753 0.603765 -0.25
    endloop
  endfacet
  facet normal 1 -0 0
    outer loop
      vertex 0.436814 0.528199 0.25
      vertex 0.436814 0.554332 -0.25
      vertex 0.436814 0.554332 0.25
    endloop
  endfacet
  facet normal 1 0 0
    outer loop
      vertex 0.436814 0.554332 -0.25
      vertex 0.436814 0.528199 0.25
      vertex 0.436814 0.528199 -0.25
    endloop
  endfacet
  facet normal -0.669132 0.743144 0
    outer loop
      vertex 0.239026 0.642392 -0.25
      vertex 0.219606 0.624907 0.25
      vertex 0.239026 0.642392 0.25
    endloop
  endfacet
  facet normal -0.669132 0.743144 0
    outer loop
      vertex 0.219606 0.624907 0.25
      vertex 0.239026 0.642392 -0.25
      vertex 0.219606 0.624907 -0.25
    endloop
  endfacet
  facet normal 0.309037 0.95105 -0
    outer loop
      vertex 0.363341 0.655458 -0.25
      vertex 0.338489 0.663534 0.25
      vertex 0.363341 0.655458 0.25
    endloop
  endfacet
  facet normal 0.309037 0.95105 0
    outer loop
      vertex 0.338489 0.663534 0.25
      vertex 0.363341 0.655458 -0.25
      vertex 0.338489 0.663534 -0.25
    endloop
  endfacet
  facet normal 0.913551 0.406724 0
    outer loop
      vertex 0.431381 0.579892 0.25
      vertex 0.420753 0.603765 -0.25
      vertex 0.420753 0.603765 0.25
    endloop
  endfacet
  facet normal 0.913551 0.406724 0
    outer loop
      vertex 0.420753 0.603765 -0.25
      vertex 0.431381 0.579892 0.25
      vertex 0.431381 0.579892 -0.25
    endloop
  endfacet
  facet normal -0.797005 0.603972 0
    outer loop
      vertex 0.112041 0.482963 -0.25
      vertex 0.219606 0.624907 0.25
      vertex 0.219606 0.624907 -0.25
    endloop
  endfacet
  facet normal -0.797005 0.603972 0
    outer loop
      vertex 0.219606 0.624907 0.25
      vertex 0.112041 0.482963 -0.25
      vertex 0.112041 0.482963 0.25
    endloop
  endfacet
  facet normal -0.978147 0.207914 0
    outer loop
      vertex -0.436814 0.554332 -0.25
      vertex -0.431381 0.579892 0.25
      vertex -0.431381 0.579892 -0.25
    endloop
  endfacet
  facet normal -0.978147 0.207914 0
    outer loop
      vertex -0.431381 0.579892 0.25
      vertex -0.436814 0.554332 -0.25
      vertex -0.436814 0.554332 0.25
    endloop
  endfacet
  facet normal -0.104521 0.994523 0
    outer loop
      vertex -0.3125 0.666265 -0.25
      vertex -0.338489 0.663534 0.25
      vertex -0.3125 0.666265 0.25
    endloop
  endfacet
  facet normal -0.104521 0.994523 0
    outer loop
      vertex -0.338489 0.663534 0.25
      vertex -0.3125 0.666265 -0.25
      vertex -0.338489 0.663534 -0.25
    endloop
  endfacet
  facet normal 0.309037 0.95105 -0
    outer loop
      vertex -0.261658 0.655458 -0.25
      vertex -0.28651 0.663534 0.25
      vertex -0.261658 0.655458 0.25
    endloop
  endfacet
  facet normal 0.309037 0.95105 0
    outer loop
      vertex -0.28651 0.663534 0.25
      vertex -0.261658 0.655458 -0.25
      vertex -0.28651 0.663534 -0.25
    endloop
  endfacet
  facet normal 0.797005 0.603972 0
    outer loop
      vertex -0.112041 0.482963 0.25
      vertex -0.219606 0.624907 -0.25
      vertex -0.219606 0.624907 0.25
    endloop
  endfacet
  facet normal 0.797005 0.603972 0
    outer loop
      vertex -0.219606 0.624907 -0.25
      vertex -0.112041 0.482963 0.25
      vertex -0.112041 0.482963 -0.25
    endloop
  endfacet
  facet normal -0.669132 0.743144 0
    outer loop
      vertex -0.385973 0.642392 -0.25
      vertex -0.405393 0.624907 0.25
      vertex -0.385973 0.642392 0.25
    endloop
  endfacet
  facet normal -0.669132 0.743144 0
    outer loop
      vertex -0.405393 0.624907 0.25
      vertex -0.385973 0.642392 -0.25
      vertex -0.405393 0.624907 -0.25
    endloop
  endfacet
  facet normal -0.809017 0.587785 0
    outer loop
      vertex -0.420753 0.603765 -0.25
      vertex -0.405393 0.624907 0.25
      vertex -0.405393 0.624907 -0.25
    endloop
  endfacet
  facet normal -0.809017 0.587785 0
    outer loop
      vertex -0.405393 0.624907 0.25
      vertex -0.420753 0.603765 -0.25
      vertex -0.420753 0.603765 0.25
    endloop
  endfacet
  facet normal 0.104518 0.994523 -0
    outer loop
      vertex -0.28651 0.663534 -0.25
      vertex -0.3125 0.666265 0.25
      vertex -0.28651 0.663534 0.25
    endloop
  endfacet
  facet normal 0.104518 0.994523 0
    outer loop
      vertex -0.3125 0.666265 0.25
      vertex -0.28651 0.663534 -0.25
      vertex -0.3125 0.666265 -0.25
    endloop
  endfacet
  facet normal 0.669132 0.743144 -0
    outer loop
      vertex -0.219606 0.624907 -0.25
      vertex -0.239026 0.642392 0.25
      vertex -0.219606 0.624907 0.25
    endloop
  endfacet
  facet normal 0.669132 0.743144 0
    outer loop
      vertex -0.239026 0.642392 0.25
      vertex -0.219606 0.624907 -0.25
      vertex -0.239026 0.642392 -0.25
    endloop
  endfacet
  facet normal -1 0 0
    outer loop
      vertex -0.436814 0.528199 -0.25
      vertex -0.436814 0.554332 0.25
      vertex -0.436814 0.554332 -0.25
    endloop
  endfacet
  facet normal -1 -0 0
    outer loop
      vertex -0.436814 0.554332 0.25
      vertex -0.436814 0.528199 -0.25
      vertex -0.436814 0.528199 0.25
    endloop
  endfacet
  facet normal -0.499997 0.866027 0
    outer loop
      vertex -0.363341 0.655458 -0.25
      vertex -0.385973 0.642392 0.25
      vertex -0.363341 0.655458 0.25
    endloop
  endfacet
  facet normal -0.499997 0.866027 0
    outer loop
      vertex -0.385973 0.642392 0.25
      vertex -0.363341 0.655458 -0.25
      vertex -0.385973 0.642392 -0.25
    endloop
  endfacet
  facet normal -0.309037 0.95105 0
    outer loop
      vertex -0.338489 0.663534 -0.25
      vertex -0.363341 0.655458 0.25
      vertex -0.338489 0.663534 0.25
    endloop
  endfacet
  facet normal -0.309037 0.95105 0
    outer loop
      vertex -0.363341 0.655458 0.25
      vertex -0.338489 0.663534 -0.25
      vertex -0.363341 0.655458 -0.25
    endloop
  endfacet
  facet normal -0.913551 0.406724 0
    outer loop
      vertex -0.431381 0.579892 -0.25
      vertex -0.420753 0.603765 0.25
      vertex -0.420753 0.603765 -0.25
    endloop
  endfacet
  facet normal -0.913551 0.406724 0
    outer loop
      vertex -0.420753 0.603765 0.25
      vertex -0.431381 0.579892 -0.25
      vertex -0.431381 0.579892 0.25
    endloop
  endfacet
  facet normal 0.499997 0.866027 -0
    outer loop
      vertex -0.239026 0.642392 -0.25
      vertex -0.261658 0.655458 0.25
      vertex -0.239026 0.642392 0.25
    endloop
  endfacet
  facet normal 0.499997 0.866027 0
    outer loop
      vertex -0.261658 0.655458 0.25
      vertex -0.239026 0.642392 -0.25
      vertex -0.261658 0.655458 -0.25
    endloop
  endfacet
  facet normal -0.978149 -0.207906 0
    outer loop
      vertex -0.431381 0.502638 -0.25
      vertex -0.436814 0.528199 0.25
      vertex -0.436814 0.528199 -0.25
    endloop
  endfacet
  facet normal -0.978149 -0.207906 0
    outer loop
      vertex -0.436814 0.528199 0.25
      vertex -0.431381 0.502638 -0.25
      vertex -0.431381 0.502638 0.25
    endloop
  endfacet
  facet normal -0.921559 -0.388238 0
    outer loop
      vertex -0.362237 0.338511 -0.25
      vertex -0.431381 0.502638 0.25
      vertex -0.431381 0.502638 -0.25
    endloop
  endfacet
  facet normal -0.921559 -0.388238 0
    outer loop
      vertex -0.431381 0.502638 0.25
      vertex -0.362237 0.338511 -0.25
      vertex -0.362237 0.338511 0.25
    endloop
  endfacet
  facet normal 0 -1 0
    outer loop
      vertex -0.112041 -0.482963 -0.25
      vertex 0.112041 -0.482963 0.25
      vertex -0.112041 -0.482963 0.25
    endloop
  endfacet
  facet normal 0 -1 -0
    outer loop
      vertex 0.112041 -0.482963 0.25
      vertex -0.112041 -0.482963 -0.25
      vertex 0.112041 -0.482963 -0.25
    endloop
  endfacet
  facet normal -0.866025 0.500001 0
    outer loop
      vertex -0.474278 0.14445 -0.25
      vertex -0.362237 0.338511 0.25
      vertex -0.362237 0.338511 -0.25
    endloop
  endfacet
  facet normal -0.866025 0.500001 0
    outer loop
      vertex -0.362237 0.338511 0.25
      vertex -0.474278 0.14445 -0.25
      vertex -0.474278 0.14445 0.25
    endloop
  endfacet
  facet normal -0.866025 -0.500001 0
    outer loop
      vertex -0.362237 -0.338511 -0.25
      vertex -0.474278 -0.14445 0.25
      vertex -0.474278 -0.14445 -0.25
    endloop
  endfacet
  facet normal -0.866025 -0.500001 0
    outer loop
      vertex -0.474278 -0.14445 0.25
      vertex -0.362237 -0.338511 -0.25
      vertex -0.362237 -0.338511 0.25
    endloop
  endfacet
  facet normal 0 1 -0
    outer loop
      vertex 0.112041 0.482963 -0.25
      vertex -0.112041 0.482963 0.25
      vertex 0.112041 0.482963 0.25
    endloop
  endfacet
  facet normal 0 1 0
    outer loop
      vertex -0.112041 0.482963 0.25
      vertex 0.112041 0.482963 -0.25
      vertex -0.112041 0.482963 -0.25
    endloop
  endfacet
  facet normal 0.866025 -0.500001 0
    outer loop
      vertex 0.362237 -0.338511 0.25
      vertex 0.474278 -0.14445 -0.25
      vertex 0.474278 -0.14445 0.25
    endloop
  endfacet
  facet normal 0.866025 -0.500001 0
    outer loop
      vertex 0.474278 -0.14445 -0.25
      vertex 0.362237 -0.338511 0.25
      vertex 0.362237 -0.338511 -0.25
    endloop
  endfacet
  facet normal 0.866025 0.500001 0
    outer loop
      vertex 0.474278 0.14445 0.25
      vertex 0.362237 0.338511 -0.25
      vertex 0.362237 0.338511 0.25
    endloop
  endfacet
  facet normal 0.866025 0.500001 0
    outer loop
      vertex 0.362237 0.338511 -0.25
      vertex 0.474278 0.14445 0.25
      vertex 0.474278 0.14445 -0.25
    endloop
  endfacet
endsolid OpenSCAD_Model
