# Blender v2.77 (sub 0) OBJ File: ''
# www.blender.org
o Peg
v 0.212500 0.000000 1.000000
v 0.106250 0.184030 -0.000000
v 0.106250 0.184030 1.000000
v 0.212500 0.000000 0.000000
v -0.106250 0.184030 1.000000
v -0.106250 0.184030 -0.000000
v -0.212500 0.000000 -0.000000
v -0.212500 0.000000 1.000000
v -0.106250 -0.184030 0.000000
v -0.106250 -0.184030 1.000000
v 0.106250 -0.184030 1.000000
v 0.106250 -0.184030 0.000000
vt 0.992789 0.500000
vt 0.746395 0.926767
vt 0.746395 0.926767
vt 0.992789 0.500000
vt 0.253605 0.926767
vt 0.253605 0.926767
vt 0.007211 0.500000
vt 0.007211 0.500000
vt 0.253605 0.073233
vt 0.253605 0.073233
vt 0.746395 0.073233
vt 0.746395 0.073233
vn 0.866000 0.500000 -0.000000
vn 0.000000 1.000000 -0.000000
vn -0.866000 0.500000 -0.000000
vn -0.866000 -0.500000 0.000000
vn 0.000000 -1.000000 0.000000
vn 0.866000 -0.500000 0.000000
vn 0.000000 -0.000000 -1.000000
vn 0.000000 0.000000 1.000000
s off
f 1/1/1 2/2/1 3/3/1
f 2/2/1 1/1/1 4/4/1
f 2/2/2 5/5/2 3/3/2
f 5/5/2 2/2/2 6/6/2
f 7/7/3 5/5/3 6/6/3
f 5/5/3 7/7/3 8/8/3
f 9/9/4 8/8/4 7/7/4
f 8/8/4 9/9/4 10/10/4
f 9/9/5 11/11/5 10/10/5
f 11/11/5 9/9/5 12/12/5
f 1/1/6 11/11/6 4/4/6
f 4/4/6 11/11/6 12/12/6
f 12/12/7 2/2/7 4/4/7
f 9/9/7 2/2/7 12/12/7
f 9/9/7 6/6/7 2/2/7
f 6/6/7 9/9/7 7/7/7
f 1/1/8 3/3/8 11/11/8
f 5/5/8 11/11/8 3/3/8
f 5/5/8 10/10/8 11/11/8
f 10/10/8 5/5/8 8/8/8
