solid OpenSCAD_Model
  facet normal 0.866025 0.5 0
    outer loop
      vertex 0.2125 0 1
      vertex 0.10625 0.18403 0
      vertex 0.10625 0.18403 1
    endloop
  endfacet
  facet normal 0.866025 0.5 0
    outer loop
      vertex 0.10625 0.18403 0
      vertex 0.2125 0 1
      vertex 0.2125 0 0
    endloop
  endfacet
  facet normal 0 1 -0
    outer loop
      vertex 0.10625 0.18403 0
      vertex -0.10625 0.18403 1
      vertex 0.10625 0.18403 1
    endloop
  endfacet
  facet normal 0 1 0
    outer loop
      vertex -0.10625 0.18403 1
      vertex 0.10625 0.18403 0
      vertex -0.10625 0.18403 0
    endloop
  endfacet
  facet normal -0.866025 0.5 0
    outer loop
      vertex -0.2125 2.60229e-017 0
      vertex -0.10625 0.18403 1
      vertex -0.10625 0.18403 0
    endloop
  endfacet
  facet normal -0.866025 0.5 0
    outer loop
      vertex -0.10625 0.18403 1
      vertex -0.2125 2.60229e-017 0
      vertex -0.2125 2.60229e-017 1
    endloop
  endfacet
  facet normal -0.866025 -0.5 0
    outer loop
      vertex -0.10625 -0.18403 0
      vertex -0.2125 2.60229e-017 1
      vertex -0.2125 2.60229e-017 0
    endloop
  endfacet
  facet normal -0.866025 -0.5 0
    outer loop
      vertex -0.2125 2.60229e-017 1
      vertex -0.10625 -0.18403 0
      vertex -0.10625 -0.18403 1
    endloop
  endfacet
  facet normal 0 -1 0
    outer loop
      vertex -0.10625 -0.18403 0
      vertex 0.10625 -0.18403 1
      vertex -0.10625 -0.18403 1
    endloop
  endfacet
  facet normal 0 -1 -0
    outer loop
      vertex 0.10625 -0.18403 1
      vertex -0.10625 -0.18403 0
      vertex 0.10625 -0.18403 0
    endloop
  endfacet
  facet normal 0.866025 -0.5 0
    outer loop
      vertex 0.10625 -0.18403 1
      vertex 0.2125 0 0
      vertex 0.2125 0 1
    endloop
  endfacet
  facet normal 0.866025 -0.5 0
    outer loop
      vertex 0.2125 0 0
      vertex 0.10625 -0.18403 1
      vertex 0.10625 -0.18403 0
    endloop
  endfacet
  facet normal 0 0 -1
    outer loop
      vertex 0.10625 -0.18403 0
      vertex 0.10625 0.18403 0
      vertex 0.2125 0 0
    endloop
  endfacet
  facet normal 0 0 -1
    outer loop
      vertex -0.10625 -0.18403 0
      vertex 0.10625 0.18403 0
      vertex 0.10625 -0.18403 0
    endloop
  endfacet
  facet normal 0 0 -1
    outer loop
      vertex -0.10625 -0.18403 0
      vertex -0.10625 0.18403 0
      vertex 0.10625 0.18403 0
    endloop
  endfacet
  facet normal 0 -0 -1
    outer loop
      vertex -0.10625 0.18403 0
      vertex -0.10625 -0.18403 0
      vertex -0.2125 2.60229e-017 0
    endloop
  endfacet
  facet normal 0 0 1
    outer loop
      vertex 0.10625 0.18403 1
      vertex 0.10625 -0.18403 1
      vertex 0.2125 0 1
    endloop
  endfacet
  facet normal -0 0 1
    outer loop
      vertex -0.10625 0.18403 1
      vertex 0.10625 -0.18403 1
      vertex 0.10625 0.18403 1
    endloop
  endfacet
  facet normal 0 0 1
    outer loop
      vertex -0.10625 0.18403 1
      vertex -0.10625 -0.18403 1
      vertex 0.10625 -0.18403 1
    endloop
  endfacet
  facet normal 0 -0 1
    outer loop
      vertex -0.10625 -0.18403 1
      vertex -0.10625 0.18403 1
      vertex -0.2125 2.60229e-017 1
    endloop
  endfacet
endsolid OpenSCAD_Model
